<mxfile host="Electron" modified="2024-01-04T01:40:40.285Z" agent="Mozilla/5.0 (Windows NT 10.0; Win64; x64) AppleWebKit/537.36 (KHTML, like Gecko) draw.io/21.7.5 Chrome/114.0.5735.289 Electron/25.8.1 Safari/537.36" etag="nMte-DtfaHbOIl10Rzf_" version="21.7.5" type="device">
  <diagram name="Page-1" id="RBe4kKmWxrb9Rina0VuJ">
    <mxGraphModel dx="2495" dy="2134" grid="1" gridSize="10" guides="1" tooltips="1" connect="1" arrows="1" fold="1" page="1" pageScale="1" pageWidth="827" pageHeight="1169" background="none" math="0" shadow="1">
      <root>
        <mxCell id="0" />
        <mxCell id="1" parent="0" />
        <mxCell id="Soi8efFnlDYVeEfMOp3Q-26" value="" style="endArrow=none;html=1;rounded=0;strokeWidth=2;shadow=0;shape=link;endSize=6;startSize=6;" parent="1" edge="1">
          <mxGeometry width="50" height="50" relative="1" as="geometry">
            <mxPoint y="-50" as="sourcePoint" />
            <mxPoint x="827" y="-50" as="targetPoint" />
          </mxGeometry>
        </mxCell>
        <mxCell id="Soi8efFnlDYVeEfMOp3Q-27" value="&lt;div style=&quot;&quot;&gt;Laser 5mW : (+) - OUT (+) | (-) - 6x6x5 Button (-) | 6x6x5 Button : (+) - OUT (-)&lt;/div&gt;&lt;div style=&quot;&quot;&gt;The laser diode minimum &amp;amp; maximum supply voltage : 2.5 V - 5 V&amp;nbsp;&lt;/div&gt;" style="text;strokeColor=none;align=left;fillColor=none;html=1;verticalAlign=middle;whiteSpace=wrap;rounded=0;" parent="1" vertex="1">
          <mxGeometry x="4" y="-40" width="466" height="30" as="geometry" />
        </mxCell>
        <mxCell id="Soi8efFnlDYVeEfMOp3Q-28" value="&lt;div style=&quot;&quot;&gt;The output terminals can be made out of soldering wire&lt;/div&gt;&lt;div style=&quot;&quot;&gt;&lt;br&gt;&lt;/div&gt;" style="text;strokeColor=none;align=left;fillColor=none;html=1;verticalAlign=middle;whiteSpace=wrap;rounded=0;" parent="1" vertex="1">
          <mxGeometry x="484" y="-40" width="338.54" height="30" as="geometry" />
        </mxCell>
        <mxCell id="Soi8efFnlDYVeEfMOp3Q-29" value="" style="endArrow=none;html=1;rounded=0;strokeWidth=1;" parent="1" edge="1">
          <mxGeometry width="50" height="50" relative="1" as="geometry">
            <mxPoint x="475" y="-4" as="sourcePoint" />
            <mxPoint x="475" y="-42" as="targetPoint" />
          </mxGeometry>
        </mxCell>
        <mxCell id="Soi8efFnlDYVeEfMOp3Q-30" value="" style="shape=image;verticalLabelPosition=bottom;verticalAlign=top;imageAspect=0;image=data:image/png,iVBORw0KGgoAAAANSUhEUgAAAO8AAAC3CAYAAAD6rQkjAAAACXBIWXMAAC4jAAAuIwF4pT92AAAF8WlUWHRYTUw6Y29tLmFkb2JlLnhtcAAAAAAAPD94cGFja2V0IGJlZ2luPSLvu78iIGlkPSJXNU0wTXBDZWhpSHpyZVN6TlRjemtjOWQiPz4gPHg6eG1wbWV0YSB4bWxuczp4PSJhZG9iZTpuczptZXRhLyIgeDp4bXB0az0iQWRvYmUgWE1QIENvcmUgNi4wLWMwMDUgNzkuMTY0NTkwLCAyMDIwLzEyLzA5LTExOjU3OjQ0ICAgICAgICAiPiA8cmRmOlJERiB4bWxuczpyZGY9Imh0dHA6Ly93d3cudzMub3JnLzE5OTkvMDIvMjItcmRmLXN5bnRheC1ucyMiPiA8cmRmOkRlc2NyaXB0aW9uIHJkZjphYm91dD0iIiB4bWxuczp4bXA9Imh0dHA6Ly9ucy5hZG9iZS5jb20veGFwLzEuMC8iIHhtbG5zOnhtcE1NPSJodHRwOi8vbnMuYWRvYmUuY29tL3hhcC8xLjAvbW0vIiB4bWxuczpzdEV2dD0iaHR0cDovL25zLmFkb2JlLmNvbS94YXAvMS4wL3NUeXBlL1Jlc291cmNlRXZlbnQjIiB4bWxuczpkYz0iaHR0cDovL3B1cmwub3JnL2RjL2VsZW1lbnRzLzEuMS8iIHhtbG5zOnBob3Rvc2hvcD0iaHR0cDovL25zLmFkb2JlLmNvbS9waG90b3Nob3AvMS4wLyIgeG1wOkNyZWF0b3JUb29sPSJBZG9iZSBQaG90b3Nob3AgMjIuMSAoV2luZG93cykiIHhtcDpDcmVhdGVEYXRlPSIyMDIzLTA1LTExVDE5OjQ1OjM0KzAzOjAwIiB4bXA6TWV0YWRhdGFEYXRlPSIyMDIzLTA1LTExVDE5OjQ1OjM0KzAzOjAwIiB4bXA6TW9kaWZ5RGF0ZT0iMjAyMy0wNS0xMVQxOTo0NTozNCswMzowMCIgeG1wTU06SW5zdGFuY2VJRD0ieG1wLmlpZDplODQ5MDM1MS0xYmYzLWU5NDctYjk2Mi0yNjJjZmY4N2QyODEiIHhtcE1NOkRvY3VtZW50SUQ9ImFkb2JlOmRvY2lkOnBob3Rvc2hvcDpiODE5Y2M1Zi1mNDQxLTkwNDctOTlkYy0yOWMwNzJlYjVlMzQiIHhtcE1NOk9yaWdpbmFsRG9jdW1lbnRJRD0ieG1wLmRpZDo5NmNmM2JkNy1iNzJjLTUyNGQtOGRiZC04MGNmMmNiZDA5MWEiIGRjOmZvcm1hdD0iaW1hZ2UvcG5nIiBwaG90b3Nob3A6Q29sb3JNb2RlPSIzIiBwaG90b3Nob3A6SUNDUHJvZmlsZT0ic1JHQiBJRUM2MTk2Ni0yLjEiPiA8eG1wTU06SGlzdG9yeT4gPHJkZjpTZXE+IDxyZGY6bGkgc3RFdnQ6YWN0aW9uPSJjcmVhdGVkIiBzdEV2dDppbnN0YW5jZUlEPSJ4bXAuaWlkOjk2Y2YzYmQ3LWI3MmMtNTI0ZC04ZGJkLTgwY2YyY2JkMDkxYSIgc3RFdnQ6d2hlbj0iMjAyMy0wNS0xMVQxOTo0NTozNCswMzowMCIgc3RFdnQ6c29mdHdhcmVBZ2VudD0iQWRvYmUgUGhvdG9zaG9wIDIyLjEgKFdpbmRvd3MpIi8+IDxyZGY6bGkgc3RFdnQ6YWN0aW9uPSJzYXZlZCIgc3RFdnQ6aW5zdGFuY2VJRD0ieG1wLmlpZDplODQ5MDM1MS0xYmYzLWU5NDctYjk2Mi0yNjJjZmY4N2QyODEiIHN0RXZ0OndoZW49IjIwMjMtMDUtMTFUMTk6NDU6MzQrMDM6MDAiIHN0RXZ0OnNvZnR3YXJlQWdlbnQ9IkFkb2JlIFBob3Rvc2hvcCAyMi4xIChXaW5kb3dzKSIgc3RFdnQ6Y2hhbmdlZD0iLyIvPiA8L3JkZjpTZXE+IDwveG1wTU06SGlzdG9yeT4gPC9yZGY6RGVzY3JpcHRpb24+IDwvcmRmOlJERj4gPC94OnhtcG1ldGE+IDw/eHBhY2tldCBlbmQ9InIiPz6GNQXxAAAn8UlEQVR4nO2deZxcVZn3v7e7ekt30tkDhCRA2AKEsIQo8IKAgCOL6Os2yoyKIyjO6MwoijqIzvjiMoL7BgQFdByVURRFQcc4wiCb7GEVyIIJBLOSTjrpper943dP33Nv36q63V1V91bV+X0+9Um6q6rr1jn3d579ebxCoYCDQ6Xged4CoAVY5e6t6qIl7QtwaDj0ANOA1rQvpNHhyOtQMXie1wrsDRwI9KZ8OQ0PR16HSqIbEfdooC3la2l45NK+AIfGgOd5APOBlwEzAS/VC2oCOPI6VAptwCIkdftwWl3V4RbYoVKYDiwD9gDagcF0L6fx4cjrUCnMBY4FJiHiDqV7OY0PR16HCcOTwXsIcDAyxfqBgVQvqgngyOtQCXQB/weFh/LAizjJW3U48jpMCL6XeX+kMrcilflpHHmrDkdeh0rgFcBC//87gHuB4fQupzngyOswUcwAzkCOKg+pzHelekVNAkdeh3HDV5lPBJYi4g4BDwDPu6KE6iNTSRr+zWCjE9gLqWSzUPpdG7KtPKSaDQE7gS3AOmA1sBUYuXvcjVRZWPs0FXgrivECbAduwqnMNUFq5I0QtQPFCRch58d8YIH/u1nAZOTRbCUgrkEBOUl2o8yeF4H1wFrkOHnM87yHgE3IE6o3OUJXAqcBpyANroDW+7ZUr6iJUFPyWoRtRZk4h6J0uiP9/++JSsrMdSXNj+3w3zcDkd4w00jlF4CngD8CdwD3e563FSg4Eo8bc4G/Q+V/ALuAH6HD06EG8Gpx8/qk9VDC+uHAychDeTDa/Baqn8heQOpcH7AKkfjnyLmyHUfkRPD3sgO4GPgI0ogAHkeOq9XgNJtaoGrkjajFc4HTgTcBRyEJOZZi7QKBNLX/9fxHi/X7pIdAHoU1HgduQbbaw0Ryct1NGIa/rycAy1H5H0i7uQT4MpB3a1YbVJS8EcJ2Ixv2HOD/AvuhE7sUuQxJjQ27A9iMnFFb/Z/7/OdAB0A3UpmnIsfJNP/nTqR+J1HBB4HnEYmvBe7DT+9zN6Jg7e0M4GrgNWj988AfgDci88StWY1QDfJ2AYuBvwZeC8yjtG2dR2TcBjwLrASeANYgx9OLyNm0g+JZOx6KM04D5iB7em+klh8KHIBuuq4E17IFOV2uB273f256aWKpyx8APk6gLm8G3gbcDI64tURFyOtvbCuStG/1H3tTXDUeRsnrq4C70cm9EhF2C5UrJ2tF+bamNcsxKAf3QGAKInJcrDuPJP3/AN8Bfo8kftPaxZ7ntQPnAZ8hcFINIPX5IrSfjrw1xITIa6lSc5B6/H5EjLgWKAUkYf+MSHEL8CBSV/ux4rKj3pjwGmPixFG0IafZgSi54FSkJUwmXiIPI6n/K3ST3oUl/ZvhRrXW9HTgm8j8AR1wDwLnIk0JaI41yQrGTN4IQbpQds37kKexO+YtBUTOlSiU8GvkkewjhrDV2PwipM4hIi8BzkQ353xkK0ffMAw8B/wHUqefAYab4Ub1PK8FeBVwBXAQgaayHu37TcBQM6xF1jAR8k5FTooPo9M4qn7mUezvbuB7SPVch6Rv6ENrtfElJHMHsC9KOngzksbdjFb7dwOPAV9HN+3GRtWjrbU6AfgSisWbX/Yhu/dq5ItwEjcFjIm8Vrx2EfDPyLadFHlZAdlC96LN/R1SjUPOpqxsdoTQrSgd83ikDh6PbGb7YCqguPAtwL+hUFMesvOdJoLIeixBB9WxBGuwC/kBPob8Ag3xvesRicgb2dAjkNPilYy2bfPICfVN4KcoRXHE+ZTFTS4hjacBxyEnzclI07BJPIwOpatRfHObeSKL3zMpLOfjqcDlyFtvFmkQ+DHStp4z76nn71vXKBQKZR8+upBT6hF04xasRx4F6m9A0qqbmLhqks9K61EC0/3v/UvgJf+72t99N3JkvY7IYZb2dxrn9/eQ/b8y8j0HgF8g86KlXr9nIz2SbmgHyo5aHXPzDiMJexHKTR4VHkr7S455UeIxB7gAuJ/AbrcPry3Itj/crEHa32Mc33kK8EFgQ2SfB9DhdYhN3LSvudkfSTZ0EvBOpCbZG5pHatQK4CSU1VTXpC3y/W20Io/rZ9BBNhgh8RAyG/4VVUNleh0iWAR8myAKYPa4H6nKBxE5mNO+/mZ/lNvUduAtyLaLSpp+4PvIM9vR6JsaQRdy4lyH4sBRM2I38rK/Jctr46MbmQUmhm1/jx3ANaieujWL36GZH7EOK8uJcyJKTjgg8pI+4ErgKyj8Eyq+jvubjYAY51YvCi+9D2VvdVnPGa/0b4HPA/fgr1Pa62M5pRYD5yOTaKb1kjxKe/wCcshthPSv2yGMUeS1wkEHoFP3eALnUwE5bS5DyQp/oYHCJOVQxDPtoaqpdyDzIprLPYxu/p8jMjxJCk0BYqq83oCIa9Rh84IhVFT/aXTN2/Dj8s2wx/WEYuTdF0mL1xE4KArIo/zvwNeQg6ZpNzWGyO2o3PHdwFmMnlE7jIosfovipLdTgzBa5DpnoGyp89FoEjtGbzLhbkWH8yO4yqpMI0Ref6MnAR8CPkrYXtsJfA6pyy/iekQBsSSegsyNC1F2Ujfh0EoeSeIViMS/o8Ikjrmm2aiE7+0oTh91Lg4h8+cLwH8ijWoEzby/WUYceU9AObzzrNcNIufMx/B7QbkNDaMEYd6FwkfRnOk8sokfBX6G0i3/hOU/GMsax3z+JJRk8kaUZDKfiPPMv4aXUL7511Ad887xfL5D9WEJ1xnA+hHy+k9MB74FvJ5AWuSBO1GM8wmayMYdDyIk8oB9UDOCt6FqpmhDggI6HDej9b0flUjeg6ThKPu4RKHFIhS2OxYdGAvQZkfTO40JdC/SpFYQadBnf55DerD2uhvtaS+6Lx7xCoWC7aR6PfIuTvXfUEAq8gWoLG4Q3KaWQhFitSI/wjmoScHBjCaVwTAKNW1CsfVVqEPFNv/3w2ivOv3HbIJum3MI2uPGXcgwCv88hFT236Aw4LikvUN1YN1DLagW/eXIR7EA+F9k2rxok3cuUo1PIdj4AZSQ8EUaJHe3loghcgsqfDgZqbPHIMdWu3lLzJ+JxtexXttCssb5RrLfA/wAdQpZH/l7+jC3t6nDum9ejcKQS9BBvcb/+Y+FQmG3CWm0ICfLMYTDQisRy7eD29ixwjoYDfKoGcF3URhmMdqgU5Bk7kVS0yakabIHyZv25dHBux1J7hXIrr3P/92ojXR7my6s+2QmighcgKIX3Wi/tqCkKJOeOxKPnINU5sn+zyZL6Cq0+c5BNU7EOAQNtqJw0e0olfJwpB69HMXYp6Okj3aCOKxHfBfNYUTWnciTbXpU3406Yo6yZ6PX5lB7RO6HKchf8V7kaOwhOLR3Aj9EmnH/iO/Df/KVyMM8x/+5gOyi16OmcG6jq4Ai9nE7MmEORE0OFiBVeyoisyGxmRCxDanAa9BePY1CPbspAreX6aFIfsBxKCpxBkF/MBAP+5DE/RTa54LZP9MadRlyPxsMofKv58BtdiXhb14vaoS3CbinUCjkrU0dQNrOqkp+rtvDzMEDDkP14m9BjsdoVGAjqhX/FrpXQjB9nI4mbE9tJ5I84FAxdKBQzj8jG/QRYEeRTLdxwRE1GyixhwsQYf/O/3+0qcUQui8+hTq29Jsn7L3NoTDDIsKOqlUoB9fdCJXHDJR2eiRKkOjA7wNlw617Q2IW2vsLUYeSKGmNmnwjkriPUsL8MeTdy/pdHtm7bmBUdbAQEbcTxW+LNZJ3aAzkUCThTNQXbVQJLUEt+GOo2d/NKLRXMv6eQ7q2Xco2jJqqDWbl9Pc8rwMlNmwB1mblusaJ+f7DQwkSRU9Wh/pCRE1uQSnGZ6OKs0OJH/eTR4Lye6iK7xkSmqs5FJKw7d3d6KbKBPy+wUuQjXAr8rjVpbTyPK8NEbcbdWH8M37ljkNDYS4i7TuRpO2MeY1RkX+L6uLvQ2ZU8IIyQiqH0vTs02AAv6VnRrAnshNOQskG4/fkpI8egnrfPqQ2Z1KNsKTIHihs1Yvix6uQVpbJ664FijiiOpHz6WyUAnso8aQFcexx4KvIIbWBcUziyDE6D9YM/kodnud1oRjYqehmf4j69oDPQKdyK5K8GzPMgRyKLX8YFe53oRvuMpRfO8rJ1qToQPH4s5B2eChBumsUJsPuepS5uArLkzxW5Pw/aHuaAVrSvqn8020/VJEzl6COuJ4xBYXmPHT6bk73ckqiBxVSvJfAwXI8ynU/Dx2kDY8S4R7jiHoDqhjbn+ITKAtIm/0Zsmsf9X+eUDOLHGH70fN/1+l5XtrhijnA36Cc683IA7cr7UNlgphEUAg/iFXskUH0IBXQ9oy2oMSCJTQJeWMwGbUOeiPKQFxA6bGx/cAdwDdQae1GKuSzySH1LU/gtGolpo1rLeF5Xic65c9GttYNyAtX7+gk8Oyb0r+sooMgXdZGDnn+mw2TkEr8JkTa+ZQuFBlEZsaVqJx2PdK2KiZ9cuj0H7YupBM5idKEaei2ANkI3wNeqnOpC7KFcgQFBln+QrtKPDe9ZldRA5TJZutEkvZvkYpcau40iEtPAdeiFOM1qLCg4m2jcsiO7CcwsltQVUsLMZUo1YS/iD1IJVnmf/730WIMF39n3aCVcIVQVeCv42RU4nkC2uOfooKFpOM4XyLemeJR4/siBZih7IcjJ9TZSAsptm+m1nodqvz5MXJG9VHFtcohcb7Zv1jzu4P8n7dU64OLYCqqrHgHIvEfkGdue42vo1qwa3VzFPdKThTTUd7svyASF5DUuBjVgya5oXZg9bOKYDADPpFqwENrdwyStKf7P5dqeFBAh+JPEHGfQPdr1buTGPKuRp4zg4XAAs/zttRig3xJ0Y4KJP4RqSabUfA6VAZV5zCTFUCne7E44ESxBHg/wYEM8ApU4P0BJBHKoVTIMEcKmtlEkKDQYwqqpX4HKoYvZxqY5n2/QCryQ8iDXLMEohwS9Y8hr67R5Wci4/zBal+Av6idqFHbRSgjJY/iYCtorAwkOyzXhjKtqoHFKO3VRivBqNIk5DUqfhzmIgdOkr+TdUwCXob6bZ+G6mmLMb3gP7cFJVdchziymRTyD3LIrnkInbKmCXcHymi60fO8nVWWeq3IMfUxJB3aUPeHq/HVtgaRuqBT2ahTOcKSsZKwJyDYmI0O5j8n+Bu9BI0Io1gITPM8r69O9yaHKnyOR5L2RIIuMsVgYrW3ouZ9DxFD2lquh4lPPYo29ED/Zw8RaQFyd1cFft7yNKTivQapzhvQtIY11frcFDFAoFa1AVOrZDuOjKGJYBIws9xn+trQ3mj/4zAPaUrPFXm+5khY/9yKDrBTUaLJywhPjYjCLNI24L+RenwfKowfIuVogSHvKtRZcH9ky3hINToeGeAVvUir1WwvssHORSffTtTd8FYyVNVUQQz6Dw8dVDNKv3zceBFpUtHSs1ZEPLsXVhxywFKKhwx7EAHu9zxvVCOBJDBkq9Eee4i0pyG7/2iClkLFYAoHbkGS9gECSZuJG9OkQW5EhLHzVbuA1wIzJtLVoQSmIe/n+5CzYBjlzJo5SI2IfoLNryZ5NxFvj3roQO4us6fTUP1plPwGrcBbUfpqa6m/5Xle9DHd87zFyKNbLbPBoAMJpH9AqYlXofZD0WIcG0Y9vgF4M9IKV6AikpEki2JjN2sJI3kHUerW4yi+CvpyxyHV4pdU6LTxN7oDLcp70CmeR43TLgbWQkPZuTZ2oQPSpKFWK9nhJSR994p57pVIq3qKyJ5aJDwExYdLYV/kYPwEsNbzvKiaPhXlCxyOVOwpaK+7kYP0J1TP4dWONIxz0CGzmPJhuQISGr9E4UnjPc6sw9TOyVyL8oeXEJy4vSi/+C7P8zZNhFDWjTEHOafehU7AAqof/ijqE1034YdxYAdB4kMLQZFCpU+qXUhSxGEuqoC5yvO87TF7uifqr1VOK2hFCQzzkT3Yh+6bWYisC/3PmkzQ6HAIqZ43oE6XY0q8SaABtiHSvh4NVYuOL41DHpH0ZmTTPoxs3NRt2rKIiPul6FTME6TvbUOnV9t4J3hbmIM64e2wPmMrIu6I46Bak8TTfiBi3Oh/90F0wrdU4XNmoBvR3kf7sQbFNKMJ9bOBSxH5o+8ZKPK38tb3GSrxmQWUvPDZ8e51EXhIoh+JKp7+REC8Uo8hZC4uR87ZWUg6h4ie9j1Tcj0iCzMZ+CRydpgvOYwynfaf4GIvQ7aDsfnyiMRfJBKSSHtRqrbYusm+43/3YTQZsBrk7QS+XuLGzaORJ0cS5FrPQwO1d8S8foBAzS1HimKft92/ppnj3eMYTELOp8uR0zUpaZ9HVT4nIdOlaFVQ2vdMyfWIWZwjkepgTtA8Ook/geVgGMNiT0WxtMcJMowK/t/8NpZ6lvZiVH2xdZN8yVrX24DWKnyOhw7FUlJwyN+TL/uPPxIvXc2UyGXANwkf7EmJux7NfJ41kb220Ils6X9H2YFJSfssmjG9DDnlSpXyZf6ejFucLuRIMjNtzAZsRZ7hrnJfykcLGuR8FUHhsXn0o0qhkVBE2gtRk8UWqf6V4BB7EOiuwueABmUnJVep59chx89kFPf9LHLslPubRtreimzsXiyVtMg1l0IrOuhPRFJzPWFhUOwxgJxzH0eEn0oC0ha7ziw9ii3gTFQZEV2cdchJ0RX9chHshYi+kvCpmEfEvZagg2LmF6nCpPoQMh2Mh31hlT7nCkYTsxxRo48NSGsyKYOt/v9fi7yym5AGNeR/pwGkdq9Bh7MpoQt5ektccxxakGr7Kv9vbiQZaYdQ7/FLkRO2lyLpnmnfF+N95KJfwvfobUZ2xEJ0WhmS7YnisEehooF1VohgMgoNnIpO6iMIB8ILKIRxHVJ31vu/K7d5jYYd6MYyzf/mUZ1GA9EbtYBu+iRSJ4+ypz6Ophm+ZL1/C0pcuAd5lRcR9OV6Aamxq1GW10tYoZZx7LOp8DmP8nnHBoPIafVddMCsRmveCCWlIRTbyDyamv4JpKLsSVDLOB34J1Rz+zAiYQ7dhAcjj3LUa2d6034aDTTbDE1HWoNt6AbrJBgqVmm0M3oPPESoJxEh4hIVjGZ0G7LN7ySIDNjYhfZ9PXJmRnugjcIY97rHv8bzkcRNQtoBlAV1LWqn+jzK2GvY0OMo8ppF9jxvCM10vRTNTNkz8r4FSPW1EbfAZlE/g7zNjVKbO170IYJMRnHRuVXIb+5Fpk+B8J5sAi5BEvNspE5O81+3CeXt3uT/+wJ+N424a4vEXEe9IPqeBDFaMwDg5UjSnohIXK6Wtt+/3qtRhp5pLjFC2kYVEuVUqH7UyaIfkXh/wupYqRSzPLoBfoA65j2NVYHRqAuaAFsJEjXaiO8TNVFMQ57d6P5sRPtwL3IkzUCZTwWkEZi0yrJZRRXcv1a0Bq9ApD2e0sUCEJD2bmSG3Ybs835KSP9GQ8n4ln9a9qMY31o0IMnYHtHMFbNoA+j0s0unRnKmm5i0Zk23EWgfrfhxzwrD9Ie2kUf233a0Rxv9R1FUea88dMCcgrp+HEv5+mYTtrwdqcd3oHutoo3d6gUlJa9F4F1ooR5HWVino8WejVS/PDqxn0V20gqUqVXVHj51ii3I5i8QeFITw9+P+ejGfxFYVygU8pHn5zK6GL+ASj/Tbp9rulKejDzZyygvac39Zcry7kdagok5NyUSBan9G8LYRbei2b3TkNSYjBZxKzH2hvkbDiPYhlQ84wCcxthaysxDueFHowPy857nrbSe70S9laPF5f1o5mvFD9OEVWdtKIR4MpK0S4kfvGWjgA66XyHvsSkWCLXnadb7K1Gw2nJimV8NoBtwQ7n3xMHzvFa0mbuSvL7B0Ed48sMUVJS/OeEaLEWhuD1Qq6Ih4IPopvaQX+IcRjt61iDNqNbIoVjv6UjSHkVMDnEEw4i0P0ex3UeRxpL9YoEaInGmCVSUYCbkBIH60ywwCfF5RLAeJJGSjj5pI9i3TlQ00oVi55uQVDsk8p48UjmLVRpVAy0oQvFqVAC/hPJleXkUzroRhRSfJAitOdJGMCbyVhBD6EbqIbDdMls3WQVsRdKlBRFvHspGS4KVKAl/BjoEO1HM/VjkGDyQ8MT1ApJaNwHj6noxRnSi73MGmuFj5tKWQh5pcTei6MTjBKR1KIK0yAtB68xmPFX70PduQzd7XNF8MaxCobeDCezaHIrdxmEYhfseorrOw3bkSDsT9TwuNeISgnDiGuCHKB33GWrU87gRkCZ5DcY94rCOsRXZ+5PQTT8W8vajYvbjUZuWUqpoHmVALWecM5fHUAB/FrJpDyMoM4yDSbN8FsVob0JhyIZMYawmUiGvO03ZhlL3phMkKYwFW1DW225UKBKX6jiI4qH/QnXGxbQQSNoLkCZQ6iAxpH0GOaF+hki7HRdOHBeyIHmbCn7obStBosZ4elkVUKbUJ5F9eC5qBteGCPICsh+vQ4kZu81nVwCdqH/VOchZdhDJSPu0fz03+9e0EydpJwRH3nSwmcC73MIYukhaYTtTonkVqp7ZHx0CLyFyPEfQi6kSxO1A+exno75miyjtiDJleStR04UVyL5tirzjWsCRNx1sIRzrnYqk5ni8q32ot/YTxV5QjCBjSK7YB9m0b0dhqFI2LShycD+ytX+PKnxGJe84TAyOvOlgO7qhTdVPD5K+ieOwNZBYrSi54rWoNC8agorDLlQmeg1BWV5TFQvUEo686WAQJVTkEUm6gXme572QETVyb2TTnk8ySWtIuxylzq4j6EDpUCU48qaHrQTkHWustxroICDt36A4bTlH1G7UuG45TVqWlyYcedNDH+F2ONXoqJEEppvHGaiedjFSj0tJ2n4UP74GuIsipM2IFtGwcORND6a/UxciS8XnFpVxSJmhY2eifOjDKG/T7kCF/MtR14oNNHlZXppw5E0PLyFp1Usw+qRW2IsgueJwyqvHu1DXiuUo8WMDTVoAnyU48qYAP1FjO8GgLdNStdqYCfwV6st9NKVzj0GJFHeh/lB3ovCWc0RlBI686WEbAXlNUX410IZK80wR/DGULoI3/aF+j2YpxZLW2bPpw5E3PZh2OBDU9SZGggQLkzN9KiLtMspX+ewkKGS4E9XWOps2o3DkTQ/bUazXYAqyPStR1zwbtU69AA2T7ir98hHSXuP/62zaOoAjb3roQx01TJbVJJSbPJFuF71ILX4PGqLdS7x6bEjZT2DTOtLWGRx508MQUp0NulBXkfGQtwuNlzkfFQ6YsFOUuDZpb0eS9h5E2mbsJ1bXcORNF30E84PasUZgJiwaaEe9oc5DQ71mUHrCwA4kYb/t//sXLNI61BccedPFboJKm3aSe5xbUPH7O1DLmVkUmYBH4D2+C0naO5B0d+pxncORN13YZXKtqDSwFDrR5Ma/RgX48ylOWpBUvRfZtLfh4rQNBUfedGFm24JIOKXI69pRIfwZwDtRpU903IyByYj6Ixo3Y+ppR0jrbNrGgCNvSvCzrPoJyJsDeiITA1tR0cDpyBl1JMXL84x6bIrgb0PqcTM2+GsKOPKmBGsGlCHvSKKG/9x0lBX1bkpPzisg+/Uh5Ij6DaqndTZtg8ORN11EydvtP5YC70JqcqnmdAOoAd01aIbUczibtmngyJsuBggyqjxUDH8p6sq4F8XDPoNofs+1BKTdiSNtU8GRN10MEkheD82qPQuRNs6uHUSN5q5HHSNNs3JXMNCEcOStIhIkWkwiyDtuZfRYTgjGgpgJAz9DI0+cpG1yOPKmgx7g5cDFlJ6WYBqofxfN8/kTroWqgw9H3tqiHbWbeTuaMzSLeLvWjLr8CcF8WjcWxCEER97awEPjSN6Ekiz2o7gzaiPwC2TXPoJqft2EAYdRcOStPmYiR9Q/otYzpUaEbERtVx9ApB0q8VqHJocj7wRRwinVBRwF/D2aDh9XW1vwHy3+v6vRTB83VNqhLBx5K49WNBrkXDQZfi4irU1ckxW1ChUb7OP/fghHXIeEcOStLGYDrwEuJGhebsNMzluNEixWAh9H5PXw7WBn1zokgSNvZdCDGrxdCLzK/zmqIg+jkrwfonjtU8AB/utMK5xShfQODiE48iZECdt2DxT6eS9SkaP1tXmUUHEr8E3gPtRwPY/Iakr7nLh1GBMcecePHtTA/EPIMRVdS2PX3g98A/g16hZpT4Nvsd7nCOwwJjjyjh0tKNHiA2h2bW/keZPOuApV+/wXykGOa+naRvn5QA4OsXDkjaBMPvIs5EW+ENif+OKBLcCNwFUoMyqUg2w7ozzP6yDYA0N6B4dEcORNhk7UvPz9wGnETx4ww7i+glrPbKE8GdsIkja8BK93cBiBI295LEAOqfegIoKoR3gIqchXI0/yepJnRnUSqM0mjOTgkAiOvMXRDbwC+CfgBEYP5yqg6fb/BVyJVOSx9kDuQOQ1mVaOvA6J0bTkLWPbzkYFBP+AJuxFpe0gyj++AvgtMSpywkQLM1jbXIzLrnJIjKYlbxG0o6ZvHwGOY/TQ6TxKtPg2qvpZjRqnjxfdBHHhPG56gcMY4MgbYC6aPvD3BPnIBqYX8m3A5agn8jYmHpftJhzn3TnBv+fQRHDkld15NPBBVP3TSZi4eeSE+gbwA+DPWOrtePOQfbW9i0DyDqPMKweHRGga8haxcbtRgfzFKM84atvuBn4HfAGFgfqoXDinjdFlgtsr9LcdmgBNQ94YHIiypN7C6DEjedRO9Urg+6iJeaU9wZNRT2ZD3ujITweHkmhG8pqEi0vQJIJoIcEulGTxaVREsKNK1zGVcPO5PAo9OTgkQrORdzJKb/wIMI9ATTaG60bgq6hb4zoqYNuWQC+qSDKSdwA1nXNwSISGJW+MjXswgZrcE3luGM2vvRxJ3Up4kstdWy/BBHuQxHfkdUiMhiVvBAcBn0Ozf6LfeRuya78GPE189U81MI2gyboJRb3gumg4JEWjk7cTle19ktHeZOOU+n9oCsEmalsYMIPw5L9tOMnrMAY0BHmLhIH2QA3gPoDSHe0XDaIQ0KdRwsWIU6qGkm8W4aKEv+AcVg5jQEOQNwZ7AB8FziM8/6eAYqnXAl9H83/SKAboQjnTxtNdQGNNXGGCQ2I0Gnk91LXxEtTF0W5wXkB5yZehTKlaq8k2ZgDzCbSBPPJuOzgkRqOR90hkw55G+LsVgAf9535D+plMs1GdsCHvbtQqx8EhMeqWvBE7tw04CUnVowgnXhj79hI0+2ekcidFz+4cpDYb9KMKJQeHxKhb8lrIIeJ+CVhE2DG1G7gB+ASSbFmxKfciHCbahsZ3OjgkRr2TtwM4G/g3lIRhE7cPdW/8MrCGjPSH8jWGeYTt8eeRw8rBITHqirwRVbkdEfdzwL6Mrs65DJF3ZERmRhIgelHnSRNzHgaeoXo51A4NiroibwTHIYLuZ/2ugMh6BbCcZB0ca435hLWEQeAJoJCRw8WhTlCP5G1F84C+iLKmbGxERQc/IWMJD5bWsAAR2KAfNa9zcBgT6oK81o2fQwO9PovqcQ0KSMpeBvyYbHek2I+gfthoCk+mdzkO9Yq6IK+Fg1Ge8mHW7woo4eIS1Dd528gT2VNDpwCHEDS2K6Asr/WpXZFD3aKeyLsQSdZTCDundgCfQVlT22LelyXsDSwh3D3jEWBHBg8ah4wj0+S11OVpqKvjqwjnA+9A/aW+i68qZ5wEC5Gn2WAXmiLo4DBm1MMw5y5U1nc+QWzUjM9cjupwN5Lh8Zj+IdSCkkjMVEGj7j+YzlU51DvqgbxHABcR7n6RB25CLWs2kWHiWpiJcq/tqYBPAmsyri04ZBSZVJstdXkPNLz6IOvpPPAw8CmU8pivk5t/P3QQ2fHdu3CN1h3GiSxL3g5UTP9qwoUGLyCP8xNkJ1e5HFqR1LXju9uBO6gPrcEhg8gyeY8A3k14Fu4uZOP+njoZyuVrEVNRRliX/+sCGgv6cDpX5dAIyJza7N/sk9FM3AXWU3k0ke8/qA/Pso2FwDGEQ0R3IEebg8O4kFXJuxR4HWF1+S+o7G8d9aVq5hBxbZW5DzUFqBd73SGDyCJ5e9G0vtnW7waRxL0XVeHUBXwtYhZKLDHqfx55me9L6bIcGgSZIq9/sy8GTic8zWAt8D2ynbNcDIuQJmF7mX+FU5kdJojM2LyWrfsawjN8jNR9ivorm+tCUtduebMRkbduNAiHbCIz5PWxAN3sdgrk88BPqaN4qBWn3gf4K4J1HgbuBB6DunK4OWQQWVKbPZS0vz+BilkAVlCfUhfUW8vuq7UD+BGua4ZDBZAl8vagRAY7DXIn6vxYN1LXwjzgzQQjTQrASuAPqV2RQ0MhS+TdE0leW2XegLyy9SZycygzbKn1u37kdHsBnMrsMHFkyebdg3BSRgGpy2uhPm52y9Y9CFVBdfs/F1A6569xjiqHCiFLknc24Xm1edTLuN7swy7gTcDh1u/6getQC1oHh4ogS+SdRjiPeRg/m6oepK6FI4FzCVrd5FGDuZ9SP4UUDnWALKnNOUbPz+1L6VrGBEtdngpcSKD+m6mEX8XvU1VnB5FDhpElyesR7k0V/TnraAPeiJJMzKGYR3buL3FS16HCyBJ5dxG+wVuQKp1ZeJ5npG4OeCWqM7ZnEK1G/aU3p3B5Dg2OLJF3C9YEP0SIRUBHZMxJFnEoaj27J9IWTHO8rwMP4NvtTmV2qCSyRN5VhIdttaA46fz4l6cHS+KCmgZcAbyMcL3uj4D/JHwgOThUDFki71pUKmeLJ5Pr3JbKFZXHYWhg90mE85fvBS4HXkznshyaAVki71bU3mbA+l07SnbYJyLtUkHExj0NuIpwL+k8Ssb4KIpRZ2k6oUODIUvkzQO34WdU+TDFCh9BucJZMH5no3DQlUhVtlu5Pofa1N6N8y47VBlZIi9obs+NhJvL5VDSw4eBGZ5Qswsy0tbzvB6kwl+FxqvsS7B+pjvG+1EhxW6QxHVS16Fa8LJ0c/msPAL4FuGGbSB1+sfA59F8nyGojkoaORwmIcfZ3wJnokYB9qE3hOpzLwL+F6VCUq1rc3AwyBp5Qf2azwS+AuxFmMB5lB+8HLgeZS1VxK6MEDaHmqSfipIulqKYs03aApKw/w1cilIgBypxLQ4OSZBF8oKS+9+GpgLOiLysgKTdGuTg+h8US30WhWUKUJxARVRuD9myhyCJvwzZ2nujwyT6pjzqZnk9sn1XY1ULZWlNHRoXmSIvhMg1Hdm6H0Oqahzr8khN3YC8u3/y/78BJUnsQEQ3NnQb8mB3oXK9Xv9vLwAOQGSd4r8u7vMK6IC4G4WCbsdqipe1tXRobGSZvKCuGqej7KXFlC+kyPuPYaTSDiDyDiEytvh/owOR2BRDlHPcGRX5KeA7yKm2johHOWtr6dDYyBx5DSwSdwIHIofRW1HRfrWLFsyiGMm+EmVM3YIywUayprK6fg6Nj3ogL4iok1FG0xuAs1Dct53Kh7uM1H4e9Zu6GXV8XE9M7Dar6+fQ+MgseQ1iSNyDbNRlKO56JJLGXchWbSGQyqZIwPxr/848DFm3owSRB5BN+wByivURaV2T9TVzaA5knrwGRbzEk1A4aQEa5rUQ9UqeiSR1J7JrPQJ7eDdyZG1ChRBrkCq81n9sJJyiOYJ6WSuH5kDdkNdGmQyrHCJtD4FjyrxhAJF3p/8oOya0HtfHoTnw/wFPENxMjzkwhQAAAABJRU5ErkJggg==;opacity=30;" parent="1" vertex="1">
          <mxGeometry x="803" y="-23" width="21.08" height="20" as="geometry" />
        </mxCell>
        <mxCell id="Soi8efFnlDYVeEfMOp3Q-31" value="" style="endArrow=none;html=1;rounded=0;strokeWidth=2;shadow=0;shape=link;" parent="1" edge="1">
          <mxGeometry width="50" height="50" relative="1" as="geometry">
            <mxPoint y="-1120" as="sourcePoint" />
            <mxPoint x="827" y="-1120" as="targetPoint" />
          </mxGeometry>
        </mxCell>
        <mxCell id="Soi8efFnlDYVeEfMOp3Q-32" value="&lt;span&gt;&lt;font style=&quot;font-size: 20px;&quot;&gt;Laser Electric Diagram&lt;/font&gt;&lt;/span&gt;" style="text;align=left;html=1;verticalAlign=middle;rounded=0;shadow=0;glass=0;labelBorderColor=none;labelBackgroundColor=none;whiteSpace=wrap;fontStyle=1" parent="1" vertex="1">
          <mxGeometry x="6" y="-1155" width="328" height="30" as="geometry" />
        </mxCell>
        <mxCell id="Soi8efFnlDYVeEfMOp3Q-33" value="&lt;span style=&quot;font-size: 20px;&quot;&gt;Laser Pointer&lt;/span&gt;" style="text;align=right;html=1;verticalAlign=middle;rounded=0;shadow=0;glass=0;labelBorderColor=none;labelBackgroundColor=none;whiteSpace=wrap;fontStyle=1" parent="1" vertex="1">
          <mxGeometry x="620" y="-1155" width="201.81" height="30" as="geometry" />
        </mxCell>
        <mxCell id="Y4IA8xLdNqTUvV_AQGgA-11" value="" style="group" parent="1" vertex="1" connectable="0">
          <mxGeometry x="279" y="-985" width="268.80000000000007" height="802" as="geometry" />
        </mxCell>
        <mxCell id="6K7VMHpYSxSeSwOm8r6z-5" value="&lt;b&gt;&lt;font style=&quot;font-size: 20px;&quot;&gt;Laser 5mW&lt;/font&gt;&lt;/b&gt;" style="text;strokeColor=none;align=center;fillColor=none;html=1;verticalAlign=middle;whiteSpace=wrap;rounded=0;" parent="Y4IA8xLdNqTUvV_AQGgA-11" vertex="1">
          <mxGeometry x="1.186242624838144" width="267.6137573751619" height="77.36334405144694" as="geometry" />
        </mxCell>
        <mxCell id="7LHd7ZT8vhWrJQ_jtVhY-78" value="" style="endArrow=none;html=1;rounded=0;edgeStyle=orthogonalEdgeStyle;strokeWidth=3;strokeColor=#BA2525;" parent="Y4IA8xLdNqTUvV_AQGgA-11" edge="1">
          <mxGeometry width="50" height="50" relative="1" as="geometry">
            <mxPoint x="107.02525946179315" y="263.0353697749197" as="sourcePoint" />
            <mxPoint x="130.2343542955822" y="341.6881028938907" as="targetPoint" />
            <Array as="points">
              <mxPoint x="107.02525946179315" y="341.6881028938907" />
            </Array>
          </mxGeometry>
        </mxCell>
        <mxCell id="7LHd7ZT8vhWrJQ_jtVhY-82" value="" style="endArrow=none;html=1;rounded=0;edgeStyle=orthogonalEdgeStyle;strokeWidth=3;strokeColor=#1652DE;jumpStyle=gap;" parent="Y4IA8xLdNqTUvV_AQGgA-11" edge="1">
          <mxGeometry width="50" height="50" relative="1" as="geometry">
            <mxPoint x="167.62678486113117" y="607.3022508038586" as="sourcePoint" />
            <mxPoint x="167.62678486113117" y="266.90353697749197" as="targetPoint" />
            <Array as="points">
              <mxPoint x="167.62678486113117" y="456.4437299035369" />
            </Array>
          </mxGeometry>
        </mxCell>
        <mxCell id="Y4IA8xLdNqTUvV_AQGgA-1" value="" style="shape=image;verticalLabelPosition=bottom;verticalAlign=top;imageAspect=0;aspect=fixed;image=data:image/png,iVBORw0KGgoAAAANSUhEUgAAAIMAAAEMCAYAAADnDAXfAAAACXBIWXMAAAsTAAALEwEAmpwYAAAF8WlUWHRYTUw6Y29tLmFkb2JlLnhtcAAAAAAAPD94cGFja2V0IGJlZ2luPSLvu78iIGlkPSJXNU0wTXBDZWhpSHpyZVN6TlRjemtjOWQiPz4gPHg6eG1wbWV0YSB4bWxuczp4PSJhZG9iZTpuczptZXRhLyIgeDp4bXB0az0iQWRvYmUgWE1QIENvcmUgNi4wLWMwMDUgNzkuMTY0NTkwLCAyMDIwLzEyLzA5LTExOjU3OjQ0ICAgICAgICAiPiA8cmRmOlJERiB4bWxuczpyZGY9Imh0dHA6Ly93d3cudzMub3JnLzE5OTkvMDIvMjItcmRmLXN5bnRheC1ucyMiPiA8cmRmOkRlc2NyaXB0aW9uIHJkZjphYm91dD0iIiB4bWxuczp4bXA9Imh0dHA6Ly9ucy5hZG9iZS5jb20veGFwLzEuMC8iIHhtbG5zOmRjPSJodHRwOi8vcHVybC5vcmcvZGMvZWxlbWVudHMvMS4xLyIgeG1sbnM6cGhvdG9zaG9wPSJodHRwOi8vbnMuYWRvYmUuY29tL3Bob3Rvc2hvcC8xLjAvIiB4bWxuczp4bXBNTT0iaHR0cDovL25zLmFkb2JlLmNvbS94YXAvMS4wL21tLyIgeG1sbnM6c3RFdnQ9Imh0dHA6Ly9ucy5hZG9iZS5jb20veGFwLzEuMC9zVHlwZS9SZXNvdXJjZUV2ZW50IyIgeG1wOkNyZWF0b3JUb29sPSJBZG9iZSBQaG90b3Nob3AgMjIuMSAoV2luZG93cykiIHhtcDpDcmVhdGVEYXRlPSIyMDI0LTAxLTAzVDIwOjUzOjU3KzAyOjAwIiB4bXA6TW9kaWZ5RGF0ZT0iMjAyNC0wMS0wM1QyMDo1NTowNyswMjowMCIgeG1wOk1ldGFkYXRhRGF0ZT0iMjAyNC0wMS0wM1QyMDo1NTowNyswMjowMCIgZGM6Zm9ybWF0PSJpbWFnZS9wbmciIHBob3Rvc2hvcDpDb2xvck1vZGU9IjMiIHBob3Rvc2hvcDpJQ0NQcm9maWxlPSJzUkdCIElFQzYxOTY2LTIuMSIgeG1wTU06SW5zdGFuY2VJRD0ieG1wLmlpZDo3ZjMzMmI2NS0xYzRhLTM4NGItODQ3Yy0xOWYzYTk3MzliYmYiIHhtcE1NOkRvY3VtZW50SUQ9ImFkb2JlOmRvY2lkOnBob3Rvc2hvcDpmMmRiNjQ2ZC0zYzlhLWFmNDctYjhmOS01MmFiOTgxZDIwNjMiIHhtcE1NOk9yaWdpbmFsRG9jdW1lbnRJRD0ieG1wLmRpZDo3ZDExY2RlZi1hZTM0LWUzNDQtOWNiOS1iMTFjNGE0ZjFkMzUiPiA8eG1wTU06SGlzdG9yeT4gPHJkZjpTZXE+IDxyZGY6bGkgc3RFdnQ6YWN0aW9uPSJjcmVhdGVkIiBzdEV2dDppbnN0YW5jZUlEPSJ4bXAuaWlkOjdkMTFjZGVmLWFlMzQtZTM0NC05Y2I5LWIxMWM0YTRmMWQzNSIgc3RFdnQ6d2hlbj0iMjAyNC0wMS0wM1QyMDo1Mzo1NyswMjowMCIgc3RFdnQ6c29mdHdhcmVBZ2VudD0iQWRvYmUgUGhvdG9zaG9wIDIyLjEgKFdpbmRvd3MpIi8+IDxyZGY6bGkgc3RFdnQ6YWN0aW9uPSJzYXZlZCIgc3RFdnQ6aW5zdGFuY2VJRD0ieG1wLmlpZDo3ZjMzMmI2NS0xYzRhLTM4NGItODQ3Yy0xOWYzYTk3MzliYmYiIHN0RXZ0OndoZW49IjIwMjQtMDEtMDNUMjA6NTU6MDcrMDI6MDAiIHN0RXZ0OnNvZnR3YXJlQWdlbnQ9IkFkb2JlIFBob3Rvc2hvcCAyMi4xIChXaW5kb3dzKSIgc3RFdnQ6Y2hhbmdlZD0iLyIvPiA8L3JkZjpTZXE+IDwveG1wTU06SGlzdG9yeT4gPC9yZGY6RGVzY3JpcHRpb24+IDwvcmRmOlJERj4gPC94OnhtcG1ldGE+IDw/eHBhY2tldCBlbmQ9InIiPz6muQptAAD9C0lEQVR4nNT92bNt33Xfh33GmHOutfc+ze1/HQgQIEBRJChRHVWkGsuWJTlluWynnEpiK0mlKslTHlL5X1J5cCpVefFTHtJUknIsRaWyFdlSmRYpgiIJECB+wK+/7en23mutOefIw5hz7XMB9aJEZqMufueee5q11xpzNN/xHd8h/9V//p/yz/L6IGx5dXlLfn0gSmJ7NjLdBf7EX/kyf/3//Ld478GOJz/9k3z+/Y+wWvnjuz/Ef3n3bZ7ol3jwk3e8/oHxzk9vmZ4bD6ZbPrOZsBeu6sI3f+YdPv6tz/jqv/W/4cO/+5+hSXgmX+Pj8+e88/6f44tv/3/4yV94yPNv37J5GDm8viPGkfP3d+xvKocycHZWOD8X5mvjcDcxjmOYlkO5vr3j0eXTzfX1m+M7X/tZTfJCbt68KU/ff3dzdxPry88/nDfD5Vkq2+nu6pP87uOfuUyP9PbjT79dH7/zbLz7/Pn07A//4Xj9xfN8fX3NT3zjp3Q6HGvMEB885MV3fgu5GHn83jssr2Zubl8wh/d578GRu/rTTHe/waN3L8lT5Pj8mnL2HuN2pCyfMh/PePLuY1heczg84+7m13j6/gPq8V0Oy4bj4QuevPcYs4klB66fX5HnmRiEWgWJEO2C88eG6juETQDeg/klyJt/pud6/xX/ub/jD+ZrCxwBAd4BJO+nMxLPgGE63myAy4++95v7XYqH3aV88OG3fpiPNbPdDe/v715/qno1Kpx/dvu95+lq84yR+bMffvrRxRCH7/3Gt18/ffZoDxyOV/vPZNAB+Kz9vtquQQD71//Wf+9e//9oDAMQgAn4aeDR9Oaj7XJ39v7Vq+Pjw+3hIg3pWZ7ufmrJx0slzcfKl29u79LZ2dkrG9Oju2srUnU5lv2zu9dz3G22L8TsmeXlZtxe2hdXbz7YjeOHhFqPtzHPS32Vb59vD3n+rfnmKhvLDy42D784fPTt/flw+euAHaf87eDXdf37eXP+ZV5/0I1B8RNXgC8Dj29evjqLG/3DV69f/sTVjf3h/f76fNicPeLw8htL1Vs0X+R9eddCJqkco8ybOWceno1VZP5prYUUI9VmNhRMDLW7Z6rRdNSn1DvOt8FEpp+pVglSrYZFcp7LKOFP37751M4uLl68ev3RuOTpw2VzdTh+bt/bPXr0POf4a08fnb8Cvgu8BG6Bq/Y+6j/uTf5Bef1BNYYNsD2/GTYfH/9ffyIxfu07f/87X2FePkip/sTdze03Y4yhLqabwR6oThhYDLxnAqghKihlY7WwHQRs1mKKZTAGQjAkVAhKUAMrgoDVSgwiZiAIqkW2MTBPUxjHDWJFAtMzSWIi4Y+UfCAKf+ruxccim7Pvfu+jz227+fjvX73aXgf53b/7+MmXPn/z5vgr59tzAz79fb6v/8TXHzRjeAS8X6x86ZPyrW+yyB9luvsT+/2bR2EzDinm9yxn1BYGttigxJgoZpghGtyRmBlKwKhYUVSEWoxgxrws5KUSLBBUEPFjixjZKqCoCmZCKYZRSaKYglBQrSgzIQwCSq2GBNFhVLLtvyFBstXy0/M8X4XKX335w9vv6eb82zdh951HF89+C/g1YA98wR8wb/EHxRj+EPDBh7/yf/j5u8PVHw/j+E1h+ukq88OgWnQrSeSAYlSbUVPMCkNIiAhWK2Ao0jI4QwSMgAT1E97Suxg3HOcFVQERBENEqAZq/lOaeaAKSKWYMW5HlmVmiMmv2ArB+hcZKpC0AiVmM1IYHwQND5Lw/mH/xS8tsvn07vrl7XD2w78T5fzT3YPdfx3Gs0+A7wAHPBT+vr5+P40hAr8IfPO3f/OjX4iJnxny9U8NO/t6ztcgMIQKsmi1jErFMEQUkYiZUkvxR2dQMcQMrGBmoIKYIs0IRPzhG8ZmM1ANBAWrQEVFQJViQq3uISQI0oqE0g1OoVbDrGAI1AKqVBMQQ6moFaTAEEdqyWw3ISz5+BNLmfJyffuHLd188nq//Q80fvJry+07v/NwM/w/uHj2CfAJv49Vye+HMUTgl97cXv8RLfylFOTnhkGebXb6REQoVoAZDQGpBVFDRVDxEy6SqLXnlYrVdt8q/WijCJjQQwZVcdfQvg0QNawaZhWVgopSRaD49yGCSkDVQCpWMzFGqlVE/feKKEHdGxkGCIGAqJI0YlY8DJkxxkjCYq6K6vEDUXm3zPXnrz///qfL7uzftFef/PXd43e/xRL+K+AGWP41PhPgX68xnAN/8tX1F3/0eb79t+ty/NkU9b0h6GUaIkETaCHnBVEjRMOyEQKoKCEEhACmlCpgUKu0R1BbuAAVwQREA2aCGBj+b6YGJohHAapBCiNWDx4yDERooUXdcKRBCQKlWssv3MOoCsFjCbmFf5FAEGk2V0CaodSFFCPRqockOQaNipXl/ePx8F6t8sdub178+vTm/T/74Ozl/1Ue/cL3cU/xr+31r8MYHgK/fLv/4uevf/X2z2434Zti+b2z0c6tzszZqAjIiKaIWUYwTwLbQ0spggi1pVui+MfipmACIup1aIAQAqVY8wKKBcMK7sqpKApmWBU0DeRaqObn2+O/IqKYVBCj1OLhRISlZGIQJChGBQ0Ygpg/fi9J+ltX9yqAiDVPoVjJVIQQIqNCrlkwHkzL/OfevPzwZ6f59S+F28//i/Onf+z/C/zXOKD2r/z1r9IYtsA3b/jsl69+6+rfT2H5Rhzs3W3K26CCWaUW4/bujmWpiO7YxTO0nUI1I4RASglpWXuPpiZQEaTlEdqMQtQNRRVyrZgpiGEmmFZ6aKmlIqKkFKhWqfjPznkhavA0VE5/NKjnHNV/X7HqWEX16GSAmSFieNnRDaNVN7hRGR6WUlSmOSPihhtCoFpGVFl0elLy1Z9Hys88//hv/dIy/6H/57tf/un/G16W/ivNJf5VGEMCnv7a4bu/GG3+74+JXx6ifS2oDqrGmIygSilGtUStA3Mu7f65AdTqBhFjImik5OLuXYQqYIY/KMX/IiBWQN19l/b9ViuIn1zzLwKEaZo4PztjWQq1TuQ6U2vGakVGEOsgZzMEBbPqhibBDRLQELy0xPMKBD/9BHreAc0oxMtUrFIR4pAoS0WiEIJAFaIJOjSPI8d3CPGvXj3/7tfrPP/85btf/8+AX8GR138lr99rYzgfLy+/evfyxb876fGvnG/Dn9mmso0qhPYQVa0lZQIFzi7OiPOCmJeIJn7DU0wI4qcYweTkfiulBXcIwUNKrQXFqwczEFViUPJS3KtoxCrEGDk7OyPGyPF4IOeFXAtWF9BKLso4JvKyIAjZMm6kUEpBQkAkICrNKFo1otaMtBmAtETUFMSN2T2QUqy6AcRIqz+QYC3ZlFbhZE+cg/3h/fXH70zT/ufG7Qf/R9Xtfw68+D1+bsDvrTFc/O5v/M6/d3aR/pJI/iu7VD/YBdGoC8JMKR53RYLfMPMEwBA2w4Z5mqnF0BYaUkwUK24Izb2C33CxZhBmGAHIhKQel0tFVAiiVIxcJgeQcqUuhuVKzpXtdsfNzZFhiIgN5Fw4OztnyUdCyJyfP+D169eMY8KsUhYjDQOlFCpGLQWr+EOleAJr5u/PYDWEVpwiXr0g5uHNzBNZESqCFUVC9IKoFqjmAJcKcHy8HF78mflw+Oqwff+nLi6f/p/wsPF7WnH8XhiDAj9zN01/YYjlP9Y6/cLZNpzFkDWwUJYZ6kQuBRVBdKRWW+OtmidrMSY/cSKoKrmWNYGsZtSacQzQK4cgSi4LQaBahWocpgMxDKSY3PUXUDFCHHjx8pb9zcw8L3z22XMeXD5kXgrTtHBx+YCgUOtrkIwBu+0W1cA4RrabBFJJQ2Gz2UCFUgGpiEFMjlY62NUTUdrfBQjQE2IzTHQtVIx+KJS8VIb7lQwFscKggmgdjkv+8v56+d8K5enZxQf/KdTv8HsYNv5ljWH3rb/z218Pmv+ahvzvjiPf2GxkG8KM1aWdaLdyzDCNnsyhHsNbhg5GjAkQVGngkv+CaplSssfmFioK2Y1GhGWeKGXxNK1WxhhY5kyIgTRErl+8Ic8TX3xxxYff/5RPP/uE51+8ZEhn3N7umY6FR4+fcDxODENkyYXD9IpHD56RRuXp4yc8eHDGZlu5ONvx6PETnj5719HMQdHREUsHo7qH8NDhGW1LMLqBdMxk/Tpbc5sQlFwrASWIYBa8bKYyBBBKmMrhwfHuo//lshyfPHjylf89wn/L75FB/MsYQ0zh8BduXn7+7z8407+axuXLwxAIsYLNGGUFitI4UqyCRFJKXv/hJ90Ak4b0iaExsCztxFeoNVPNIR2rRq5GrpmAYCqUXDjbblGFu/2eu9sD1eDm6obr21tevbrm+vXCp5++4Icfv+DFy5fMk3Fz/QUGHI+BIC/cLlU5TJVhBJErUoKHD3bECI8ebXn4cOC9Z8/48td+kgcPHrHZDjx6dM7F5YaYhBAUW6+1EII3K63THnr52YEvUVomQTU3JAlCzV75BFGw4F+LMUYlBJM5H7fHw2f/0dVLHjx69I3/HWz+JjD/SzxLf6D/gt/3ZJ5u/2QtV//z3dnyl4XyKMRKjA1+qZk1j27ZfEqeoYsECkY1oxhE6bBRRYFSsp90DR6fa8FqaRiBkSutnAyEkCgUlqlydf2a6bjw0fc/4vXrN9zd7bnbT8wZPv3oitdvDhynwjwXloXV1S9TYXex4fXrIxorKcL+FoYBSoYvpj3bjfLy+Z6HjxJvXh/5wQ+f8/Sdpzx6fMF77z/lvfcec3Y+MG5GxjERQvQEWKI3u9aC0JpHoOEozatIY8lUz3c0OMBltRK1G4R7kUBljIpQxuPy4i/f3bAbz35Sdufv/HX8hP0Lv/5FjGFXy/Tna77+n6Zx+TdiKo9qndEAqsXDAqAEILSGkCISMJTSMv9qrZm05gUOyNRaGcaImUPAJS/M0wwixGEkBfcuQQMvn7/ixYuX3N4d+fyzL7i9uuPD3/0+h0PmbLfhzdUdc4nc3Wb2e8PWikYQNeYZtqNSSmDcDKh6bB+HmdormwjTVEkpcvWmUPId8/Sa58+vePruJS9efM6rl+/w+OklF+c7Lh9ccHa+Zbc7Y1n8+1TDvTBXqUVaGep4RwjBKwkNrSKpnsOYeQUj2pBOqHVBxEhJwKahlFe//OqF/a9hu1xsvvxf8i/hIf55jeHdWqc/ix3+J1H3/06KskMmQiykeK+sE4eOVQIaYksEzQGeWjExJOiaMxgQ1fEFEaNWY5mPlFI47I/kvLDbnbPb7AgSefHyOS+fv+TDH3zEp598zmE/8+rVDfNxoeTKfl/Y391ymGGeFzB/6NlgXiopBiw4ZF0ymARGiQSNGIWBSK0zlYVaYRyV45xR4HDnRnx1tUd04bC/5vb2hi/t3+HBwwuub2549OgBFxcT5+eXXFycE4J66YlXEWb9rRshxnbPGrCFfwxC1EqlUnPB8xJFNXoZLYVRhNmOmzy//POvXnzrBl2mi8fv/R3+BTug/6zGoMC7y5v9X9a6/2sxTX96SGWroSJaiQFCi4MqChbbhQc0uBusJXvJ5CBAy5Ydoyu5MG635GVmvz9gVqg1e5goxsPLR6Rxy7Sf+OzTD/nO73yP7//uJ7x+9Ya7/cFb16aUDDUbKQbm3BK6lpSKBIIFhuinsbQHoMHb1xITqhENkWWB7W7EmPHEr7LJxjItzf0H5nzkeCzc3C4seSYNgZxnrq+vefXyDc/eecLjx0fPG2Rc37YbXKXU4mGiNdpiSPdut6z/1eDeMueMxkDSAKJYMQiFpIaV4+V0fPkXX3327asYzz/Zbr70Pf4F0Mrwv/of/1m0Hv6Rf2p8zDTvGeLd09f55n8Qy+F/GMLx30ixnGtYRDQTQiU2S3B8XluJGNwgBDDH9x1ZdBxfxWFabXV4zhkRo5TM3d0NMSa22x11Me5uj7x4/pwPv/8x/83f+RW++50f8NFHb5iPme3g4SjpQAoDEAlpJMTkJ0gDtQqlhnYCIyZeeZg5WtnxAQ0QU2gA0sJmNyBU0pDYDAlRYbsbGTcbttuRUishqBudVo7Hif1+z/XVHdfXNxynI7X6AZnnyRtbURve0h+B5w4i2jCF/sfa3z3fVtXW0QVUvfFm/jXqndNdyeF9kenubHvxLVT/uSuMfxbP8Kjk5b832vQ/Cjr/qRCXjWgByV5nO1nAEUQTVGM7jbJCzKVmitW1whIEsUDNGQ2eKE3HIzHpWp7FMDDGDZ9dv+Bb/+A3efHFaz57/pyXXxzYbISLnWAloBJJIRFCAlPC4F3N4+FIauVqLlCyOfBEBmkhy8QxD2e8UWtiLgtjFJYyUfYzQYxBEnOpxBTJeeb84gKAzfYc0YxZ5vpqz/EwMwyRGCOvXl/z8uVrXr644atf+zLvf/AOZu4BHIV1uBs8d3AwSlcjWZNO8RZ+xWF8R2RpjTLHN0KCAZG5Lu8d7w5/7SZ9+lsX7//ifwHb/e+lMaQ02L8dcvlPYlz+lOiyDaEgWlA1onpWD+rG0LyCdiuXlizSm0TednbAxRATDocJoTJNR46Tw7Qxjhz2Ez/43sf86q/9Jt/77u9y9XpBgPNtREPASmEcRmJKHprEeQQ1Q2m1e6nWEla/7fNSW+LqfQ0zvEeSi39cBY3CXamIFKpBEe9umlUs+fu5vbliGAMahJQcMR3GB8zTgZIDVmGaMrfXRw77zN1+Yn935Ktf/QmwwPn5BpFKGsKKXNKaWafys1tFa3S1AlXu4TCqSl0qeS7EKAyhhuVw+4del0//43Hz3d8cHv38d/jnoNaF/8V/8pf+sf+Wc/ljobz6nw26/JUU81kIhRAzIUEKENQzYCVBa86s4UG9tvbWcGiZtGC1lYh5JoTIkmdiVEqpxOBQ9acfPee3/+G3+Zt/82/z/d99wfFQiDEwxIEQ3PPEOBJjJGpo50soZkxzYZpnjoeZaVpYKiy5Ms+ZUv36aushGEqu1lxubE0td79WjVK8/CzFqFSWeQFkTUqXZSbGQM6ZIQ2EGMECtSrLDPNsbhQ3B968uWaaJ1IcGMcNIUZElGEYAFqouNfTaNdxevWPa8NmGnVcDKvLmqPlXMKyLO9qrZ/tHj/5h8jZRJ6ckfVP+RNvNj//j7SEnzx++MEP8if/3nla/mIp+TwkiFrQAENSTxgtICgqgWrOBfSKwjNmv2zPgr0V4U0qp5VJu4kJQzg7uwCDH/zgB/zdv/MrfO97L7i5WxAJ7DYD23HTWhpevoYQMTOmZfGaHMjVOE6FZa5McyFnf+glG7UKWEDDyJKPSD/tVSnVk0mrHVbW1vMAjdVBsCBYNVLxHCMvCzEaxpE0KKXsGVJwz2MRLGFVmI8z0+HIqxd77m4nhBGRyFd+8v2GpazPns6n6K+OSTRf2jxEQcwPWWZBQ0UTQAabUQ1Ikce3++v/6OzVh39v++TZ3+OfsYfxjwsT8fObz/5kTsd/q8b8JaFgJgwpEoJ7BYjNs3lc7nXy/TKSRjph5RVKS+r0FPdqZZ4KISVubu741q9/h+/8zhd8+unM+bnw4MEZ47DxRlctxBhJaWBeJoe7q3FcMhrcu0xTxWpEQoRSKO135mLUoqAJVeF4POAMJLDa2Uq2Jmai3pmsjbpWS0EksCyFMQWWWsgFlpIZByHESgwLGgShOnPLlFoiVoVajnz6yTUq3147p8/eecgkM+N2oFYjxg5N1hWA8TLTGhNDMWl0ulopVjCq4xS1YOTGvspqy/7n3nzxw/8wpsffT7sPPnnLyv5xD12uf/fHPpnzp1++mt/81VH5o1aM7SayHQfGFBApOFsoNpKpNlDplDCa1WbFnZ7WXJ5USlnIpTqusLiXWOaFu9sj3/r1f8iv/er3uLl2QwgayIsRg2DVw0/FWEqhlMpcHMk8LguDjSyzUbOffpWASmUpmaVUlmyYKZa9WYYI0/EGsd5N1MaX9GRNJSDRz6OqtgS1QBVydkMxg7x4fjIMsAioVFQWVCtBEhCpRVGUw3HPh99/zZC+zXa7ZUiRzftPCZoaWaauzbm3XycYW0gOnolAbejm2jTLBAULwrLcPjzchv/g+tV3f/WJnv1fcHr+P9kY/hGfO6tZfyml+m+OwR6OY+JsN7LZJELw5ouJoObGYMhqCE4GMqxBzJi7XgeTKrksGF77L8tCye6S53nh27/9u/zq3/9NPv3khhSFFDee9M2AeDipYpQyMS9zI6UG9vNErR6G5skamjeAKcUWchaKBYrBMheMI82vUkqklsW9luXGOfAziC1IEaRdb0reYDJTtBqbcUOxiuIeglmIUZsnsWZEGdFCnispDgQZOBxmvv/9F+zOvsP5+Y6LywvOzrY0Gm/LE+wUOdbP9XyiVyI9+dQT6mudJgAhmGQ7fPX65ov/cLP74d8/e+cr//Cfagxf+/k/89Ynvvcbf+PrVq/+HY3LB+Nmw3YzMG6iw58NLcQECeYs5fp2nHMXR+MheItWtIJU6pIbDu9s5aowHRZevnzNt771W3z/+y9AoOCTTyGMGMK0ZOaaSVHI5QimzEcoNZOzl2SL+ce7mDAC++PCdJyZcmF/KByPC9NSqWUBO3ouUaxxKMAa26ogzpCWikyNIyGQ5kqITsARxYdzohIkEIKwNP6bSmzfU6AYpoVilZqBat772Bs/+MGnPH32mHfffcbZ+ZZxDKQYGDaBUtyzqoTVELyf4Qbhsx7a8qbWTscwutdekKQs010qWf/0ze2nf/7sna98n3+Kd/hRz7A57l/9onL3F2II2zQEYhSsLpTiJNBOHSvW8gIDavHppMZgl+5yAcQTvlqynyxgOk6oRuYpsz9MfPLpF3z22RccDsa4UZalUmsmDSMh4NZumSU7ImkWyCUSBkVkZsmzx3kTjsfKvFyzPxbmeWHOxmGq5AWWBSrVvX3hdL3VWfbLwkqh95f7CRQWCqpCilDMKHkmBUFjYEiBGIScIag4CKcJw8hlASkUCqEKUZy1f3098/LlG54/f8nTZ4+JYQNUQnG6Xyml0Xp+5LWiVd1bhNbHKFRR7xYHo5IJUlnK4f3leP2X5uMP/8YQfva7/0Rj+OI7/+36lwdPnn51OV798m4XvhJj8GrQMjk7QBMlNBQ5tfKm0ddaI9bvbeP/Nb6CtS8JIYLAdFyYZ2+uLXPmxcs3/PAHn/LqzUQIYKIs2YGnOS+IKTFCkujIpkVCvGQMkeN8x1L3ZDOWuZJno7JnOWYOM2j0068KISoSnfFk0U9cEId7BShzJoTAvCyE5CCEl8VeRWRrLfQCIcLdoTIOwFyYY2AcWvUhRooRDaO3oxEkVkxzazzBkCBn+OKL57x+dcVhf3TsoRrTtGCGt/oxpChm3u7v2M2JVdXwB+khzKgi3vmshaBGznOycviF/c3LPzo85EP+CZ3N+55BfvCdv/fHNdgvjjHpkJSoIJJB2oWYQeiYgTZ2lyLqEOsKp1q/WHdl4MlWlUqtnpyVIsxz5bNPn/PDH37Ksakr1KX4GxKnkwWEEAY2my1pGFnmyLwIt/trjscbryqqeTgpRsmZEBPnmwEJxjxnRBO1wFIAiz5vUSspDdQlQ6lUrYQUWHJpVUqlZM/Yqc62ztmrjSV7TD8c3TCWpXiHMnjaHD2jJwyJmBSV0fGV6o0vJ/DA6ze33NzcsN/vqeWyIbDVmePVjTNEoS4Nml7LTO6V8M78EpU2W+LPQIMiuRJDxZi+PB8Pf8GWj/6ebL7y8T/WGOadu5snw7sPPn/+W38spvg1VWUYlJSEIQVUa4OIo5M4a2cqwQlHP+EM1QxTQZtR1Cqr9YYQiVGY5pnDYebFi9e8vjqQS4s41XmQqIeb7Xbk7OKCMe04HDM3twcO05Hb/RuQhajK9mxANTJsBNGBTdqRzThOMxoLufi8ZFlqy74Fq8o8F8pxcQRHDBkVopFLZtwMyLQ4QRUlNfc8Tw7wlLw0UKo4MDUbWRuAWDMxQFyMYQykIiDRWUtSWBZBgzFNcHt7x93dDfPymDiODFFbY61SCg2R9TNbWn4D9+Dq9uqjh+DJhQRlGCPMBuRNnm7/4jx99DfGzVc+4x/T1eyeQY7l8L4Rf1pYzr0yMELQ9b+qTiapuEcQpA26Wms2OR+wE1hr9eEYqeAVcnAtBG1EDYNXr695c33L7V1hnluFJMIQAmkcGYaBmCJ3hyM3Vwu3dxN3+xuKTQybyMXFOdvtQEojMWzIS2R/nMlZOe4PXF0dWMpMKYHDsVJLplTFilLmmRgiirAsBQtghyMaDVS5O8wkcXZ2DBDTiAgMm4EYAzGeUZYjxzlTcyEvlVw8UTQqtS7kXMk5EidBk5EkEJOwUAnF6XBXV7ccjxPH6cD2LJILSG4zH7jr90RRPDG17hW8dF/b3vdh7BXitkYMmpDp7qcPt7d/Lm4/+3th8xNf/JOMwV68+sEHanwQVSRGJa0Fr5zcvQQ6kcsfcZsZaIbRutIEfDhFGuSr4m6uFDcCVSXGyN3tntevrzgejMXDIrvzHdvNjiKVu7uZ/f7KT0RNlFIZdsrTh884v9iQUiQOyjwZh0PmsM9cXU/c3U7c3h643c9eUraBKB+8rsyL44tLXtrNVJbFECplAQ11TSxju0l63BOGiKox2IgEJQwDYwxIcR7GcZqYj5m8eH5Ra3ZAbAnEHKjBKBVqcWb0biNcvbljmuYWArztfthPpCE1j9CnyzwXWx/yvc7n2sdYP/bsbVkyOWdyKUQdNvvj7V+Mh8/+7+ebn3jBP6JnETd3CUDm4/KB1flJVGE7RrT1HmIIPpRSnNaGOaPZmX2nXKJj6r3SjNrnBNocs1WsFAIwDpElGyUXjseZkiGosj3bkcYdx7lwc3vNcfJycYyRy4sNDx5ccnaxYdiMGMZ+f+DFq1sOdweu30xMs3A4LNzcZnKBXN0fikKUzqn0hFLwkqyaG+9ms2GaD6D+YJdSGWKi1MKSnZIXzaegDocDh8PMMHi7O6XAZohcjDumYaYuyjTNTMfcRia8miGb0+BGQwzyThiS/47QpsGgYSXqOUEppelFnFrd1lli7cD1l+M5zRg8f2+IrwELKvVnDofyc7sHh3+genH7Y8aQ0gOAIdfvfVDr/DiGhAbFNLeeg2fVqq1cNM++W13h3kEcJqlrHlG9zm4NoVpKo8UZRKEsmVoLISoxRYYRllkoVciHwt3+wP64MAyBi4uBR5dPePToMarKUjM3NxMvXrzizZs7rm8nbwgdakM6aTxJd6ebqJhWogoPLs/RFLm5vqZWyCVRFkXDwHFZiGmH2YH9PPPwfMvN7YHYhnHExMtkPHbPh0ycHPsIcSaXxGYcScMOEsTNiMa95ynFWLJD4mQoAUqbFx3GLdvtlhSFkmc0CsOQQFgrBDNvB/T50+60f9QQutdQpYWV5qrb1FkMtpuXq1/eH6b/9/nZxR0/AlHHeXoOMOZyfCeFcqZtlNxsBZTdGhFqoTF+bbVOpWE0a/zyeUTPYxwr7fOP1Qp5nplzATF2u5Gz3Q7VW45zIR+PlDKRxpHLhxc8fLDh/HxHlJFSKm/e3PH5F6+4vrnl6mqhNQ85LBDFK5qKMkRnX0sUttsEWnn27B0++OB9JMDzl6+4enOglEgpiQcPnyBBuX7zmnfffURKcH1zy/luw4cf/pAoQs4LdzfXBBWOZCw7ObfMRgTy7cKSlTGpD+aIsDvfUfNCngthhumYvfdRoRSIwTg/P+d8d0ZKiaiQYmhwuK79HjcIa1XGyRBOxnAqN+leuLaSRQzn+AVymaLV6z9RDh9+hbNHH/+YMTz7mgKk579SL8ZRkpApxYgWqODj5aJODTMDKT6carb20RxncBzfE1onuqy/qyU+hqERNijzsjBuI+M4kjPc3gGS2e52nJ2f8fDZjiF5KHrx6trbwK+OvHgxIcFv5j5DREnqWH0usNkkhuDZ+3YXMFl48PARX/ry+3zwpfeptfD42TOWkjjczPzkT/0sT568w/nlOdtN4tGjCx5cbrg43/H65UtePP+c3/7Nb/MPvvUPePn8BZ999imahMPdQs6OP7CApMThYJSyUEpFgpeaMUSGnbe3VY+UeaFU0AoxJR4/ecjFxSWbzY5x68mntS7q2w+ctwzCQ8bbrW733u4hqnmJrBIwCT5WYECeP8iHl1+Dz/4uP5I3xLh/CrBRxpTSImYLpVjr43uiJxp8Atka+aLHrFop0iBpLyWah2D9Y32MzvwNakwcj3dgTu6IjUg7Jrh4cM755VPCJlLKwsvbA7dv9rx8tWc6FMoCcyNZFYEkPtauQUArgcrFeSTnhcsHl5yfb0EyT5485fLhBdvthtu7Pe+99z5nF4/Z7h7z9Z/6Q/zsN7/JOAw8eLBlt0nszs+wessXn3zK+dmWX/3VX+fpswt+/Te+xaOnO373u7/rXdTZyFOlmKI5tiQyk8uykn9inNlud8QYkM2Axer8jAS785GHDy+4uLxAY0IViuVWven6rO4bRX/wIYSTkXRP3ZJ9h64rRqHUhWqVVAtWKlbKNuf6JW7mH2uJxcPro4cJSqokMTKoUKqXSqmcLqbrpUCnnbep53LqtnWWk1uuUUrDGqxbtiIhoWFhHEceP37Ikyefk2Jhe/6AtNny5u6WF69ec3114HCXKdkRu5KhGCR12HdI6mXeMGC2MJdMlYmzy5GvfePLjEkJcWC72fHg0UNCSDx9551G1BWm+cDV9Us++eRDHj96yPXVwjjANN1xdfUFH37v+3zx/Avef+8Dvv+D7zCOMCRh3CZCFELrvi4VlupzYhTHNUKEucI4gNmBMQ4kFeLgnd/znfDuew948uwBu7MNGtUxBGt0+dYw6wfqrYdvb4eFzo6iHcQenn3uZEbCBkpGo1E0xio8QebIj9Dq494+BQi15s0855p2wU0LLwVzLUhtY+MiWKODCS57U0ol5xkNCtWVU1xzwN2YakfVaB02Yxi2CAOXF/CVr3yJ16+PfP/DF1zdHvj0xTVX1xNX1xOlKDUrS6nk6jyKMQgxmVPOIogUNC4seeL8bMPjZ4948vQxX/rS+9S6kOKWy/NHnD+45O5w2wgxM68++Yic4eOPPuRv/+2/xQcfvMPN1SsePBhRzVy9fsGnn37KMmeeP39OSiO5ZN68uuJwN5MbpB6jVwrFcguVPkRalqYqZEA1MhNDFDZD5mwHP/GVC77+9Q9474PHXFzuSIPHDq1OfK01ryW953F1TeLfMobWIJb1oLZwjTOgYow+1JMiQQU0akxh5HwZ+JHGVSzVyZ21lKGUxRSnlXWhrJznlsEmuoqJNVZTBzWQzm72kTe3TCfCiIQVvFrrZPOS6vxM+eCD93n+fM8PfviSz794wcvXMB+k4Q7eMi7mTKNhUxmiAzghmPdMSuXheeTx7hEXDx7y8OEjzs7PCaJsdheksOHy8gHXN9e8uX3D7c01RZXbmz1mgoqHle9+59fYnY1OpWdhyQvjMHB7c8e4GZmnmSUXSq2UpbDdJaZ5IQ2GHWHJmdIyeCsnhLAU72gGM6oUosL5WeBrX3+Hn/nZr/LOO49Ig4N8so5W0ZJHaVyK0IjCrEZw/8+JLuclq5mhhk9jEZAQPExFqKWoLPkM4n1uvhsDugVYKjVKj+vi7k5VPGzVxksIvXRsMakNmJ6mfaq3X1fLlWYIDmmbeZ0PSqWSknB5ueXRkwdsz3aUBZaDE0aARu0qxBDYbBJxyISU8dEBY7MJXJ6f8fTRY4a0JcYtURObYet9h2y8uXnDixfPubq5Zi4T0zKx5MIwbLDs859WK2YLx7uZWQopBZDK3bxnu9sxzz6uf3t7ZD4a8eG4QvHTcsfFYrx6dWAxY5nxzubilVYktOTZsYoQ4PGzLV/92gd8+avvsTsbQAohihN6a0Wj9xi8kXbq8wANheyaFC3/q6eOMRhWShM3DZRqVFvcmEphyZMK05nVsP0xY1B7h5I/RWoKZlVyrixzRnVxhE8j1MUbU9XnIXo/wgEcacmOtJNQ1v96T+I0D9B78h2kEjWGIfHOOw/5ya9+iQ8/fMnh9o7Xi3fmVQqjKpvNwLAJZFsIwdjsIucXG87OR862Z2yHM6e6kYghMk0z8zJxc3vLm+tr5mVmmuemHEsjs1gj1wiDRhfuqt5TmefCZmxdxxrag4gIkfOzC5ZlIoZASpFheMbd4YYHD498/vlzpjmwHAtWQFsPR/FkMiV48iTw9W+8z5e/8m6b7m7U+RadRYSYIhgE0VXjsmtTWssPVkOgH07WTmttc5q5PQtaaSx1BgtarMSSGX/cM4As8xKsYEs2zbmi4sMxPpncoM+SMXPpmh6c7jN6g7j8TA8T3Z3VBkm6F2vqLC0niSGRY+Hxkwd88+d+kv3tgenw28z5wN3BONtBDArRGUObIAybkYePznn69BJRJVjLSaqxzBPVZor5xNLN7TW3d3et3Q5pGDBcO/ru9o4yu4fQCNYYSiG6Yd/OM9vdznmHZsyLa0PFlJz4WitDcqT24uKCzgh7/eoN+7vMzVWhHISlZoTK2Q4eP4l84xtP+eY3f5r3P3hKitKQ3rB6W2hTac0Jnyr0VryvZfuPlJxuId0qqKsomY/315JRMiJVNFKt1B+vJgCbwqjFKKHgfASNiLgAV8mVFBzb7PGolzk+KNPipPT4cSp1vH3dPtnKHiirFZs6AnlxHvjS+0+Iv/RzRA381//Nb/HZZ3ccZ+P8Eg7Twrgd2O12DNsNF2c7duM5uVQO+yMlT1Art4eZWhWJyvF45HjcE4Ky1ErOyyrGNU3Ok7BcqEWx1DUS6ioqFkJgv1+IY+NFzDMqrtiySYlhUOo0U82Yl5lSFmJQHj4442KbuRgzV68n7m4qKcA77438wi98iW/+/Nf46W98hXeePWAYOi7QqYFv4worvHwfTLJTme5f2uc3qzN2rLYScnEZIA2EFKgm5EZI8ladLmH7ztvGcFdfEFPQqjJDAImE4B2yJWfkmNExEYZWWraLZzWI0xRQb3O7pfZ2Fvf+ndZz95YyYp7lBnj27AG73YZxCGgwvvUbv8PHn9w09jFsN8KTx5eEOCIIdzeLT2jnwjIX9ncH0MScnaG8lMaxbKKdtUItrbNYXQoghUievX/QB35CKA7qBAgpkKcZKUpdCpvRZ0hLMcYhoglHTEMgH/dMR6fPx0EYHxhjEo5ngXeeXvCNP/SIX/rln+XrP/UBj5+ec3E2ejnZTnYHkU4o4gkcNFnTgXseok9gtVMvrnuVa6aW7NhCCKSohBioKLUoc661lpLNxoUe77sxaMgAhWpHYqilVq1F0JZsztPkaKMoEkNTX/U2r2hcPUPvRIpISySzk066LF/jT4agTavJ9ZbNikv4pNAmkh/zp37x65ydKd/57g/4+KNX7A9OAa/zRNJErXC4m9nv9xTz7tzt3cx2e8lhngiNmFrKTMGcUr7qNAZiClBdLUZqm1Vs5W8pBtnLaanOe1TzYZ2S3YA1GHnOpOgdyCEqst0wTQslH1nyzHYTeO/dgUcPP+AbX/+Ar3/jHb785Xf54P1HxBQJbeilmksX9gSxv+57iG4CvfnUSa9mEHCOg2Bk82tHMiEIKSoxOr3AqxSDSq1Vssa7CR68DUeL8/NnCfFokosJ6ifb28+1wDTPrse0UU8yRCBnZHScocv1eWgIa5njol7WKODOnzQ6Ha3emzCeiMF5AtvdyJe+9JQQ4MGjHU8ff8zvfv8L5oMrs1wfjpxtLyhTZp5m5tnZyXmuzDJTSyaXNkInNDW3iuC6jz5tLYQYGIeRpF491ZqZZ5rA2EAueSWuSHFv4EIaHs+ncoQqqBQf9YsQSJQwUZOw2wg/9bV3+MpXv8zP/MzX+MpXHju5eOj6VQLVWkfXoJbOalzDRa8amqtYvURvd6tU183E0UYR77jGKA7KRb/WaoVaatN6kBrCUJScmX/wdpgIZQswI9RiRTRuXTOpLgRtzGGMecmE4IM5nV5VS4GmttYri54ErdZdXR7XtMnV4AOs3k5uYl0BSp0JITGOkVJ2fO1rP8GjRw945+kjnj77lI8+fM0Xn7/h5as7lvnW0e86+zBq9ra41YUgfmNJsoJeIsIQR2dfaUBFGGJyNnJSogQqTv6NKTkhNWeO0+zrC0p2z5IiYk6HC5KZp4XNqKi45tKQYDM84NGjDY8fnfO1r/0EX/vaT/Dee884v0jO5WzjgNU6fE9Tr7P1EN2/f/dp8j3x9oUp5tqXVjCrZEobXCpt0Mmn3opVSjGmnDEiqikT0i3zxY8nkEu6A8hlWbRobrRrh5dFnchq1a86l0JQP/kSXOJOkTYNdCJi1FrvtVS9h0FtA7Hi5Y+PpreIE4WAYrWgQdjuEkPacHa242w38s6zp/zwnRf8znc/4YsvXvPyxRWv39wQZGZaYDvumLLTnasYSRSN0a83RTaqBI3uRs18VC/Kqv4uyck547hhHNxzZDFUBnIxSl6wWql58iaTmA8fSyHFgRTgwYMNjx8+4uJ85Ke+9gHvvvOYJ08f8s6zR6QxYLjr1qZNSVdy6VyFxiWt5pPt3SHcRx1XI1GBOYNlcs0UKyzVp8tDcAGQ0FRwqkG1pphTjLAJJaY41832x43hmF8B5HkqYiHL/jixHRYnd1YjxgGNpUn849J7XnCtD99Pn+s+W1NnuW/NTtJwFRLWCsQnnrzydIl/iy5utRkT8+Ij9U8eP+TifObBxTmPHl/y/MVrPvv4Bb/z3Y/54sUdN7cLuUCqwjRnNAUvIUWZ57omkiGNBIMQEilUVJSSs1cZWYlDYEgDA54oj8NATcKcZ6bjwjItFMtYLsQxstn4hNejh1uePb3k8vKMb3ztPR4/PufJ43OePX1ADMq4izj3z3OT2sbv/X8g1Rp1ECiNVCytQ9x5ZCIrr0SsQDZqzgiFXDNLXTCc0KsxEAZXoZkOx1X7KljESCAWVWVAdj82QBUfPvwAwD4aPqvT4SDzsrAbPI7Vpl4axUOF4ECGqFtxl67rSaMbwsmCvS9hLaa5XlLnSWI+k1CLn5haKlggheiLPKJSc2YYEimdMQyJzXbg2TsXfOm9pzx58owXr2ZevXrN7eHAqzdv2B8mllJIwwiq7A+Bm6tr5qWQl8wmRsqyMNWJMY1Y6fOggW1IJMloNmIMbM62HA4zMQlnw5b9wUvi3XbDZjtyebnl8mLHwwdnfPWr7/Lk8UPeeer4xxA8yRTwwRuDzmfselamtpIFVwhZO3lQ11Ldvwef5agVq5VQfLdWafOWiCvfpkGJaSCmVumlgNSIEYhppOgAaMqZy1qOQxx2bxvDkyc/B6C5/ndTFatWTXN1VwvqkHBt+Je5oolZgzyTq5k48HSieYvIikGoKtYNqvokVlDP5nNpUj1ZXKugOkOqYgRRwhAQqcQQEXFtqDScc3a25eLyIS/fLCxT5ebuhs9fvuD6+jX7w5G7oyvT3+0z1xfC/ubI9c2es21kXpx+N6SMDj40vNkltoM0irsQh8iwUbajT4g/enRJCJUlH3n06Izzsy278w3vvfeY7Wbk6ZNLnj17SAxGisV1K0J7gK0osPbAV9ESAVNrTT83CMxDQGtPeF7R+AlWK1JLqxYcVygUCMowJGJUQnSQTlrVoSFiEhHroT5QJQar9bLUqxjZvV1a/vDTTwDCNM8z4g9/zsKwQI2CqcvxNR1bl+Irhdo8QwgBQrzXq+jhgeZBXDfaeXjepu0exDe6tDyjdGHNujZpnFoeAM8lpEBK7kUePo6cXWw5TgAP+eDuktdvXjPNE6/e3LG/2xN05OWrN9zdHbm9vgNTL18zxDTgi0yMNBbOdyNDdHnC7dluvbmbccP52SWPHp6Ry8QwKo8enjNsXAMyDZGU1IdozMOOCEQd1vxoLeedNkbng1Wr99BGaZt0WvhoH9dmCNTsy1iaCn6umSoQh4G08SUorvICdEBKfGpbNWFZXKkmKpo0CEl+dFI/LvkOIJiVKkgptUYssSyVORRCG58vpTR2sWDVp6BLCU4/zy6y0dHJ/kAdr9CVjxhiaCxp13eyFmLcqxi1LoBzFEJbPlaagEFveiFGGgKhGsNQGTeBAuwuzjk7V5Y88+67D8kLiEaur27Y3x2Zp4VpbgO8peMNWxcoGzJDimw3O5ZZ2+zjQLWJB5dbNuMZIUTOdollPjpDa9NENqI/hGqzX786vOzl+b3Erz2cILLKGzfZDcdbeiAu7llr+143hALFJf+qVEcSQxucGYO3DMR8Att6vuE4kJHIS+OD1EIaqBqkRFJXLzsZw6bttdiMsUzToVZLWHP5y1IYosdv12pqfHZ1RddaK/M0U5YM6slLSmlNHL23L3S9Q2mjYV3DoXsRZ+c4OmhNg6E//J589nkAVSWm1ICtQpDsPIoAFxeJXAzVLSKJnI1nT3YcDjO1NG9UDGnipCFGNrsIUlzJfhixEhjGge1uZFkOBM3szjZYFc62G2qJ1JrR2AZzcpcpAqiEe4wkuw/waWjK+gYFqvSD0Hgi0NTwXLep8cMQKrXMYJliHj4sOE4iUZDYPIz5VxfwRWoEIFKrMi+V6VgwzVg2q1lUJSjT2xpgUd21lzgMNk9oG/5HQvC4VCpBDBdL7+mNNjfu6N+hcRl2u22TA27NKRXH+9uuBVeBs5NRiDS9JR9bExNCCgRtmoyN0NHh136T+8tRuLwmpjE1T1QLIfnASslCSolaqkvnGN6SF2c7VSqbzZZaneZ/vhs91pIZBm9lGwfSGCl5IQ2OQThMYIh6u99wYo+sHMTQDoA6XX9tQft7Sqp04nBvLjmGAHWdUTWMjJH99KOgEMeBNHqV4gLrTV6xqfBDW+iW4bCfubvJTEt01rUFKXPcVMqPt7Cva+M4SFRRFSe6OtLVpfscpi1rq1UN+n6mUuqKKyxzZNwULPgoXbVMaGS5Dj3T+vuqUEVRCtboXSEmr5E1NGSO1Su8hdWbrVLCvXpxbL4lT9r2R7RRdREn4gozwzCQNDI3AZEUwora+fT1gkglzxNEiKnNjdnUhoKzi5mJK9x5VdRXJTY5QVMHhdQfvNJyoS4P3Cr8Hir9Z51gewleSVktVGY0goaEBRfcjJtIHKI//AXAJZWtNJERc4X627s9b65m9rcFTWeEdEElSdUUjmX68dLyeH0AyFYkCFF8/4JhObcSQsjFl2sIDppoVFJH87SQs1PA5mVhf9yz1Q2EU2mp6jqLVgtVHMzSNsxi4vJ9JxjW1dKWRq5x/kHPG07ewXoyaz30OA2vy/PXUijWEqro3xP8HyBAQKnqcnpBIyG5OKnLBxSsjyMaPljT5jFpD89wr+kkFF0NoQNp3h1smtj3mlC95XC/++sHsP38RjiuFMx8IYqmSEgJTYmaWi/F8Wiw4FC2w7y4gqxwOBx5+eqON68O5BLYnI1szhLFH8wUl7fLSoD4E1/+MoC9evE91FxwqsaKLAuZSg7q6wQrbRtMM4LoVk7r8dfqyiyHg4eEcRxbK7iri7TEqBRPJIWVBSyS6KROa9qMVltcradE7MSROHEiVsqX9slPac0cWUW5RJSohu99CF2UFSX6PktpI28CpSyo+nCwhvbzcU/XSQa1PTxFPZzW7tY7ptDwAauoue87ERMa98DutazXKsL1p6xmKhlTX1tEDOgY0RixUL08tQZUadexdH1pq3A8TFxfH7i5vuX29ki1AR2ym7doFWxPJA/j2/yW+N4HjwD0W79WiwiUNoRam4ZzrUZsHqJWp9CHCtUaycW8w6k5+6nKhePedZ83mw3jOAC2Vhin2Kk+YZwSYqGFA23dxbbtxQqebd/v+5e3PEL3CirO6HaOZhtK9V/kHcKgTQnF1xNZM6SVlGPemgtNsjCsYcDuGUKbNDf/WKBldOYJTL2fMLpxNyR/nTfNuazVg99VxyO6Uq3DeNn1tVP0amVIyBD8mQBFahuuadwFhCAJFeF4nLm6vmW/n1nmpf1Mo0jF1Ev8EMg15BnGt3GGq6tP3V7EcrWcxUi1igtOaHZAhFOtnIuh2eNwCLK+pZCiq6OV7FXGcV5ziZQ8GUxpICXXTQxNHV7pJ7WhZipAwKS2kX7Wh95L0h6W7jei/E1XfBqM5o79SWg72YpC6HoorSpq4a82AwghrJoM7g5bWKrNv7cUen21KXOv65tX4HTN/TNeXTRiai3k1puwhkjWjiYqWHBiUEgBGRRJgdK0H7rmtKqQ5+p70swNd54qN9d7DoeJZcmtENDGWFdiUgYXaRucnTu87Rlu7ypAcMMpPiBpoYFLTmDtVUA3oWq4JaOIOqwcY8RCoNZAWRZKKZS5sC97YoqtkRVanqFNUcVleRy378MfXqqtJ6fH1XslqBmNiBLeejMBxfSkg+TG1cJZg4Oldv1lB9HaRtQ2Lda5Fk1Qo0+CtVDlPYbQDK03k5wOtz72boTduBHvgVgh1OCjf+K/Oy8+yFtrpdTqfJGkECOa/D7Z4LzMwskGRcR3cfUuUc4cp8Ld1ZE3r2+Yj8XDfcW9npdQBBxqx0pIMZ/0irsx1MPBP8qOfXt51Fyt0n6oIMGTpq6G5rmSl1X9sLjFtnmJnKml+Fh4KVg9Mo4OP4/Dpp0Kh6ar9bZ4u7q2Ce70UPtwyOnC75NBTpSx0MpVF7ryPQ2pKc55HS80vKEleyrqq5aDQ+QKviinPUhrIa6au2YRULzkdKCtDxa6JZwOzT28oRbyslB1Qmz0kFayq8xo8EZVUtIuuTKOKha1lbWtwYciVkkaofYKJpDLwnzIXL264fbqjsPtBNVzo6lxMkzMsYucWeYZlV0ts1Dml28dpmj5CFByXUKpFZVEiDTShLvbnLsiq6z1uPa2amPweqLtiiQhpFZ5BMyUUjLH6UgplWXJjOPCMAynJaYibe7CKxUXJa9vGYPHbHMxLtUWKhyg6SQZpMXH4kM2QSOC762e84KRnTaevZNpuOR/SoEQnVmtKUIbZEnRDXTOi/MmWjKK+sNYw0Dnf0ontIaGFXi1gthqhMsyo+KVC+KAWkiJtBubBnMzhjaoXHDP5BWZewJta51zLuxvjty8vuHN82uOdwfXvNLQfKv3PoIoYsoye+u8mhTx/sDbxrCUDFBFTGupwWqnwBtiSld0LWbOpcvFG0xmDKbEFJAQV4jaTNuo/UjOhc02MR33pJxYcuaQDxwORxffHnyJ6bgZUInecTNDQmv31lOLnIZ/qCqD6OpFfDGHl3I55+ZZBCE1Akl1N10yZgtzdgKttbHBGhKlKrEs2DB6DlF7o614K3w5OlAUR1xUS5uXuL947O3pdGh7MJvIhucm7kNqkzxWVUdttwNhM7haWxsituYPVmUc82HoQSNWCsfbA4f9ketX17x5c8Ph5uDk5SigJ7GUGBJRB4a0cb5sriamU9gIP/qK+XparVmC6rJkhobkOVLIWs5FcTZQrc78ySaEBkBJcISu1ooWBZWWOBoSIqKZYJGaF47zxM3NrT9OU8Zx5Ozskt3ujGFw5DCm5NPWtVJL8c5lGzIZujcpBY3CPM/k4g8cM+KQqATfKGs++gbmJVtZ2mCshxXRTnlrC8MEL4NVCYuf+loLS/bycxy393IF6MOx7skcDyllaWBY26fZ7l9oRm7mm2lEA8Nugw6RUh1PqFIdY6CxwBBCW1oWslCWhePNnjdfvOHm5o7b6z3TVCiLEXRkFUrHQ6Sr5Q2+siENbdeHUus/wjPo+RN3dM8/JIZgJotT5bVlotoy8940aa5b8ZNVzLNZxRMxxxsyiGMM/nHwGtkcvZNqHA4Hbm9vmY4zZpGzs3PXKjjfcXa2ZbMZGbdtv1N2wa2UBt/IsgqH2NqjmI4T8zyz2Y5g3h5nZT23nor4shAjUmxpQmIt0y8uGG44tuFuyBMvDUrQgSVnttvTMGwpnltJQxWtlTGlOC9RRClLdQ5iLajENmDbEloVdIjrrEkuGYldRc/ZX4pT7aQ4oeX2zS03r6948+KK434izxWTQJCIhPYMmtdU8a01KhHFPVscRgHRfPxHeAZ1wouqykyp1dSw4oSKJReISgwe22LvXKq0dcWGRF2rC6zrMIBWp5wjvWMZ/ebRBmuKcNxPvHlzy5Irz5+/JMXI7mzL5eUFjx49ZLMZSClxcbljfzhwfn5GCMrdXWUcB3JeWJaFaXJDEGBZssf9jvzhyalPiqvrM7a1Ps7w8/1PtXdIzd1y3w1SzBhUEQJm7oXcGE9wuGAMafCQQcPagVxzW1WwrAaEtLCnShFjKZmoLnsQorqAeSe91NqWuVb2V7cc93tuXl5xe7OnLIXSVjvH2ITTg6OwCPRw31W3EFAN65hFWAdd7htDvQPQvBSbl1ydUCut5DMIPQ4abRCbvlBLqp8oN4jaINHSMmj3HDHqWgKG6BeMNPSiBpbFOBwmcl4oJRPfBL74IvHg8pLd2Y4QlAcPz7m8POfq6g27zZY0bAgxMMTIcT6uQ78xRSqVPM+gjsh1wMi1pxSpXg7HsvGaHqNm85snrXprxF6VQJQ2b1AKVoVpuqId3PVPEKHmggZv0WsM6+Y5q34AVka0tPJT2wL3Upx1nTzxCzFRj0eW2WUND/sj0/HIqy+ec7i5Y5mWdr3OSS0mRLTtBnWi8qqj0ZJIGunIKNRaLVm1GPqOo3vGMC4RQHIpRUUzbRo4RmcZuQ6hE0BNT/Iy0BO7CtU/t9RCzUtzndVrWokMOrS2tDV61kAuN+yPx/b5zpsUjoeJeZo5Ho5sNhs0CC9fJi4vz9juNpxtt4zjxhPQmAjRAapxs6GzNJelAYJtmjng7WrRJhuQPJXLS0EU5sWL8qiRIkbAT33QQF/MuCyzf0+ZKWVmHEdiVN/bHbQBacFH4IufRm/Je/koKa5wtbU8TF3oCsS5n9lc8uf2+prbN7dgxuH6mmmeuX5zxbKf0OAhYSmuhx1SIsSK1uLGELzS0EZc9nFL73WUMrvWlkLJS/0xYwgPfYhGYpg1pZJSRxu9J9F3LoRmZSa9kU07IQJtKMZKZs5Ly/xbaapCCIUYlJQi2+0GMxi3I48ePeLN69ecnW24u2vhw1xvOcbIPM9eMVRPABEjTzO77dLqfs/mU/REbNgkxnH0RFG8KuixWswz6yqe1IXkUkLSyi8nh4S2csC9i++GcvaXtb0TpTpn8+zMCTCl6f+ulHZOIqg0BFZaV9IrktjyZm2tciFnAykcbvYc9kf2dwfePH/p2ETOzIfjioI6TJ+ZloWKERHmspAkEKxCMURTm2xzRLi3A0wqEkysLqHw5scHbyd8jUkKQy0iYgbFmoYTjoxpYxODs3RNTmpvvbtnXbmqawlF38nghKXayB3qieG4YRy2XF7e8PJ8x+s3VxwPR+7uDhyPBw6HAxiMm5FScmt6uQfZXVySQmJIkcPhyO2tC3CE/S2XDy78oTXDwYRlXljmimVDNTLnzHHyOcRcKtXyullPo5eLlkvDNNoqQVzpNQR1/cbdhs1mdCliYNNWC4UGE8u9GBK0l5wuLeAG7OHkOOe2PWcmL4X9/sib56+Zp4XD3S1ldh1pNd+q13d7FKtojI2FFujqvFaz/z24zvfSejgNcesHqtS6SBhy+DFjuLsWgGKlhLIssYRIl511a5I1RyjV2tpCaQ2YXl1oc3tCCu5DQooMKToU3UbvVAQpvgp5SAPjxjfNXlxeUErh+vqGu7sDV1e+vthLMa/9x3Fgux3Z7Tacn583aX/lOE0cjzPS3nCKThCttTQxj0LGGd2H49H3UhwmDseDDxaXzM3hlnmZCSEwDM6FVBQKhMEJNxq2pLTx95g8se0YSGh8M1HWcNg9gjWgrOTKvOSGfTiCe3Nzy83dnlwry2HieJi5ubpxsQ4TpLaR/Bia92oVSwio9VWH3nvAHOehHUD9EcjWDd3zCIkxaxx+PIGUyeHoZZnOlyWn7cbLkEImtN68aGyhrc89NHdIV5Jv6FjUpv4uxKTEMbnmkjYrFhoHckGj4wuXD2C7GQDl6bPHXL254u7uATe3N+Q8kRfXkBxHN4THjx9zfnHmopvzRBwSoanQpyExDAPjJiEKx/2EWSVIYJkKpanMphRYlsgxHzkeDky3B/bzgXG7pamEEsRvXhzS2nQSETYb32KTS3ZyT61MS17H9I2uTeFhsrbfn3Pl7naPhsA8e050e3PL7e2eEBO5FPIhUxb3IAFx8k8IjVjblPv1lIB7UuzNrpwbGNZWKVtTnA/t61UFiQGjhqWaLPnHhFuIX3HllvBdK2fViQeOXplhof0yM6Q9UA12j8VbnS+Ju2ZHDsPaJetiX57UtEGZ1tr1cksYx8Q4+Na3EM/YbhPHw0SujynZR+ldByphVC4vLtlsR6bpwHzcs7tznt+QPPwMQ2p9DiONPpUdxFWOQvUWmCYlDYFqgcPBsb4UAgFjTC74XUpe9RxyrpglpnliGBNqviFvSJFYHW63MVFq5Xg4em5Vu4KNl4tY4XCYKFY5HCburm+YZ1fH1dD2gBcjaXRDaHTAvi6pUEHbFqDWS8aEUr236POs0pRlHbhC2jhj9M7zkmeyVQ1qlit2tnv8tjHc+CDFEEOoqloBR+gCDlaotOSwIiH4JFXTIpTgvf8+H6Ro4yA2g6qN5lb9eztgBK3zRl3jaH9jZ+cbNht3i9vNGaXOYK6sfjjuUQ1cXl4wHSOUGaGwO26IceDi/Jyz843PYARhmmZSSj6gO1bikDjsJyRIkxwsDMNDUlL2+z2XD85Y5oVx4zuullLYnW2Jg48ObrcbNEU2m5EQlTQmF/NMkTSkxk3whpZrP1WnzYmQi3E8zhwOB/KSyXOl5FbGtwGZWn0OtSy+k9NEkNBG5Hou4ue/tWo6HO6rHtcNw7jcu8kJGs+lOHcz1xrOtMDYUKBT5zK+8XJznOa5BJHa2gAt3PT9BU4akdZM6uBKay7TIVmRtmTMHBrO5hY/poQkbR6hcGJIayNbtO121cfzQhI2aeBsNwAD4HqP250nkjEoQ/CBkWG7YX/YE+PAOIycXWwZxwQqLKWwzAvHw8RxXrBszMvCdJjIsy9Rt1KY5ol5PpJGdT0pDYybMwRhGAc22w0qXm4vtTKmQBh8jRAGQ0oMY1xTailGVkUs0/dNOiZjLFPTW4oRs9DUZhqqq+o9FJpX0EgVP26IJ+C+AKY/AzcmUc9r/Gc0SJ26ciyWWtHW2NPmvZOa3TcEgBjmA4CYxhCCWsfnfZbBl25ItXvC1l6WafDhlu4KtSVPquoJUy3UbEQJpDakG5p38DLNdzt1z1ItYw2Td7JIxVfzhRZy6vp7Sj4SorI72xE3A2fTDsO9x2Y7shkHx/lxYCcvxYVOs08qlzk7Q8gESiYMyjQdfGQ/bMhLYbu7oC9sPb84p5TC8XigWGmtZzcOMGp2gS4nvhbmvSeq222i5BMyC86SKq3Ct+p0+5Uy159Ka1ahvt6tio+8BBpC3rqXq7q/eldSY99WU51WXxsFQcrKIwFEl+O5coj5eHg7TOzFS8th2IX94U7HKiS6d6jkapArwyBoiGjLKs3nyJvh+IOIMdK7+VY7f6T3D+pK5KBbLaG1nztVzZrHcDJoqS7qCYbGxLQ/+IbbWp1hhmsrbHc771MEz1skKSaVEBNSPTyIBkrOfhY6Zg4oTqsvxZeQpM2Zb5wx9aYULuSxSQPjsuU47T03wpFHzPdYBHFFmvk4sRwmb5C1jq8Z5HkhZycPlwawVaur+i7m3EqlVQ3q7r43nXzjWfAEPmi7dmeFiVQfS2geo7RZzOoRHQl9jlOppep0nM/vpuOPU+XjXABmtUA2DcdjcSUSqaTBh2C7optbVqHL+nXaWUrOCXBQpi0VK6wsEWsJjlk5NXfEyNlI4vHYQ4wnQLRRsVIXahXfGUVxScK2oa2s7e1A0LajKTYSbENRi3lJWcy8Eho82QviULULNrrhaGNiFSmUNs11yAsaE0EDd/NEFCWMG4otVPGTnevC2OK1NS+g5hXW/RUAJsayNA2F9hL1GdTMPdr8qnbj9iqtXS9mjVTz9gN0/cjQZl47oYa2bNW9RFd/c/wFyaZDyfbjVPk/cfkuv7r/DLN8EVPUmHzegdZCHUJEQ9MMWqm/HXvodbZT3UtZmOel4ed13Q3tI3f32UudLdW5gb3T77VziF4NeLO0sX1Kbahmm9yqvvS872bq1HzfHt9R0tpirvh7ktZ8EKeCibnEj9SCqSuomgk6JG9pqzDEyJw93NTmBWuBoo2sG4TZCmLGfDxiixNhQoxUO6098CXqkSkElrwQ1DcGWy0nT2Ce/ZdcHC00D8cxnPos2vI13/PjiWQnfRXz9YloopS2waZVNrWW3lCTKokhDZLGt3GnCEgcNKmiQ4yy2SSSBlIyYmD1BN4Kpg3O2nqaoY/jKzkXlilT84kiBuJk0k4l0+RuTfzm1Hv6RIa7tSDaLN35hbXFemcxwxg2WHD1EhPQlrF7ouXX518v1JwpAjW01jCV0IZgehlNNcxnmr1/UXzDXSWQ23yFheSt4bo05rP4KiO8jX+cJrQtGBf1UfxKxJbS5AbwjmVw4E3Eq7bii7jd8IWmw1DIZSHIsOIKSHDSi5csbvDOI3CjR9r/dwa3s7ykHUZpB7mWisTatuPdp3M36b+HE0GCLhWzWpY17keN5OXogpXN//Rhko69O6vohFj6RJAQQxfTpHkA5xuadkNq+g7G+vPFwglUUfcOVr0VLNCUZE5czFJKS2RtBWLAKLX//M46boWvxjYtqm09p7RavGXvxtqEqzi1PiOoRiS2vQbqXkVxcMoj18IyTaTFxbr6nEdnNBXzVnVu23V7Ir2UxRF8MzTGNf9CvHzUNp7XK8BiXZtTV8i9irfgVSJBfFotaCDGEVB225Hj0vM152KmASlmthvP3/YMv374uGevs+Vcp7qgoyu2T/NM0B5vOu7u5SAC1lep4ae4feidtSb01UfJesYMzrg2BTPPyD2+0bgP2rMn+kq0Xo5Gjagoy+JLPLIVlIoWEE1IT5q89FlNPrQwpdXl/mTV0quta+hGYKqgTkqlNi4i6p63IZArIRgDy85FPE5Y2yPhP6xVCqU4stg+7vlSKa5B7Umfa21Sy1oWqioxDA20a7rbJo2t3WZCVNu5bkdDe1LcE0nFYyek1j4fUmw0hDpYPgpcvG0MxVcZWhTdW1kKwVyu1s8EwzggUlC06UC3m2iNA9CyYrW+g1mRWr1ZEu5XF4VKX5ghDTHrPELPjPNSCYOTOSLiesq97dtO+bIYecmOJEavLOgC3CqInXQpPSy1zLsX3dbKNloHqKmtCtKMwdnPpo2JZE1k383S/9vve3Gh9brk1jTyoRZpFRP039krJa/z+x5rNV/oWqtXJE6HU1IcnIYop6Sw0qJTM6CVYdXZTeYeQghtir5ra7kH9J9V0aQmVgbJJf2YPkObuMuKTEVKVlGGmBBtY1zUpk4OYs4Mrr1msT4TeKoqSsmNdxeJMTQKmJ2AlJZAOgOoEUAs0Bv9dcmeUNFYO5ykA/vA7bzMoK60EtPQHRJ9Skoa/Ow24sfeWpXi0aGuBraWuaarnI7RmcgO8Ki0p68K2f2Va0eeMH8FHy5qm3yCuEhJVQ9PMVZidG5kbWLgoXjbfukP3XxwNobT7GnPz7rr7BUctKVwPawVELWmgdGS82qOcoaCKizLwliz4Rt0vWa/bwzjlQHM1ZgVbXoDhbrMXp6VQFSfnViKLzGjSuP7n2TvVeN6ESJCSKnlDZ51+0M//e7a1M5F1BNVaQSXps9QcmlQrX9/bErrpQ3BdGJniPcR0ZPIhWhvF7sCXEO8nXPcl3W0Z9yzKM+4nYgbJPi0V/MqHVyz1hPwHMZPpTSOgguVJSy7REConsTqxlHU2ifCrAuQFpTW6Q0+/JOSA3Q9HPRaUjvSGHq57u9zmTs7XEjDxrkbolRryrhWXOG2wco+v1HHqjXdvnnxtmcYHAvIZmRK1SItk1VXGemlX6mum5zE4UzDM2avp2Xt0vWtaRrCqtTSZyBcUOtEKXeGU/A5wJKZ58n1lKuTOkVc0GpIAzF6W1qayw4xNKVVb40XcJ2EngP0aqfnN21OsT95gxNVTFpijFcx2lJiaXqLWD+57qULRrbacI8WEKRNqAtYcKpfQLwy0YikRE6JtGSf23BNvnbCHSewlm/UXnK3FnkvmTuZp9P8aq1tdKEQWttd8KX11nCYUlpS25L4pRSJtYRlf7fhR17x9eRzEyEqKirD4NrMIq7boc3lSk9WxIdjMK+9VUAKZKrDoKVghPZgTq5OBJ8obhfal5H07Wzz4npIISTXMgw+b6DBm0AqPgNpOKwdUnLCh/ZpphZ+mofo12+9kdbxDGlDLdaJot14lCDBw0WvdWv3Im24vrls16Zu4FEbQQQjtZxKYySmQo7e1pZSiSIOJVuHkt3j0ZnYDahqYzj0XZb350mF06FzVd5+jf6cunqtewqouYXY4G7RZYKK1FrF4nBvYLQZw/jsPQCGmx8eh81oy7KnFN/sauaTzVp1ZUWDNHpYplZtGXy7ucVa8gc5uyvtcLM/g5ZOqrUpoVZ64pKCnvC0MNO6mb6QLIH6pBYNQAqt31Eo7eT6g/VZiHateprk9mLtdJL7y+ntwR+6eAJKFecDtBDYE1IRTyFdUcbf31K9Q9hFNlBBqyE5Q1TIjSRrQuyeolEE1jnSHtpEORUF8pYh9Oh+/3NODwhOpRdXwtH2Xkt1AM2s+Jac0sYAq1GqxBBj3OjbIGR898tfAtDvfefvjsVMpnlpD9lBo9rjPeK1emjchabRZF0Hgdp+IV5llEIWRRp/0cWue+LVh3Oc32hUxDxXcE2HuLrHGMOq5yBqzkFs5NaVdq/SdBYciNGgLTy05IuOEylQXYeiJ4V0ip8Pt4TmAaW5bM+JbH0Qnlu0Wl99I3AtcqK5mzijXKStDFbvkZgShpkUA0vbvOYjiLJiHP3lnJX78HIDQKx7IVbN7hB8k02MiRVpyRUhtAqqQd3tkMWYiHGIWrJDufeWpMePP/kWQJrmZacIlxcXqLrlO+fPBz9rNZSCZiMv85oHhOAM395Ns+KZuyFrTQ3mrKmgPhmFEkJlnhdEXPgqxeQcgTSsMCrQhnka0FRdvEKDtmTQGkTsCdRJLwoHh8wTOQ8ltc0Z0kAz/x0e7x1PoCWgge5lTiGoT4F7T6OjTf5AnI/YDKR471XabISp4xeqEUkuyhWKsjRmdlCvwFwIzVYso/++biWCNA/Meu8xdXp9cnKttJlKPyYuuVQCvm4SZ0zHMGKVVFVtTNt7RThEnWb/r6tlV89YI0jTQMDFLLQ1UvJcmKo55RplGJr7Dg59slYYztzpBl+yu93OlQxIZ4k7zU5xFpQIXess9DK9lXtoJYxtp5TfcqAJa1ptCRSArcieCEiFbLUJYngyFoKXyq0yWwm/HQehTVNb7TOezbOlhNS+uM0zdA1t+Fg6Olp8cBZvJVNy03N0Ye+5uJyRywf0e9zvlNyrIXjroz4V3r1FzoUhaeuYyr33AhoNZ0m5EKpIG/WrhlSSlDFy9vC+LRDVRgATjVat1iVngrjQt/cbqlPdRBx3D62RZe6GfQisJ4aNh9fm/dRok9htl3OVlc0j6sryfhodtqjmqxMxSCGuymfFlvagwGpu9+gUczvTCrpLb8ws/LSauTROaYmrEtb+haqXj+vAbANnsOLDVpKAgBWB6I2xBp+2+VN/Xn3MnlqYsy8AKdXI5sJbxWCpC0upbYmYekVh2lDN9mpIbd8YfMIaPK2xWu99YcFo86xWV82soAMxJECpITAvFaqr8tQFNsMgWhPcnb81OxGLD3Vm0RoBLUumaBu9r0ZMCmXBoq8fdPnf3B5Ou8jughs45HI5PryaYqCaL0IX8VgmBPosolPC/GHXXLHQYmnzGqVVJaqCtL6KaAOyxEvVtYLgBEyJmR9n81lHlw3wn6siK7uo/3/vBPrp85KZBvPKuh3Ou3/Fius0tT/SEjeR06DwsngfwvspkVx6XeOvUn0Z6qmQratX6vnC/XUNrqLbDL151w7bI7S/e24RghKH5GV+9jmPUhenF5i4gRuB9BbmRExuDItSUrEcE54U0et59S3yWG4UdHe1zlbyC6gl00lwnsh5vJtL9vG61sPo8Krf7L7e0F1tKfmtUqr28lMMSm96dZjXH8V9zoCKSwKtySlevVTPutzViyu7yb2S2dqNNilQW97RuoH+kKDK0jxM07u2xf2ZNlCnvYe1bG7HuLaxexG/hlqaGmzTaailzZc00nEMYe3h1D7L0asJmvtUXfs+a/dYT1WPyzN6Ul/x/CpEr6xKLVQpGGKYPWDQflPdGA7TG3+IEMWK+g/y7D1G75/HoIQwIOK7q/PSKWjSLNX/juCaha39XAz205HNMDSCzICqD5t0QKXXzd07dKSyVj/5GuSUCbT+R2nJdXviLl4hnv2vyg3CKtBprVoI0jA9aa3rViF1VNIfcGu+mawGB3VlD+W2ylYaz6Rmo99RaeQFEZcDDOK9BzNpZNTsIWNZ8OQztgqhNIygvylbdavuSwSiNB3uhqM0b9QZDr1ra1ZWQ0F6CK1UMrUumNYFCLDzzTHdGJ6MOwD92IpE8bo0zwtDGtYf6KHBLyzGgOESc75MQ1qda+uF+J0yxArFXHb4bDc2j2HNAE5ewFrJZFZ8Z2RjWoUUEGKr89tNkR5h20NuOgu9+vI9rLLqMEnDdOjYQ3sffqJ6rHbSTFdgqZ6s3Ps32g2uCG4U1q5JGw2+lgrVF5mqOHqrKFJm73yLC6BY9T7BJiUQFzDpUobWgC3ng7TlIe2wuLjoqdz09+pdSehIcSMQ1UrJMyZhvU8uQey4i2muNZaM2Vvslvjk2QOAtPyu1aBSq5nT03FtBI3hlFSt8cq7ZC72bc1du5imVKG2ut/aKRdtHDwVcp4huLq80rbPNMy91k6P84HfDlqtGX57SUcatRNz+3V6FxXzKSaPdK1otOYFmqfoP05VG9vI1mdfabMhcv+3+is0kK3UgtBWPrfTLcXhcjHD90e1H1myC5w1xHZIqR0oPeUWrd9RrbW3Vx5DPwhuZL2ZJg11tHZvepezI7ellpZkO14Thg2qTiYqpcQaK0Z92xhuL/YAyUTrUs2C+ICLSQaJdN0mj/Vl9RA9/tfi8oBWi2fQBGL2pK9z74q6vF2UE75O683XFvOGIQJOqh3aaiCNDuboaozNNYtfk4p7jlYJYhhFnIPYb6IiDZZm9VrdM1hDRF2mCK942u9osMk99wsnb90pc9Urnr5QtD+o9lWi4gReFaR0LpC0tcSBpS3NFmuTVyEAPqjUk0UHpsI6F9HcFD3plepGY9JIOOIoaGkdWTghlSEOVJcS3onp5h7e1Izh8zZ0blLujseiMrPbKEteOB7BLHlyFv00llya3N+pE2mcNoH3+GX0EGDryoDOfyzFiCotu+0UuNTg5xMM2yFfd4MtY6arxPjnKL6Ao8/f+9UIUXWtCfxBdjiR9fM+B1lXHWgPNe1Etvht9Gqlv7xPIdbwkabBEMzZWUHqilCqKim4SMm0zN6ubjlELV5ySmM0+Vxpg8KRxoE0xxC0XZPiRrdaZgsD9VRYODDTOqIx+Qa+IljT+PaBIEk+a7e8ZQ1xZ2cARet8zPNimzPH2EvtSYwxpKZJbO7GYlN4q7VL2jRKa4ujPQvu9PlhTPe6mu2Gt4rkvmxuV4E1a2SN0lri2haoibdxVRrG3soxzwnuzR2E3mSL5JpJrdXckAen30kTDbACEtcST9Y3Iveu08cIxczjcHWtSGqTUW7t9BgUNc8dXJc6YOLqKs7mbktWixteKX4vnPJ2klT2RpXfLOnGT5MXWAk2gVMvpiGWa+7AileIdiS4HboQSVHFyEGWu7eNQUcFyIaGFDQEgZQGHz4ptfUdbJWyg9IEtGlDMNKSqBNZpcv3ro2oKm207qRD2cU5zGgQb0ugKvgAjQuJ0eKgpOYd1srCeu7UfkdvgvWcGkpD+VCB6uLkZhCH5CWXuPyldCNtN9Wl8wQs0JnbWJ+dZL3ZPfcIFhpDWbCsaFOptTaEZM3Vd2aXVzKh3VcDYvtcT5I5QeHi+QA40upNP/cUISgakhuEuCfEHDEGIS+ZmDYIM1F8o12IgaCitUw7Unircxmv8xVAkThKRdSK8/uNBa3Bp4vbyaDWNdHS0LmL4d5IeGFeCqmxj1asfdUHcNCn99ndfANGq6cbtuDch5bANaTRavKtGj0UQsMXdP2UtJsna/nleDziW+j2+z21GqNt2Wy3a4beT1Fop9JLNt/Z0BtWZl45YRlbQTM/jd5CKGsiGZq8USm5leFtyChEgghFlGqeRGdr24EbC13BqxVO2k80mNvDXGghONzjSPZx+86u5uQpqrXdHd3TuJSLlXqGjm/lx9FuFoCa4mDjMGIsDcPOLEDOmXkKnJ2NLrLdSqnTaLghQR2lE9eEFr3P3/NhGM90T6xls/t0etYw3RNF6E5E18QMM6wNGHj/PrBKOrtdtarlpNEoTXB7ydk1GaphbWOOhqEZT3PFLdOsnPgWLuzVFqdY50EGfCuPuhhJ7ZlKA6JadWC9obye5EhMPn4vuKj42s+wejLs6n9HhCSC6b1BmDbypw7o0LvH/Xb1EQHfBxJBAxrcK9KGoTVqVc8d3q4mHn9lByDf/ySoahLXc2otz2A+vdsSnRiVXOd2KnsZ6JcR8AftpFlrLKJWKhUPESnF9r2tBa69SmggsIaGydduCfQ6uYMx/v2eXKq0iW/xmxRQ7++rtskkGlvLH/iQ0soi6mwg1oqhJb5Sff3fmm86jkGb2bDmkTxj65xKCJIctm+q9713EmIX3cIz/hCIyVbsYTE3IIrfi2q4BGC/C8FT5l79QDd4mkfy8CidFNykkHyW1bfXGRnFc5iYBkTFzGqAZQRuVmMYHyaAtGCaiyFNs2gcBsaxiXsJlCWzIGu9qxYolteKolibetJGxyqFOAxQA1OefMVx6WuGHPDpiu6ed655P+3u3ANYWidP+v4KH+ipvZxrmbgGNzb/twZlq5/Ccdz6qF3blU0ILXIZhLW+WHMXaZfi08ytHG0ciHupKsVaTm+Vmit1cUPO98TUWm3fUFa/n7UJlveVCb1SKmVhzhMqgUGg1Hv3YPWieirtLeNjd6FhL8bqLpsxBxEflQytOLCqZlDq+JZiR5yuDSDavGShlGk6NrmehLBp7ssfZBw66cQnrqW4syw5sywLUWFoMjbaMPReVawT3KG25JKGH+DsH1qOoT39azm0Grpmy6HR8+tqPF4WupcxNai+Lb7HXN9C7zczjRu0aT1K8IUnLljWIkRXhxfcQzRvQX+wHeKldxNpoKWR5+yV2unSTjsk+nhbwyRKM4BSO5jUkVlr1D7vgUTV1s/oaG0HAHveZ9027g0anaDqWg1Rn/Ka60IuhakUNBdVUVcIu28M5c5b2FHDEdHsaqYVq4F5nthuY1vI4SdA1DPSoSmczXPgkG8pZcKq+HLxeL8xZQzDsOYPHT9wN+9vyBnNbWRsBXgckpbGBez7HWsv/YTObkQbs8pnG42l+pxnSF52NYqiv69O9O03zlq3cy0r/cYoDVr37LI5hXpyYG0IiIqTdHLBctsTVRXrQzMtd+4PsJiR67yKcahIa3i1Zh3Gbtiy5LJS8LzM9cPQK577hFkH19rKh6DOy2wjelKNpRZyheM0E/LCxU5FxRbVvPYlAOLWJoAynO2OlVrTEBmiM5hiUmI/qebzDXHl9bdsvrkeT2ELtSZUu6Ec0eieIbxVxbSJYlwso4eVjt9qi+M0bKHUilShUAl4F1RVV1GQYgXLUBVKB3xCQNuUlSeF1RtMrfZeKfVrSz02Q2jlcGMysSKT5gmiWGMee8K3bn1QXAqAii3+/rSpuyvKnD2k5sUV7Z3DYXReRe9P+HBt5GzcNC3s5ra4x4eEe3zRe53b5hWqNqFTyWuZjTgSqygxhCAWH4nmtz3DsCwAOWhYaK5RW1PHse/mvrL/ialxDIq7tGWZCaJst1v3DvdApFx8/C2OsU1q+89KKSC0UszuCWI1a3dldSME7/yp9nJPTlWCuMC2C2+vmGero5sCGl6iSgiomG9/CayJlieCLRk0WTWsVLsD7n2XBphhtNUvzrYSH3ohRGJSEsrCTMkLFo2UE40dTJVAzQ5ImVXUIrl6cl17U611OrW5ee/XtCZWZZUauP/qDbr+Kktu3rTlZi1ZT00qMKpQi2nJ5XGZ61t0+XjtEv2mA3OKiTfXt2yGc0rN1OpkT0Op0RPEsniyJFYo1SVnVJRh2LDfT/TVhtJjOaz5QwiNp0D1nTfNrZspRqEv/kK8Lx+kxcjmhVbGTzMax/5dkZ2WRIp2oAh31VYJjSVd8QVitJWKHXpucA9qoWcEa6+j8yfoTYseNtBmGH7qROO6uSeX7O1sbT89CLE6sTfGSAHy4veV3gA3Z6An7QqbHjrWRLGhuq5GJ3QF2HboWzLpF2lt4k2DVzKh8UijuB+0XCUv+cwkv0WPjp9HT45CDCXnWW/v7jg/T+x2534iLKyxOGdPAEWCEzA7wCsuiFEtOC2t4QInSZ6T+lsuvia4kzrXRWbWCJ809XWRdeAW8I5oq56IjlX0aaqOefT4WeqpAnAKXvEbKNp0HvC1B53n2JBF5zS0PEI4UftXv9DLNltbx/48U1uD6CNspWQopc1P9pa9J90EwZXihbSGoQJ2GhA6kVlOv7+3tF2yh9VIOo2+F+Mi7d5Xb4XHiOdaq3YQgGLVUjXeUomNITwAkKivdLfbWUoD0+wDmb5stCUsBXKuxNgXkLHW380jI5ocUwjh3oMv7Pd7ryqa28tLpVof+rTVsmloXmgPqjZUU6TzC81zhuCjfeu770ZS+wIfGm4hWADaxJLfiNq0GVxJpgNTgq10csyzmjacRa29mOwho67G0+9vLk4aDiFgfSm1uiqMOY7e1GKVaTqicWw7Pj3WO8XDw2jvS50C/skb1taQk35QhFZN0ZLaJixSlJIr02HyRp4m8s7nWliyppwHqry13DJ+qWwAwu9okLPduW23O99e1spLbQ+nlL6aSBtl29aDQV/pmyIiI3PJbDYjgw4cDgfmeSbGyNl269ZevWff62uHlZ2AEVPycbMApYiPhgkraVR6FSKhJUYn3iLN8fpaH59QLo3CZu1EaIDa5JCximpBequ+bd895Qpyj2vRhMjeopA279DoeLWUtaY38X5MkT7RhM934NS73JhTS16ICH2xiutf9WRR6SsJese3VlfpXbf4NcAriK0s8JwrNDHzacpkqwybASSw5ErRSUerKYTl7ZzhUduLttS6tQzn5xdY2aP4DIMqzpRucKqfSndt2mJZzwvGcSAmxSyz1MKYXEG+Ho8s08zUO5kpkafcdl8p45CgVE/8vBEA1Wlq2rJgid5w6j2HE5+yJ49N39oL97VzKfcMhXudSV91fP/4eXJoLbH10tLFuGMUYpC2fhBO6SotZDgnozacQ1Uo0iQKYiRUFxc/0QdOFYHVijVYvt63NKMNA51Ap97Uc4HzU1OQaCvEn5fMPGdP3EMixYDlgBS/C9pYYRW01kHTeHIO8Q6Xf6ulDBJDDRKRNPjUUm/LIgzbLeBxGorfVPPTU/t65IYrmMEyTyg+iW1pQJA1sUxppNTCNE1rezeF0LqXtHmATpW3JjXsQp8Odze3iK8P6Psg3eUrje/RBm3vgQfdu9yLuejJw3iXsimuWlNRE2eKewO20af6NJY05LJ5H2/cuUZDiEpVgVyJmliaBMGSS5s4q9RlcaOrJ970/Un1YhXWfVntv3qS/OvvwZt/vilwOhyZpkwMI2E3kuJANZyumF1EVYKBiNVcjfEUjOKbV3sAEhKn4zTc3Nyw3YgPwlafoIrjwGYzUurs8a1fsDjG4JtrarN2Y1maRoFKI6vAZrt560Rj2lyu99pT8PlOOHErfV1xp4VbSyy76lyvRlpTSJ0GZ9Ja19L0jdba635Jdkq+vNsp64PoiEIDFls/QrwVbSeeoYgTUGgh09o0F+bEU6kwL0em/eQPpHq/hNpa742bULt3QYnJAapOjjXrzalTuPKbbKvH6BXEkn3D7fG4Z5oy4wBjmalVWJZKjCOBAmXClpEkZGPp2+PdM3yS2/RSCmMQiVYrh7uZzSYy7Wfq4KSLNERS8vjoMawzom1F93pOa03lrOsd+iltOxmBeZ6ZpiOn5VnGMs/UYK4Q19riooIVI4hSGwdT2uRxFTcGh46tjdRDFqfFWUPlpNlC7yCa3SvHCHSxLBqw5OfE3CsgNA00/z1t34O72w6Yd4jRO5e1+sg9i+cDd3d7NkMlhrGBKv6AnaHgJZ+0yOhJmJz+W7sJ96rLFXf1/nLX1s1VE5Z5xoqHS18wbxR8r2hpIFWtBVsmDvvXycJXD9wrKOLTp4+5qde6fz7tdhdnIrhLcU/rLOhpmhjngMiIRp+N7Jm/VxSFmr1B5JvnIlhbABYcui61MKS0AkwGPkNpgtXKsc1vDkNEZUsMQmzhQIP44i+MRSGY+OCseg3tD9M5QF1nscsE3qeK++uUqltjEtU1Z2iSu21IGAuIOjdTUUxKwxd6T6G7+IJZXhFKPxwugzRuNl5K4qp1XdKn/27MPZq0e7piKbW0Q9Abc6fZ1k5Spv3dDF8+IoEUR8YhkoYtMSUsdxJMpEpwHEapyzJPte4PrPVKM/unZyH+8HMZFaJboSd2XV0+Rd/aEkIgFm3u343AWU2R3ECWLqG7TI6/+0HzCeHcOpx9UblUbYMu1WWJra3ttUwpTotzaSBH6tx4KkvxVrNaaDHfj38ndfRhFdTo53s9RZzK2AYwt5d/lQNXPsBqEhGJuCpNBYlIa5T1mUoRxwisZlSbYFmsLLmtXxyFKIlaupiHtvzq1JI+EWjuzUhAo7416j6nr6dWV+ttOyTyUihLbjssEzEOhDTio3dQ8XEE0YgRqDXUGDdfDCkty/LRyTMA9vLTPCCmKnMVySzLEeyCeT6wjaN7t1rwfY2BWr1sW3l7LbFZQaB7AFDvXPqz6LmGrUZjNbcV04JKZBwHxmE4YQ/SAae2PDX61HKnqwmKD3X6ngvP8TM1W5uM7p5BViOgZQbOgZQTotgMRXuvAk+iTyMBfYLdT2u2glZf2QQFrW1MfwiwJLK4kHjU1EYE/RBoB75oDLIVY7oHcTVcIbR7YGun0g3Eh5yCH5RcyNkPwDBsCckfupr/7K60UyssGSSEKcTxsxgezNx7xRevXwGkbAezkm0cleP+QF6ObLYb2oAaNQuztNUDOjZjcJcX8NJrnXrWQEojIXg52rfbulG7HqKBb7UJkWXOlDabGWIgpNhuQpts7gZGK21rXXUcPQELLdP2B+s3oa6zBdVah1Pk5BSr0Ob1HXnUE/pI64F0tLFrW5fik9zIKZnsfA7ttEDzn+Fk4IFp8U160llrqpT5tMrJE1Jt9+Zew+peU0qbMdzX1USseVCn60sIPjoY3ZMJ0YnjUSlLfz/iwKGGadhcfFLqbv+WMTxKBaB+cpNZstW8LORlYp4O7M5Si1dKbpQv0dPmVtF7iZayoo8IhDSQYiAo97yDgza5dfC0gU29v+/lkVDrgO+30h7N6dJ9JbfRO7r7lBWm7uwpM++XeG+gu921ueAewItjTtMY7YfgwmNdRqdW/8pq1hTx+4RTH6vTJjmsjm3MBUovYNRpZyJojAxtl9V9CN0aCIfcGxq+33kCusK8twekhdUZWzzJ1OAGEDShEtvXeIjspNvUWgZqghD3adj9IMbpbWO4HALA/LGGKdtSSm0PzOUaUPFFYUtt21KqNFHL3ByrK6Nb8a0xtG6jZx/S9kDNK8ehu8JSfDw9BWUcN1jJNO5GM6q0ooRmje9r1bunnSYfXQhM27/HVjJ7iGmSFa30alF3xe5PVeeP3HhOi1jN+g6J0PO+1aYMvTfj2Upa892fS54hO5mHShNIca8gNK8iTirO89wYztKqL1avIM0trKUvDm6ZFNfQMh8kwrwbu1LjW2itRZjbSIPzLDMINY3DF9vx7CN+ZIom3oUNwKKSphg2mmJq/AOf75f15t6zaNzdn05lE+zMmWqVGBPzMnN5du6oWThNMYUQGCRhVjgWX7wRQuD8wQOoGdW2wZU+R+FeQO2euJg6eaQWH1g16yzBVvfDOlTSo4KAk0WkP8zmH8Raj6E2LmXPCSqQW07B+l77D9dmZH2mQdrMaNZOlW2/fDEyvoUu50xu94jWZexobq3iOk/aCa/acJMTmaUbrrXp7RZ3PGG26ntHHY/3FYZqLdnUNldSgGLDkD6+OL98wfQjoqCzc11KsFDFROdjWwyiA+OwASmEYL6oXPEdUFHWE9Y861oquaKIdyVzyWy3W1JblVvaQnLfNt8yXHqiFNBhQ9DaeiCtve3+38NCNwbLbarKE8r7+6xNnK2t/Tz1nrj0k91r+R/1Cl5+nqa2M6pDOwytP7KqxDVo6pTvNUJOI6KHiC1LJ2N6id16FT5/0sJIe9XW1FJVLLgRuM62/JjnUtpmGwuYulGVtTJxSF2bpyJUtBoalcrCNB3ZbopsxvCiKm8ljwDxy3/kgtsvLvPrVx+LEyuEw2Hhbn/kYb5k3Axo8OVdMWlLCl07sWRXWDfrPYtTKAjBW9/OBg5tvXFpWH8kysA4ZP8Z3CurJJCrQ0QVW492AZcSaolbjBEdfD9UCIE5z1jxJV3OGu5VgSeOK3egu12T1nTsuIN7jkptiZ0L9DlFr8VtoBZrULitIUzxhE56WKNpVuRMbYRalVayBoV80rMAYdW6llOr/z4q2v+r1qqRNgrguzKg3vP21pRurPqKhBhpYikVZGBIQtRiJvFtt9DvxPmjqDEG2W7PJMSR6+s7Xr9+wzQtjYzivzzG2MQfXM4PxeFo6yN1Pk4HtOmq1nZF1mlja8IUWCOMOcLTuH1+Ubm0MbSWC5SmClNKYZmnhg8FX/nXt+W1zl61CsV/dg8FK5+ObgitYWVuFE75SO3rQosxbiSdki7qWtYheOIc1inpttQDb7lrrdgywTx5jKYQUyAMsS0w9z3Ztb0/3yrTjCq2wZjVOKFvweuHwpnojdSLoCaNDebiILlWn3THST2+5GXCykJZ7ri+/kJKvdupaFXpOyz8TwRsf/PhJiXROATTMIAGylKZpsz5ZduuZoa1NnZn4vrOAg8LIv53HyI15nliWbKvMC6Lb7EXYRgipRi15oaktq13PU76/XWIla5wJhRz0oyqb4bxE+SMpK73sFp47Itaoa5jZyekshtHRw9YH2xwpFF7Rq8NBvYyzoVTdA03QiO0dkjaiq9Bap3IIhmJkMZARR10q9bYYK4hLaFjHJ78dZ5T7/V4lJTVuIuZDwuHNvhnzcSlrWbuhiQOqVmpvliNwNX1G3I1+cnyMwjl7c0jQNx/7yW4Yq0utVZR8bYz5lvdppHz8816gdNx77lDSi258lPRdQA2mw05+xSSqjLPC0U9N+hUrZxn5nly7yCVEAbWzbF04Kd5kAZde2f0NJ0dRNct842k3HKERvsK/rg9P7R73gFOZWZjL1h2tBFvJUvThOjK7FjbK1XFGQ9Nlke0jfw3o+5LzEoayGWGpf2ctnE3F2/+CR3rathGM9xOuzd62AQzl1BDWAeATuAZawfTW/+1saSl5WGRMAygkWVxpHSZJ6ZcLyjzj205ja/vEkBYjDjnYrX1xMUqV1dXBC2E8JDN9sLHtJbF5XFi9KheT+SLfqFpiBib04ltmHiMfVTNw0bJSxP9bOLgbcC0d/G0VqrSBD3auH70+rzUTDHf1xhCn6p2WLJWoy55VZwHXf2G55OVlcHVJr9p86Qekz3hDVLJ2QeNzZyOb9Vzhtgeg3dXvery1VYZ69cZlLJUlpKpx7yG1JhSq8CsI+Sr26+9jyonI6nNOKqd5lGkGwcnpV29N1Xl4cYlA46HIzlX8rIwDgOlht1JmeaeMbw8OCE2Wk5BlcNx4ng8UoLx6tVLlvkOI7PdJR5tLwgKSz620iusJRC1ME1HX3fcVhr2NQN9ZqLnTDEmttsdV29eYlZJSd9C3sx8Z4O7z+I8BnG6fZ9brMXINbsRWLtBXZcM99o+hewH4DRotEKQOBFXVmPpBu2bghq36v7+ijaL6einglVydS/VwR0zTzZNfdQ+1EytMLfNdUHVxUGpzVBKC4n3jJU+X+Ilea9GEC8/6dfasbLuUcwPgneD3ZvObeH8/jiz1MDlw21NKS2Ect9V+nNBFoCSlxq3m605gui7nmsNXL2+IShcXu54cLFju9sQFh8WDcEffK2VKkbNhXmZAGn/FhhHb5GWPCO9ClAoJZKGjbvgUim5UuKJZo+4S66lshTPSYbB9Q3dfXrSU9u0UUyJSmYpHreljfm3CLq2ufuE86lvbA13cO6SJ8zuZeKax/TpqZYoG2hwYk8rSOkrjh2vtzalHjF1ucMQlJR8Q+6yFKKFVdZUcBE1TH16u+0LtZo9kN17L7UUFhqDasVjTk0sBwodiDJ8qevN9TXHuRLHHWlIjNHMYh1+1Bj0nacPeefpwzzPVkNI+uzJ05WZfLY9by3sIy9fvOLlyzcsubIZfOd0F+NIyWX84uBj+tWyC0m1Q9gTPZGTBZsZQ4pst1sfNqlta5s1BdkhEodEroXjcWJxSr+vJsJle2OIpHCqYGqmJWilyQt5nrNu3hPvdq5cYunoQvMU93Sd+uIRv1bvzKo6GKch4cJjEZHQtBUdej4p6fdegxt2jIHNZiSlseVCLjcU8Q15oa1ckj43YU5eXdrQ02qU+ET1Krye397jIe1+l1q5u7vl9etX3Nxes5QJDcpmu5Gz812WOiSpA/f/xHj2DCCX5bf3FirjuCHFyO3VkZwz2+2OWjIvX7z2k74ZePr0oS8NX0UpKmNK5ODo2LzMDAMsizSQKayue3XFbdmYN2H4/7H1n8uWLdmVJva5Wmqro0JflRKZQKGAQrUs9hvQrKyN5M828gn4UG39EE2ym2VkdxtbFQoGnYkU9+YVIY4+Wy3hij+mrx0XQEZaWJy0G+LsvX25T59zjG8wjlOpKURMYqz4IeZp4vzvzKEcs/gFXYZQOUllHmcpmJ2bjf/oySl7PB/nFGWCVLwbitIfSZo4Hx9F1yiaBk7XYlE6ybEVU5G9R1XgYqUFnqWinwvY+QZwCjQtt4GcKES2MgVOipAKpbZI5GdI2qw9ZZ7BzAtByfcYQ6A/9jw9PnL/cEsMCbcwrDYbVquVqru1R7cj6p9kVHWHHiA4a/cxHOJ6tebs/Jzrd295fHzkzauXZALH45ab6zuWywVNXbPeLOU8TlJEhpKRZI1Y9z8GdEUJ8irSdJ1cKdpSoccrJt8TgscHh42iVPYxnpTZbd0hVFhRSRmtMeUaC0VIMifmaUXWc2DqXESIhiLkImMt1Xgqi2NWTMlhkUphZtDZYIwrvtvy58ok9KO9Tq6qKQaSF/OMo4hyVKHlpoT3gf32QH88ShFpDFNMxDK0A12It4qSmiB+lczJ82CM+EdnMs483v7oPdHE5PE+st/teHx64HjcY1xFrQ2L1YZqscpa1xNKH+dn5bQYNtsHgGSNOsaQQrdo+PT1G77+8tf0fY8CusWS/X7H/d0TXXfLolugtWG9WaJ0xtoKH0asVVRVI8OescjAvZyVKUtIuTSnpNkkVDdd3gwRdGot25kosSWyR3YW2dr9OBGVwuVMVVdkxN8xv8EoeaLkiUTavEih+E/1DBlVztYiqSs+ELG3fbyifd+Q8/0tWbaJWWImH5pBRDBGQVCi5Zxlfbv9jt1uj7UONwfFp1Tc6aU7qqUfMXtBZ7ZESiWcPpUiVmsmP320McwSRARAKgAxiTLQlaZyNavlOednL2LyZoQ8fn8hAFgtg6oYTd6lKUzGBF6/fsnV5SUPj7dkwJqKtl3Q9yPXH+5YrTY4V2ONo104IGFNVSRoiXGc2D4+nnSby0WDNoYJTi1pyZUQ3kLbNhidT7vJDPswVf3Rrp7n8BDB3jAWeouV7mhV4vqM1rK9FmAG80Ejt8fT6ZDyPNqa5e8y5NJa5G0UhM88f8kIg0LNhUbpdmYFKpUWsjW4LG2f6D9KbU8TyNJFVcpQ14pYusjS3dQnL0lCjDASISnXSG3Nx+stqcQWzFT6eVeTY8lqQ6UVynuIAactl2dXvHz+itZ1SeVqkjfn8I+PiW9XFwDR7/KjzRyCH1mtO66enXN3/16S4sicn10RQ2K7e+LudkvXLdHacKFWLJcVKQUqU5HCRH84MvQDMSYWXUsMwpCunC10FrkBzAujrhyVM/gwfk8z8FF4OptFlCk9jCkVE4lHETBJilhX1yQ/ygeVArosEF0MN6mYg2Z10akCL+3krERuJ4tDKDKKUHSQ0syS+jOfblBzBpYk5igJKQvx5JYilSLWaNq6YVrEk//Ee3/qn8xHp8xjcnn6VSHBqFNhOPfLZkCatOLN6aYRvYeQSX4gTj3TMHDxrOH1609RyjKNIXfLeuT3NBrszfEDgK9yeozK3A/9+MNqUfH8+QW/+rVid3xivVmyXKw4P79gu9tze3tH0zTyxsaA4YzzyzWKSE6aumrIC3H8zKCPqtJUlSTIhKLIniXgaI3VYFxDDKWFnTMxTJIpXaCbSTmcM1RVJTI8Iqpg9IZhEBUwmSmM2MqIk1tTxtRzvF9pEcyd03nXYP7/EVEeycQxG6l7jFYoZp9qKiGllApwdlBTZPPlSdaSOxGC/H5bOdq2la08lSZSsQqG4tVMihIjJPaCSCL4iMoRpcW8O99W+LjRnfoRY9/TGUWOEykF6qbixYsXvHr9Gtsuqeo2a2M1VPMf/bgYyq9Rmfomqv59CCkOw9FcPTvnzZvnvH9/zX69xhjLcrmgbTu2uye++fo7uXLeG4bhOTEGXr25JE8JayyLxQprNU3rBPaRJUg2hLF00OTp0CYV0EfCWSfhHgqRzsfImEXbJw2dj+S0MIXSotbo0rTqD0f6aSTrxMIty/acT4rsmIRwKw07/fHdLLcNXVbG7OoSGnwm60BOVvr+Sii0mcKqMh+PoZSFknIahX9sgRVDbizCILlez//fey9taqMhQYjFOKSFUyXgDk49GFV6JCfwac4FxDZi1IxrjFRNzfPLK37y059weXXF0deM3rs6TlcqjS+0Xl1/fzGY//v/9f9MnSNttWj6/uFPpn7/Rz5MbrVqcJXh4eGeoe+xzlHVNUopjscjfvIc+iPT0HN3e81xOGKUYrnqUFrRVDWVq6grVwZEYJyc01onrJVOo7iEfXn688ksohAarUQPcAJ+zMXo6KfTNmutwbmqnLWBbtGgjcY6KztIolDQpIhRJ4I7Uux+7+qplBZhvJJdbLbkmfxR2JtywCdPZMIYCkw9kqKXwiQmcghEH4iTJ0yeafKMk2caPf044H08LZApeDk6jTkdE8ZVaOfQqJONTpV/X2kl+o9Z+FIiC8I04kw6Neps5fjJH/ycL37yM2IyHEeYkta9TybE8Ltu8fwXfJ8qf27b+evd+yne+IzPPqFNzfPnL3nzyQ2//s1vGMcD/VCzXHWs9kse7x/JKTMMA9MU+fLLLzkenhiGH/PFDz4vWVOK/jgAibqR0bAu3EelAnUjiidUKsUVOGuFKo8TuEX5kJyzJx3l99Pf5icLrXB1hamM4HsKsFRpwxRlOqjLh6tLzRDJp4Gj7LdzEMgsOzOFfyk7QiKWXxPoJDuemqvAUvAV6MgcEjbvSFCOECIpBFJWp5vUyT5AAZgq9dGIW66V3gfqSlr8zgrRVjBBqfRtPGiZbEx+wlY1n//wx/zhH/8JuJrDYSIpccX1/eMX3364/bfrs8v/D/Cb02IYnt7PX/upn4773SE1OuLHQNcueHb1nA/X77l9+CAdrKbh2fNLYvBMU8/kPVaLzfzbt29FNqbgi88/Z7FoOc2qkiUGaUM66xBGQziZT1OMmJmqUn4R5rSsfluEtnINK0eMncPQJRI5KTDOljdStmljJCk+5kQsRHilKGhCEb0UwhNauRP1ZNY9yPhTE8iYkquZVJRYCiUKcYGASGczRo8uRaZMZSmALjmG5oIPip6zHH1oI9PSLH82lrZ3SVunco6mrumaBmPtaVcxWtDK1ihM1UgRTubq4oqf/dGfsLx4yePDnikmVC1XqmH/VD89HX5yc/P1J2/e/OffWwzmZK9KKTOphPfR0x8HcjZ09ZLP3nzGL3/1Cx6e7qjrmpcvXgPPub25xk5SrFjbkNLI3d09X335FckHXr58xXK1oGtb6ex5D0aYQ8pY/ORL8SQyNokHjuQkXAiptOXqqlAfp3bWUDdN6b1KB3IKkVjau2Kwlq5gUgItr0zF4EXpNXMjC+QIEOiX0g5NMRQj8jalZ9d5KilwuTirZMXO+s8YQ2msJbIPqKjQWUj6Uem5j1r+bqljQpDei8QeKlRMxFxazVOgqVtpuVtD13W0TUNlLeM44dM0d09QEdq6AZ0IybNYbfjiRz9ldXZFv/c8bUeGAMvWsGhavnn7Nf0wrkIOV3yv8WR3H28Yvll3T+1hMU6jZxwjfX/EWsPrV5+RM2VB3LNarnjz5jWKyPX1B5KSsz9EeRJubm7JOdP3A69evuLy8pK2awu/IeGnEdfIrcCHXp4cLc2jEAJWu9PUc8bTxDxDLzRa5dIOz2RT4oNNktGxFnELpbInK3yIghOLFNlbuVaq0oXQIv4ga2buQyozFDtfQZU6NaeQ9SPtZzIqxVPBOGMBcgxl9iBiQ1Wc15P3RD/hg2RU5ZRAW3KMhLIjxBQI3tPWLefnZyy6TvooOTFNI3EYUDGiJd8AoxTWCUTMGsubTz7nk0++IMaK27snttuJqlkAmpgitjLs90/tNBxel60vANju/Oq0Mxx3N1vrmunYK/aHAa0idW24WK35g5/+nGmaeH/9jtu7W5bLFZ9++inTNHF9/RaVZiBVYJo8t7e3kORaFGNitVqxWi+I0VM3RgLAsVR2iWaQ6re24uien6CPky7KMwhKnFdQbhauImVF3QlCyKtEUrN9r4SCxSzKYWPF5p7LpFEp8on2ZkrHsfgQEC1DiOKKKpvNqRieNQc5zo0t2aa01mirCVaRvRddZpJ8qlyQv9F7ZrMN5UrosPMsGqs0ZxdXPLu65Pz8HKMUx+OBceiZ+kFUYzljS4qecqCQXfXq8opPP/0BdbXgcRvZ7TwxSKRhmhL7wxMP97dsHx/rw273ClIHbAHs55//dF4M7sNv/74KMVdT0DhtaNqalDwxQWUNP/jhDzkcD3gfuH+8xzrL69ev8WHg6f5W6Hlljh68Z7vdnkbZ0zRxPB4wVtG2FVqtqesWVMKaRrQIycs9OokgRGUlMwdt0LrQVQq6P5U7ubUOn1O5XgqUIqk5LjAJOUXPH57oC2OOMinN5REvbqN5Qci++bENPI+8T4CtuZ1ZGgPS8C7TWSXys6wMkakYhsQTDhTcH+XKm/B+QhkxJDunOTs7Z7VccHl1Rdc0KDKH/UEaeccj2QdSiOhUsr7mbz9nzjdrPvvscy7Pn5GSYfu0YxqiIINCwijN7vGJ9998xzCkahrjWYq+PS0G/7uT8bKdYnrpmqbq/IIUB1IG5wzHfsC6jq7rePnyFbe3t5KmEiKuqXnz5g2GxMPjnfQWmgoQEurxcMBayzgObM7WOFez3yumyZOzZrlekFA4JaQYH0aM0ihTUZBwhRRnCL5ga6zBKIsnEcqWrnMiZDHWyL9dolK1PuVXm0JkLyctHzmOs9pYknVCUnKcKE5im1yucDLPKg2qIkZVKTFPQMjC25YCLxdv6iyNU6f+Qk4S84hqaeuOum1ZLhdcXV2yXm8kfH0a6fdH9tst0+FYMr/yqXmYkZMtxsj51TmvXr/i6uoZMWZub+65v3tiGDJVJztljp7j9on762vq7tIumoXN+YRix973/fx1N4TwunauMtYQI4whlofAM/jA5cUZr17JsMkYQ11VLBYL6sqSX0VCHOn7HmMNzpYEluDZ7bYcjwd8mFguV4Ci73sOh56Li3O6RYOtNGcXGxaLFbvdlrZtGNKxSCw/DmpmqTjWyFae5mpcuNA5JQkkn+kyhY2kMOXc/9iNVEo+RHQu2VJ87D/kYvY1Qm7JgMrpVG8UtcPHmwglvyrJNZkQIYo/NEfpus7TxcqKJmLRLbFNTds2bDZnNF1LXUkLfdYiDMeBaRyZaXBqvqFUTuR9WtGtNvzwZ38oi0hZrt8+8vU31wxDJiZL1dQoZXh6vOP2wzv2T0801VITBmesOknm7a4+9RyUSfE8pqmxVjFNxQOohQgbk2RJrNYbzvueh/sH0TUaw6I7Lyu55+3bb/DBkzEndsLJSVSMpc5VHA6J3fbIzfUtq9WCzdkZu92RzdmqCHsm1us1T9snyhlyIsaMIWKsK9dUK9tyylhnGf1QBDBlKqkFtCka5DlmuMwiEOVzJmAMAg9N8vedXFZlaihWCZkhmJxLLGIBiimFTglVIorkwJEbyhR9UUPHctU1nJ+d07Qd3XLFarHA1TVNW6O0Yr8/sN8+MgwjQ3/gcDgWGx+EJIxobeVhiN5j65rPf/pTzp49J4bM48OWd+/ec//4iDMLVquFzG90xdt3b3n33df0uy39Yp1z6L00ecpi+I/+4M8A+Muv/zw4FespD8Y6ReWM4OyMFvOMdQzTRIoj3WJB8IHDYY81muVyydnmTLpwKfDtt1/T+wFNomkbKDeCaUrsdiKpjzFjVI+xmvuHB9YPT2ijWG1WVI3h7GzNixdXdIuG3b5ntWxBGVLW1MsVkw9i4xvHcsXUBD9J0HgoiP9ydZwDRk76QEqYms6gEsrIbUVrh+R5f08IU66ZRhtISeDeOaNixCgp9iDKbWCaJMMrQxoTccwE78usQlGpinbRUpua8/UZxlVyTa4aco5sH5942j5xPByY/Mg0DkQfyEpqAx9LXyKBNfDi5WtevvmE55++YRxGHu8fefvtNY+PjwUFlBj9EUzDOGRuPnzg5voDKgcaY4NCHUB/3BnmXWFTXdjrWtUhZ5czLFcth0OJDi7FlDbShFksFizajoeHB3ZPW6q6YtU1rFdrrP0c5yzffPsVw/HAfrdHLTtMYR2OY6bve0KQWUTTtCiluRnuqSrH/d0DttK4xvL11yvW647Fsubs7IxuuaRatJjDhHWa4CPWlFAuH6ldTdJiMrFOcxxGIbNqTUq6xCfP1jWZAagyOp+QyarKkGPCmo9C3wziZcwBgpJrnQJTxu1+HEhBhkQhBBjAHzM5ykDMVpauaskq0zQ1Vlm6upH6M2bG/sAwHHnaPfH09MQ49OQs/ZcUIWqNtpWA0NqG9WbDy5cveP7mDd3ZOcf9lrubR64/XPNwtxNdhW3JKTP5kc35mpvrG/7hH37J/mmLrVpCVCmFOoP+2I7+3d/9ewCVGrNxTbW2waiqqjE2k9LIFEoGXxZTZ121WKWpVjVtW7PtGj58uGY8OF6/eclFe85ms6LrGr779hu+++47jseRyplTVkQIkWkKwp0u2U0xqpO0vu8D6TFz/eEWbaBtHVVV8fzlG0xlefbiGYt1Q9fVnK3XhBnDbxTrixVNVUNO1FqhosFgsSWsHQXaOHFsG8foRyrtaKzm0E9YJyicEAa0Ah+99AuqljAJ+Lx2FTl4xsNeFsFwJEXP2A/kkNHRYAorSWmFs6J10FphrDyB47QnJ4UfIsMwsD8+sdvtmPwgOxuztkKRrKJZdFTasF6tef3JJ1xcXuCajug9w3Hgw/sPXL+/ISdNY1u5wgZF3dYMo+fdhxt+85vfojA0C8VyQnlsokCZAOxeF//lYbyMOTfGVlin0DpjLJgk2B6lMn6YMF1NNjBOA6vFgs36NXXjePvttzw83HP17ILlcsmPf/gTurbDuYovv/wNMdcYlYX5CKUwk5UbfUZpS0of3d8ApEw/9GyfdoDm7dtH6qalbb/i/GrDyzfPMGjWmw3j2GOM4fL5Bcomlqs1xho2Z2eESdq1Sht8P2Er6TbmmIQPRSbpTKUqxu1ENOKOOvRP1J3FjwO+GqiUIY4TUzyQg+ewfSKGCXIghRFrDP4wYFSNslKDKORZqrVAS2KY8L4nTYkwJg7HgaEf2B33pOjR5iNFDqVwixa3WrNYrznbnHN+fsH5ZgPOMvYDj48P3Fzf8e7b7/BTpqkXxCA2AVe3aFOzP0y8e3cjOOdsOHqYkjK975ucowPhP9p/8Z+eA+T/7d+97ZSqWusqQhiYhj19PzAOPctlh9WW4D1+yLhFQ4gjx2Oke37Ji5eXuEpx/e4Dv/vd73j27IrzzRlffP4Dzs8v6LqO3/zmVyht6YdJRC5KE6NMHv0UUcoTo8M5yadwzpBLIGuMsN8fQE08PR6oXcV+O3Dcjzx/dsXTw4Gry0uOw5Gn+x0+T2QNb1695H7xyMXFBTllnKsZh1E8GFmTQqSfjuyGA65piTkxTlFwN1PPOB1pW80YjnRtg0WTpoBJ4rTIweOsFhiZDhitiOOAqQwxjahkUVY8HzYrwtAzDkf8MJLGCT8ljoeefpjAiHA4hAlNxNUNqutozp9x/vw5m9WG1XJFVVWEaeKw33F/e8/d7T23t3cc90cq1+GMg6iYxoBtDNgKtOKzH/0Bq7Pn3D08EZRl9NH0Y7+IcVoy9xl2BykbfMRnrAVhNqUI9/cP7LdPhKsLVq9fka3QXFOQgO2oMw8PNyzajtVqQUpX3N/ccX19TYyR5WLB1eUzun/VcX5+ztu335Ur0x1WSzYmZJQWMhy5BHDkRM51GfI4dJ4wyjIWSHfykDnix8R4iKzWC85XV1jd4n3P491eCshoeHYRUVEzDCO1rRiGCRUNTluGYWB33OJzYpgmjLOEmDgcj+iUhH3texabhpAGUgg0xtLWNQZFV1VcnK2xjaU2Gpsj682CnDTjNNF2ldwk/MhhGhiGHj8M+HEk+0jK8qH5yWMaxzh6lApUlaPdbLj49DOW55cs1xvaShRjx/2B4+HI/cMd795+YBompmGirmqR3KMZQxQEQLkNbs7P+eHP/pjt45azszPefrjj737xFUrbKoXpRJa3OcnXprPDtM8+J0XXLoS3pCzv3l2jtGazWIgAFs3h8IRREWtktPo49rTtkvVCfh4OB+7u7jgejzw8PnJ5fsHr159wcXHB4+MD79695ZtvvsZV1enKqYqnIYYM9CefozUOspz7OQbImpgTw3HC95njYeRsteLweGS1WTFNA1VteHh6wmTHqllx5x+wznFzf0tKCkuN9xO5TDtjTiin2e8HpnHAOMNhvyeEAasU4XgkMRGS56gUZ+sNtXNUWaEzNFbRVA6rwDY14xjo+yPjoIhBfB/zqD36QA4RZ6wYkwW8REjiDFssl3zy6WdsXr1i+eyFfKiTtOGnceL25o7bm1uuP3xg8oEchMfZNg0kwzAOhGiougXaOXxMNN2S5eaSxfolVVXz2Y/+JauzX6VMK1PGf3KbyI1xW6OrKaQpp5yUtTWu6jC2QmGISQmIK0j2tQg2IyThPh6PPU0FdVXx6tUrrq6u+PLLL3l6emL7tGW9WlE3NZ999gUXFxes10vevn0no/BRtI/ee5yrpcIeB3JSTNI/FBNNlPZOUjJ0yikQPDyGPdvtjuHXX9ItWlxlmILHT4HD/sBqtRKF8jARk6EyTp7SIBGLTVMTyYQUmaaBlCNGZzSBw+GAIdF1NU4btM6kKZ5qjjSN5Ahx0mQD8ZjZH47s9ztS2Mq4eUolNlq4mhnF6KO8MmeIIbNYrbm4esar1y/YXF1CW5GVkOHbbslwOPD2m+949+4D1+/fS03gHNFHGfgNHmvLtdcotJUI6zgNhJQJPuOzImaox8yPfvzzsN1PO6eqj4vhm78T5ZNTZhdTPDR1B7nncffIMARevf6cH3z+hrp2JN8XYWtLpghAtZJrm0qMwaONZhgGNusNX3zxBW/fvWMKnuFwxB8C3o9sNhs+/fRzLi4uubm5Yfv0yOPDPeM4MQxH6kqU2HXVFuFrZBpjMZ4YMVgXzoNWIgvrd3ucNex3exbLBd4Hbm8eSFFxe/sIKBrXMk0JYxUpBI7DkbqAyLBCizn2R+rG0NZy3ltrcKZCZ43JmlW7IPlAQNzl0/HAUU8cECVXSon9/kDMopoaB2m7KyWyf588aMOUIsoYNudnrDfnPH/xhsVqgzKGaDRGVYRxZBxGtrdbvvn6G67fv2caZXdx1pGD9IFO6OPSlIspEoYDAcey7eiHkd3+KCGxjWWKGmvrtFi1O1W1J9KHNc1Jz3B0Vf0+6YBTFQ9PO3b9yJuXrzm7eM7Y75liT1Vie4WPkEAZAXYq6TjGnMkatrstWhvOzs6wdYXVmoe7e969e8vd/T0X5+dobbm4uKBpmuLJfM92u0MpmV3EIEW1NZbgAzEFnJM4ohglUIQsotwZIFa5illgnHym70eO/ZGqquhNpKkqht6TQkApRSjhVjpGUo50XYsxImCtTYWpG3QWjOBwHEkh07gKQqRPA0OtSMHjEfi5rQRMFry4tGNMxY6XsVWNT4JE7lY1q7MNr958Qrday/tnHUkZbN3SH/Zcv3/P7nHL7Ydr7u8epHtrbWlxq/Kef7TmpSLfl5C2xORHDscjyxDY9wdWq4YEDNNEqxu0dbnYyGUxbC5+OH/dPzwevpn8YRz6oVHaYVxNQpO0Ydv3+NFjnTxBxmVszsU8Y8gpkpUhRdFB1HWN8hFbO8iZzdnm1I28uX7PdrcjBlE3zdv4OHlhJ/YTdV2z3+0wxjGNkwyAvLSdK1fPRB4gUdU1ramYpomUPXOAqC45EXVVF53ACDkUZpRMRY1tsGWrNkZobCI1iwyHHkWitobBT4z9RMZglUdnQ1BITyQplIOgEqMf2R+POFejTEYph3Y1KUVW51fYcaRbLWnWK5plS1CKoBVd05GTxo+e29u3XH94z83NLYftjjQF+uOR2jYyjJt1mSXqafZgisxPppjTFJhCZtjtWez3GLdmf3jHcuGpuonNBr1cX81SLlkMZ8+ezV+P1dvmRqt88OPQPHv+inbRsVw0eGCKoiSaZP/DKkOME8aZkn2dMNowTT3eiyx/vVqhrWgIhuGIdRWvP3nF2dma42HHu3cfOOz2UrhNE65yGGfRU2C1bDFGM/QDwzSWDzCX7VC0fymJGUchH4i1inyKBpAAFpU+Oq98GOW/6YAAasW4qivxZOQkRHitpB7JRgZVIUS0MiwWS1zxYqC0PMFTomqtfFhNJc5q5ei9Z9luaFsh3tmqxjYLXl69olq2qEqTlJbu5Nk5x4cD77/7wOFw5PrDe+7v7olRjgSrJK45hZkfbSX6wdriFJwzNYBZRZUCsYhp97sDo78heM0HvaftVjx/k/QPVhcuz/d3wA637+avQ1tVD4MPfV0tWK/XvHrzhv3hHj8dWZ5dEMZeMqhMRjuNyo66ktGzq6zQ1FXNcDygVKaqLc5WAqvIkkFhjObs4pzziw3rzZq3377D+4njcYdzVsK+rCKHzGaznF8ffvI4J/GK4hKXxWdNJmdfwkQEQ5yIGCVAUnIkBS+dxboqTaJYNABIQTiOVE2DrSrGIYg622pMQWuakiYrf7/C+4BS4NqOw2GHGSOVa9icX7BYLdkdDhyHgW69YrU8o2kaxpBwzZLl2RnRGJTT1JVlvz/y/m9+zc37W24+3JByFNf05GnqSnwVMYs4JmbIJRZSzSQpEf7IxpBKTqcqBl5LrS3LxYrLqzfE7Phwu+PhaQvu2j578cnLy/VwSh+x17/+9Wkx6EWzTVEf67pm0bVUjSKmia6tWSwXjP2e4/4BHWT7FIm6aPQk4gecMaimLrnXqlTmWshnp+i+RF3XLJdLPvnsNX6cWG9abm9vWSw6np62PNw/0bUdfd9TNxsO251wDayCrIQTUbjOCcmLlF0jFKiHKJqDH0WlfTiCEii6yomsFVY7SJEpSvyfMhL3p7PYaVMIzKFrMQeZi1Sy07WrBf004bqOTz7/jIvLDcNxi3aWi8WC6cMNKUvKbsyKyXuYPPdPO1zb8fBhy/3DHdv7J4bdkd12xzD2VHWN0ZrlYiGejZROGORc9JqiyVTF0wEzDCUVEVZIYiGIY6TuKn76459x9fyH6HrF68cdf/O3f0eMge3Dww/8y09fV6b9CsByfjEvhpyGvsfk0RpL3dQYp1guNqQ8EtJA7QC/K+5hL2+mmgGaskaNEK7L0+uZjamQScGTTv+YSM1lFtCy3rQ8f35JjJm7uwe891x/uGOzWXPz4ZaXL67Y7/cMR6lHxmlguWjZbbenyn0YBqqqFtNMedtCCPj9KOPzPEFQrJY1tqoJyVMp0UE8PhxpqpraSQam1ZBSLIlzMmyqFy2L9ZLnzQKlNK6yrM/WfP7DH/K0vWeYAsQAWjOlCMlyfXtDTOCnyDDdUrctU8rc3d+z3+4wxXf6eH9P09ZCrwOcdmREzCJAFNkdtLZFSl+sACf9hQh4QhK0kdYN/e7A+dmKy+efsN5coppL6u6Mvh/5+u03hDBc+BBeVUbSN7+fa5hV1fg47H1dV6JWUoncNPSj5DynMFHpRCAyB1lEL2+wthpndFEHKYa+gMCqCqUCJzp7lLm+JLZFEYcoSEmxXC44Hid+8IMfsN9vefnyJY+PTww/HjBaMQ4D0zgxTQNKiaXuw/tvBTcE1I0l+BGK1X8cBpbLpUwSycSkGI8DSmsq56RFbTXTKK5lGU45GifMhaauqOqaZtWSTKbtWhZna3LItIsli2XL5dUltnH4x4iyEt7qKsvl+QXDNDF6z9hP+Cky+czd7T3HaWIcJ3QCnzLBTmijqapaBhl65kB+T5iT4/cAZ+V9Lgxv8QwXxkPKgCZM0FQLSBVxUox9wqQjVdfx4sVLHvdPQDrP8XAO5wYItn/8RyzpnMaQUq1zTF5ZK9+SM5YpRhxJbOZ6diPJBFIkQkakHopTnuM4jCeF8yxgrepaLPOFvwDz35eZJmmceD+Wq6Li6uqiFIOmyMQHMom6cjw+3PP8xRn73RaAm+sb1pszjseRKQScrRiGgUW34NgfOBwPKJU4bg+sVkvCGNkdehbrBWeuxvuey4tzNl3L0Pc8f35Fu1xApbFdQ8wizGnrFu8Di82C1fmaIY7YxnHWnOPK6+/HSYZxUaR5ymqmcRKlUojgZ2SRmGhr1/D9ZN9chEAac3J8zYDSWWyj+YgEVGUxOK0IY8T7zNAnnp527LdHVivHw/2W53VL09S0TUPwYTWMh8+XXaiA0Zrv5xhAUGrK0xjxvSFWkiuhVaatK0KURaC0EFesKuWLUqg8k9HkKZTf9495Q6IZK5kR41TyK7+fSCeGGO9DMdFUTNNYRr+KqCJ1a0thpYE1y3XD1eUV1x+uWa5WtN2C/WFg0dbs+oE0ST2wP+7p+55xkknfarXm5t0NSjkq52gXLU1laNuK1XKJSRL/Z1ctPkfqbsFx7Lk4fyaxxUG6lCpGoh+pQ0Vd6K9+kNjn7AMmg1OK4zSS/YgKEYuida7EAyRJ9zGSVGOckVog5xKANvMrOEG/isZffi1ogZwksRfEfTaG2URkQVts09KG8vmVBpWfJnvoD//y6txvoNlZ1/wjNqRnkond48PE+dU5ypZAU+3AOLQVT4Mho1TEFS6jUqUmKGn1Sil0kH78HLSljIAodBZR6/c2JGZGggScFKiHgUwgJc0wHKjrmiF4UCIuOfQ7urZh8gPrszXtYgE58+rzN6ShZ315ATEyhYlPFp+xvb/HOUc/SSv6j/74DwlePJ1n5xv8NBLjxObyjHQ84lWkWi8ZvSfERH22JKGwpmVZWfr9AZMCOXuUUQJLzR+p9CDhITnLe5ODl0WuNUZlglISYzjnbBRXlVamaD0lyW9Oup0xwWkWxGYQk684xKwzHMYeW3csVy1j9CwWC9quRVcVrk5QjvLaGvZ+ZPe4+8m42b+qF81b+/3828l6rNZmtzuox6eeIYysry5laIUG41CmQltLLmZRsngcNEKPN0oxBmE6yBQyo3VGOyutEm2Ke2neNSIxqnLofARi55yYxiNGayYf0FYzToNIx4cDbeXIBPbHPdpp6qZjmI5YW7G9fU/TdYy7AylF6qZh93gnEQZOUZuaRtcoo1gYgZseDkdRWCnH0/YB4xSmthz9EbQVg0sU7kLjLHdP9yzahsP2iFEJZSD5iEqiCp+V0D5KyGjKSvoKVoFKhJQlTFapj4BQM6f5Ip7OVEi6SIEMgiyaa4kZTaZN8YJmwRnFFDGVIhAxRlE7C1mUXOSENgrn5Op9eNqeT2F6XTP9xfcLSF2lsLRauUXb8fbDt+z9gF0tWbTimcxREFg+BPI0UrsiRs2KpjJUrpLIv1JTuMphrBXYd2VRme/tJFKth/ARHaxOuCVB4enCUKidZkpFCp+htk4USFYcWCFJPVMZS0y+tGYDMU50XcdxOOIK06H3B1wl4lOfPD6NaG1JJmC7luNhT9U5tNP4HNHGMYVAUhpTV1gjZBjX1qKqFtJf4Uwg4eihCGCLcYasQVdYa/DZi2m4xAzMP1JOJxB6zkkGdFluXTllokIYU8qIa0zrUodJsZsIEk2kLSELNvBwPLAfDhyHHes4Ya3gnQWIKiFrPqTucNh9uto809ZcPp+/HzPcf7eJOVST7xlCj8qWECaUaskJfJSGS/AJlaWqNVrT1DVKJ7G8RU+tJS3NGieBmlpjMac3DtTH3CclR8wprkCB1R8jDnP2EmuQDEOI+BCotRHiaYjUdS3nYopEX24mRjFOAtPYH3eiJjYleiAnkgooa1FRFbFuxDjF5AewGdOKzD8bjY+RrA0Yg88R5aVh5YzcVoxWxDjJ61IlvjFK59MoRV3VpKTxHnKU2OUp+III0LM56+PxaeSWRSiFZJ4p9nIkKG0KsoDTmB8UORanmRanWswK5yr2xyO74chLhWR9qkTOMpuBgFK6frx+++rl60+M/dHP/ui0M/wv/89/WD1s75u33/2Sp90Ny4sOrcSmoshkZdDOYasGg6JpK4xCcL05k9ClKCxQcW2EAhcTAY8p+czaanLWpcUcxWiS5amQ7OtcuoPSXk45UTmHUhKRmJKorsNuL+1wa1BZpnXz1dYHL9rKLJO9KfZghOYi/SiFqY0ITqPkQMQgqCMfJjIwSRZ7keXrok1MOGXKB+HJxTupY0CFBCU4zGqDrR02K3IyTENixBcX+DxhLF8jXoyZpjtzLYGCl9TCY9C6KNuF9aRL1JCwLWyZYFaQNT4oVt2KannB2foZyjgh5hY4SkxeYieN0VWTKhi03f36b047w9Pj+83bd79efvXV3xCYePb8GbUVhjJatJBRG7Qxwm/KMtRJQRojw5hwVmGtZFvFLGda9JJ7bedmSZQjoqoqWeUa8VYWx5LAKUzZRfXpylVVQliNOdPUtQR6lkpKiLDCljTlCfXeY9taFEs6YwyluhYndoolhCwEgg/oHMX/MY4o52SukkrIulZF0CvXuzQGchR9Rw4JQkB5Mfg7bVFWoGQhli1dz0k0k0QqFdaELAp5jSnlU/4XZYGIt7Q4opDIKKvktSQMKaaPynXtyCVJOIXM0Hs+/cELVssVKM0c+h5TEkq/ShinctU1Dpbafnv3dl4M1eB3z3ePbxfj8EDIEMYjlZa7a0LOwRgiMYtHMCJZzk7JijZGMU5STceMVMmqtEdR4ARqGaNwpnNO1LVjdkPnLFmYUkH70qPIqChdOm0UlZXAERTUdU30coNRlCeeVK5fghJOMaILz1ppLdZ3V6YOUfzWPpa/Q2fExTojASypXONm5P/cepe4xCAk2mLmFfuG/H6Nwhd3dowTKXkZkiFgjlPnNs+9W7HxxegxxqEKJXYex5fTZIb4F8FsOuF+lLagLDEaspKxv9EZZ6CqZBBjrCVT6jMlY+5x8ErZuobaWt+cyC1V7fK6qag0MpWsjJZIjpwwmeIqno+MstXFiMy9ZKaOgTH0GFvhp1I/aHE+OWcxRfTp/VQKSMmnyEmueEJjEWfynGMhYV6BWolWIWVpZYu/wRQ7f3maUiL4JBY/Y1HOoJ0VP4US44zKkaxFy5BCYSmFhDIWbVyBlRo5yrTGx3mBFdJrKiDPgiK2zgplRhUCvcoFKeSFiZ0CFEiYMQarND4LFb/ESIGSmEGlTOnWGmYyzQwwn1dFPCXuSKt/puCDFhQimqbuCHdH9rstMY2Y7NGmPpmJpMWtUKoyOVHnnBv7bLOZF4P9NnhnbKOcWzL4kdo1xf8vrmyjxKBm55hgNUf/lLt0FsOZUbr4GBPaypVShloOYw1aU9rRJbPJh1I1i+lkho/L0yTbpfCbCk+RTAhSdDrrqJ1oJhTI95BjaW65shDkOjffViKiCQixhK6hMU4KXmPlGBSEjzyPMzkmhiRDrlBg5cZglagLgg4kFUuxJ9c62dbFbifxTJaEFn9okoGZMLZzsfMVh/b3FsOpdCw0OKO0PHxZY0rdQaHRSOxRRWMrsqqIGUkJGAeMG/GTFOMpyfunssNYp0PQLiVf2TY9zv+ei0HTdefq/LLnafcgGP+QOO6PcgwoRZjxMWrOPgCiJLFzQtLIbuKco+1aUoinJ1hpqG2N1jBNieAnEbqePJByJa3rWiz25aoVYywS+gLwKO3alEXXYIwwEyvnCOmfdOvKvVXNeQxl9zFGilyVM9pKWIcu4WoJVaaAJYgtCYS00MoxSvB+Jim5SiKFLzpLXZClv5BVSexzTihvJNI4yvWv2PzmLEuh2ke8LzVT+WBylB3HoMAiju+yS+T5kCn2fOccMRmGkKjalqpdEEOBpKLZ98OpPrHWlTyspHNOyW7v82lnqJoz3aRjfF1rU9+3VI304A/HrVjQxiOT93g/smgVtqqFiJJkK9NYJApQAs3mTCtrxac4n4FKSQ2QksCuQk6lOSU3k1Q8njO9Zc7EliysTFXJeDyEcBrcaA2hPGVSUM1EVQkwmYEfUrlL4IhRBmsqSFFqDWlyIJVEEp3lXDPMC710/+YubE4Jn0vmtiqts9NbCkY7ks3YCC7ApEbpMOokfMiYy2xKHraUBebhtSq2QBEeS535ERpC+beUls6uMvNVPOJjZvRS36zWa5quw1YVKcoOU1UCUfVaiPgp5zbliN1Np7Zwcp21YdDh6AfTrZcsN2u5j+fM2A8iU48zZCJjFg1O6dOqq2qH1hFUICt52nOKZGPLdkbxRUh6jDMGXCUNmhyYafDmJMuT701G1r0ojrQCHMboU8yB0pQ3yUjQqCsonhgL/t+Ugc7MYpYuaD498bK1y6NWKvgsBBjKkYORti+FFIcW3G/MoiNQ2qAKNBxlyuuIEk6iQeBfciglpchJFv0cuCIciLlIzKJCN/a0EIzWaCdhLnLFlFUxz3bmsLbJT4RkSFFLWk8cqZqalAPjMKIUhCAEfx+93DyS6vAhW5qTIzumrMx+v9Nvbz6wXHa8NG9AG6rKkjvYbZ+k1Wkd4Nntj5wtOxLgjEYbgXuosuLm/OicA7NKT8bJYrq1RpfRrcMXL/AcFKbKJFQGX9B2rUz9Sh9BfnVIkIkIZiK59BwUEimILIRSXEpCiywGMiX842P6HOpjtT5nT6gi1Sfr0hEUI670O2RHnOMHE4aopBeBMqXVnkklstkHQRyFEE9Iv4+hsUKIUUkWnE0zUrAsloL8M86U50qaeXNZIbGRYkKuKhHUCBjU4f2AtUAOUsw7xzgNTGGirdtktE5Gm2Rre5LNa4Vx3ie8T+yPRx6ediy7CTL0vWfoB6Yp0LQSeJ7SRD8M1K5mDL1kPLmayhhSmHeMj5NMo+fiLuNTImrNnJPtnCWWN2iecmotzIu+7+kWLVU17yJzaFc6dSKzkl6D1hmVBKaprDnBvmIp0iQLWp5mQxkJ549qIbFhz2+IpN/OMQQyPSmcx1K8aa0wCVRSp/oCRBUdTosgEkMqFwLpGgrsPJ/+f5zjiZRG2e9pGMpi1lafFvWc5CIbWrnVKU5BcspaotLUtWX79IAmFPSyom7agnCWuIWmqZO1am+aLuohBspPbSvbGFOZ2i7QuWKaEo/bI/tDzzROjIOgaayRO3tMsVi4Ej6ODNMgWLppKjmW5YUHX8538VlopM6YpolxHIlRrlSyBZrTmzSfvyklDvsj4zjyMWQs4YNnHEemaWSW7xtjmalrztmSPyn9+9nOl2Isi7NM1ctTLrsEsihiKrd/Sv8in/67VO6ykGxK4CMxeNEpQikKRck9HykoaTUbKzuGD54QQ0EAypRWlbrDOsnskGZcKlwJMfmEMA+uPsY3nXYV5nGHsLq7Rc3vvvw1/+7//d+x222lhlOKcZoY+gk/eax12Vq3A833dwbCELBVpf2QROblOoyykMQTmHMZv5ZgTkmQU/T9AZWTwCS8wSsnMX/6Y0KcKkdEVRsSCaes8I6nCaVq9PchXshC0aUVqwp/cRgGUoosVx0xiaZyChPkRIXDWPnejC1q11k/mJA2rsrl+io7CKUADEGOMWVk8ipHjKTBKK1OU0S5ZpZ5SlaSrZ0DWYGfmdHlljO3mqXFnBkm8YlOXtDIRqvS3pbXmFMu+CNDVRl0VsQgMDISxKAxFijNM10IqjEL+FyMRbKrGQ0xeHaPD7x/94Hv3j2x2rzkz/6jS+m7oOmPfQG6K1O5Zsw5Z3u2PkXTxN/Z6176SUpZZXGmxhjDftvjB0+IE8qUJ0apArcoOUxZANZj8CKGlWqLOSOB+QnMirqqhN2oPgZl4BzzACtGVeDfUJWxbsoBUww749gjcYiTqLWRDmmIksHtcKdzVEUDpqS8WE1KQWqapMkql1Z5wGoFRsLXKEWgnP36+/RH4VCCHDdJEwnSUyhS+1kPynwEKUM/HOn7gZmGG5O8VyaXnM/o5RhQH3sNudx8YlaFjK9O2VVzS15uIulUUM5haqTEOEzstk8cjyMhaf7yr/6Kn/z0D2i7Dcf+QRZSzDRNS9VYDzHa+vyz+WV67b58qpsmtV1rpMkiSN/JHxmnAaNE6ayQF62TxBDJHEEoKNI1C9KTCOk0cfN+kkJxilTWSrevaBFjnIs4ijtL5htyPXUoFU9XLGslpwFkKx6GnrpuSCkyDGLBatuuzEf4XnBo4U1XEiGUS+NsXqhzO+Kkysoll2L+OisZWZffLJkVUoLGUmvIzbPc/8s1GCXzC40wp1wIVNHhi4pbGY2PkzivKMqkrIrOYabIf5TGx5kqi/gmBWImQyvpP4mkUJXv+fz8in5U5Oh5erjn+cvPCcGz3x/Q2pETaeynfrlMwTp3Cj71lam2OSU/jaMxXXfSJhoHrtFYVeOMBH5nE0Wkgi6uHrnzarJQ2bLciRtbkVQCSo62XJBFXxCjVOExlpFs4nA4lEWgy+Sz7BIhlm6dLAhxK8kbZW25KsZEKk0qKe5MuY+XwjRmchCGtNJSkMlMRVq6qYh1UBJMprPkQigJnDol66RccrxRZKNBG2mpxwxacqVUwQs4JxA066zkb1ol70dKp+9LFzyBfB+uFLe51CUSvBbSR8DZNBZtgpabkSrsuZQTOQUiopZCV7x88YLLZ6949foT6soC0phr2xprW6bJp6yUCSFNtm5PHoqpqqt9SnFKqKbve1IuPKLlAl8ZKarSEWNy8felcscNp4xmYwp4s7w4itTbWkHiO2tO3cO6LvAMrQs8M5CSPO1t24CWwNEQPFpnnLVlUhpPCW5t25JzUWF7jyoxBKrAuZhnFnNqXeaE9BV1kZ1/i3yIc9NIlQzw7/X9laLkYiqM5CoXyZpggpQyxIQYYrMixSNzBKEymqmfmCaP9wPjNAl532pq1zDliTkeetY6KF3Y1VH6DlnPR0lpjcVUwlFSIcpJS1+7CqMdi6Zjvez4w5//hMVqw+WzS6I/kHPk8uqCx4cjdeWSrkwOYcpWp5M6egohHK11se06op8IMdC0DVVdMU5OktcmhWAYFUYLtjdGKQ6VSmIENfJEi0hWpo9GyyQtlShjX0wvceYznMQu8t5LyqusdKUybVPTtQ3jNJBSRpeA0bmVOwyjjLitk8ZO2R3m6ENUKk+SHGupLIaMMK/1fF5TrpgRCR/PH7UHEigmabsznR6tsEaCWw0aE0XTkFXEakvvS8xSuTXEEIhTIIZM11VoJXoNiRqQXA15TUl0DeXD1+W25Zz9ntUQoh+k7giSfYUx6FJXXF2sqRcV55slV69fEZJGZcnjqKuaxQqqrk6ofDBGGRs/RgyEuqp6a1xu2pY4d/iMplkt8ZNnmg5EH4k5UmlFzAKxNtac7uLOWeq6lmKxSOalzyBOZ6GY+dKnEEnXOI5Y57BW2s9VVQFitNVaSikpKHOJV65RKjNNEyHGj/dv5vExH+cQOZ0o8wqKZEySbymhJLJhzG/6R3XR3P2X3zDbckQZNSfhlQA7cplPoGVAFpPMEOZftRLqnNEWZRy1cVS2LldwGWVPk2z/KUokQVKFZ6ugrhvqpkaRGf2IQtrVcm6NkC1ZVyilqVxF1Tg2uaNbr1msJJtU3iLFbruj6zoW6zNcXSWjrHZOW/v+cDomUtst9sbanJJI1ofhKMWPAucUllD0iomQdfH1QV1Z6tqcXFLyb6rSHUylwWGI8PFqplS5M0sbdRwHQpAXWNe1jH0DiM5PsiekEyzHwJy33fcD1roTVFMeJLmXl9lwWahzB1euh1YVvUGUK90pQkjNZPh5Qc3dyTmjW67XOueycBDBaxClk1GyQNI8RdSaxlUi6lWKum5ow4wTLD2uuVbJooZ2VljSqmgc5nwNkvz3GIrTK3P6HrSS12GKWVjer4CfJt5+9x3a3ZJUBcYxBTg7u8IZi87kOEUDXlvP6ZjIMeetdnaK0bPfb9lsFky+x08iZctB3rygE/hMbeUfFlfwjOCJhBkiUdq8py5b+TCslfNeKXXKupRGkvz3qq6obVU0DXILWS4aYpoIIWFtLPJ72fKNmZ88YT/PKTQfn+yya+SPX0vDpjSCTgOm+ajKzBYVsngcpWgsWGGlT9T7mBIfw0Jk3J9V6Q9gsc7RtBW9n6itqKwWTUvfDwI385FhnJAMCiG8VK6W11SiHkG0HiS5bWmk/kqnXoqWK68Rvcg4jmR6tK64f3wg2ZqsKpKyXD57QdUupetbOaLPSutUx9hq28xXK2Cn9ZO19jA3TEKYALnH+nGU7hoKKHL3LJW7H0fRE5ZdI8YZGZhPu0QuW5RS8qKtLRO5ch67wn1IpRsoGkmD1g1N3ZRK3yADUDlCoEQIFn1gCMJxUEryLvP3FsLcup1bwrEEoCs9+5jLUTAXlvMyOg2xoriW5sMiSxC8Kt+z1gpi6ZxqiEjEQUas91rL09rv5YzPSYCg/oRRFkGrfL5lvKzlij2OfRmfyw3DFkJM9B5lDHXdok0lx2HpMfigUNWSummYxolutQQt9UZd1TR1i7MOkjLW2Eopl+3KnZ0WQ9/Ex8qZvXPiMpr8KN9czKfENa2dhHTlRI6BRMJYiEG2e2PmsWs6ZTrMP6RRZUuRqE6wCe9FgKq1JkyhtJgnsdRVtVziSkWuVSwZVpmQQhkewTSOxDiLYQwqJ0yZS0jYF+W4mPOcPk4vpRMpe8FcmJZN4RR5eHoNFHh4WcSm9IC1M6RQIhdJxHmQVXjPkoojN5a+H5i8px96+R4RD2VVORKpFJEBHyZ5OEKWK7OKWFVuF35i8pLzZW1DQotqKoj1MCIhZvViQVUv6BZL0A6lpSbTtoiXa6Mq00Stx2C71ydYRz5Tcdu13aNxcoddr86ICaZQoonLE1jG6TLTV8U1lKTiNUpUPeojn/r045TfUIQv0k0Tk2w/9AxD/z23UMYZh7MVMQU0UhyJF1FCzeKQmEbJwJQjtDizsqNSrmRMFnmcNTKfjOIEl10BchbeQ05lwqg0Ommy0aKQ0qJtkCOsyNJzOk1Ai/SlDJkKOSWDMKllAadxEmpblM5CirHA1qULOOsdU2k6jaPIAp11ILU0MUjPIkWJa49eOrTgmKYg73npY1RVTVKWNGRyybHS1mJsU0YJSmoqQGuVssoD9P4fubCbVXOsquYu+sQYBEtX1Q3GGvyYca5C5SA/tWzF5TsiEzF89FMwW+7m/54zPgZI0k0UVLAmRmlGzTVDSkmyoq3DaIMPAR3USU6mlDx9OYtmYfJTycrWp/6F3O1radjoMuFTIrc7xRmn+UMWcUmYrYFFzWxcjakgW12A42VsXGoPpUAlMaukKJ5KY8S/kHPRZhotxmStSOV2hAJtHU2jsCEx+oDVmskLnWZuR9d1g1aaaRgLeD1IHJO1hdlghIWhjdQrSCE55YBxSN2UEylM1K2jcpaoRBYYUpTQE23JOXhd8wjraMfjRxe20lV0VXu3Wqzyze07NfgJ6yzr9RKrM8ccMLoh+ZIrpeQNDSlhTTodCVqpovwpV6TSmnUWKa5iOBVr3nuYpWEld2o+16ZJUlunKZcjQLZ0VylilA9abiPSFp4bPKeYYMRBjhGpukAXlBhuchHh5niKC0oxQDb4GPF5pJmhHzIFKtfPdPrAUkwndbZ8GDLcskajs9j2/DThg4g1qqYm5gltMjoqlInoWK6yxhRtYqBtO0LwDNOR6D1N09A2jTxYShFCFg9ILnaCmKSWKzMN7wM5KUYf6JoFTVOVEYLEMIYQGKaBiMJo56vKbGEZbfVRHQ3Acnn29OzFy3F7uG+6RtjP3WJB7Rw6R3ZPXtLn1fykfqzblZJmlGRImtIwmcixRO1pEYMao0+hpeM0Mo6jvOC2lduBNuXPZ9JQEu0yZOR6hioso6Jt8CEU5ZMMwLTKRTeoiq/QFm2KFHE5IkOl8tnOWgjlRBntg/Atkyp5ElmfaofE7NUQ631KckRIe1qOH23Edqi0JR8pGd41KRumKUIe8VFS6qRXkTFKZi6i/RS4+NPTE5UTiLrSMikd+gFtKrnBWVlwcmwEsjYY7YgZvE9EFHW3QhvZTTLxlJMRkieP4Kp0iHE1hHDMdn/ov78WgtGpv3z27Pi4fdb4snXJGaRo247+sMX3EQxF5WzKuL5YxpTCVaU1mzNa18R0kIMkiuPJnV4ghFgYSorStnYyu3AO6+RJH8djGYPrMpOQwtSHIHlTlKEOyPYMIosPUbwCOSPsiLJzaV3cyEoU0lk4CLPmsmrkLJcBlCo9AyHazdHDChk9ayvoPZsV2Qein6TAi1FqnTJ1DUjbGA1Zizk25UxS8aR/UEo0oMMwEIJAP9umoes6tDHEKTKOnmbRnApOuQCpcqUV+/3oA8M0sTi/ou7EOa6yPBRO249zleSJwY5KsZ+mG+z9zd33F8PYVc2wXq/6zfqC/WEnTijtoJJWrlLi4zNFdGGtljgCn5nCRFIR4zRVVRTMCrCyK0QvFn7nHK4qRphUn8754IuyRyky0s2cptKPV1KgaWsLIb5c4+SKU5LppC6xM/dBaVKJMpTrsv54Qyj39Kzle89KFgTzTmcVBtFepCzbN/MCU+AQX4apDSZD6j1jCIRplA83JMbJkwt+0BeBj8zBRHhDCSrxfpShVuUkuyJFjNU821xijRialVJEpamaFlc5mkYWhI8etKVuGmKUa2z0ULVLNpsr6naB0rakBgmpTqUS7aogBp1Sap6Wyxp7dmrlys4QTbNfL86Om/UlMWSsadBK2E3G1lhbobVQ2UKhns2t2xA8MU64qggxsqaqK5QFsuj+Qs7Up2GSJLxIgeolw9l7jBMJ+jBI0ykW9L7AKxJGS+s6BDGhWmvkQ80wBgGSu6oSLUIuKfNJ6oUMJC3zlaylfhGPhTSLQilkYxZLIVZLoy164S+kTFvVZDIiEwFKQezHqaipSv8lTKRo8ENg6AdgJreF7wlcyms2st3nLMGo1kkkgdKK0U+0dYPSgvyrK1OsBgMxZSprxTKHJmcjkUebS9bnF9iqIWPI2FOPRRuh6WVtiMmEnJsnpc6y1evuHy2GYXd4qpvF0NSL7Nxe5WSIWTR5Vd3RdAuGY8t2e4QgtjlTNHvGVGhd0mDJInY1YnAZQyhdydK4UWXiV1Z+r2b5WiJFCGXWIVVvqfCNxRohk1hjyJXUKhKYbgkpESbPGAMmO3SWwlBS7WXKSLmVZK0Rr69BG3dqSAFivVOyzVuc9DeidGCVEg2CQhGmgImQJ880ldrIysxFlFgSaxhTYugHrK0JITCOMrUEuW4aI8dbub/KDMNY8hQYyxxkZOTkniIzjj3THINYFnzC4Ooa6zqWyzOMaUilK6+U6B6NQljXKaOMydaYrbXsgGwnvfr+Ykg657ts/FDVjcCysyIGacEaU9F0a+r2yCJG4rgjhB6yQxmobEvloGlsSVrTJB/FIJuFUgLi+YtJeASyO7hyVMjIUugtoqSqG0uMIquvaolINHPTSos5xTphUZoSMm6NQTupQ5SRkHRp2gi5RAI+lDzbZWyMlp5Azr7ML8zpSdVlAUqTSRpYMkwqISFJ+g45f5SpBe/JFHs+mcViwX7by3AtSZaXeCo/uq+ldyMkl/n627hajhgf0CZjdGYoWlSM2CCnAGiFq1tcs6JbXaBMzeil14GSIeF8TKSURcWudKgq965t6XN+xFr1jxZDHqvj4zROe1u1ua4b5aqGnKVbOEVLTIZ2saFpKnaPmrEvqzsntCu7RKZ04wIYyXzORVmqKO1kJcojyZkYBQZalE0Saj6hdUUuYDBFLslwqRhhQnnaZdHJcSG1gq3s6WulFdo5OfdVLAnHxa2kLbk0j2ZwVkJ4C7MMPZfrsbEKbRp0ksU9q7OUkhvGnHYfYiBMQTgWU5AbxODxY0BpEfLkGKUoT6nUtIVrdSKylA9QG0gKVYLKUBEf5IGyrsLYiowlZYcxHa7ZULUr6m6NtvX3PKLzzavkjhfjsTUqO2dvUXL3tWdn/2gxcBMenvJw2KFsqupGO1cXJ4/G1hXxCDFrjG1pF2eklBiGLYTAYqlQeKY0kqLHlCieFCLauZKgKw2SuXkyjgNKyVxDjCRCgYspCzwjS70x5URT1ydW8mKxIIYg9JVpwjkr9Yn5CBXTRhandUbCUJMWcqqSNjjaFAXz94S7SssiSZ5U+hoR0HrOrE2l6ZRRST6kkEJxmstCEcuDZugnHp92pCQf8OTlNVbWEYtmQ+k5LxepJ5QcoaK40ScZIGneDSqscWjnULomJIc2LVWzxjUbbL0iZUNISM2DPl19YwxkNFUZsKmUskb3xHqCj3kTp52hdYvtPtzc7A9PIalsQzn7EiJcrZqWyY/4EKlqQfnv9wfSlDEefByI0x6ip64q6ij5Ea1SEMR+LwZeKdYE9SdOKfEPSDKNVcXvED1EGYX7aSLL9iZPPsA4MIVAFQM6FMVUkg6gc46qdaQh4kHu21qqaJn6ycQxk8XlVHgSEopuiDmKTC3CzJ8SflWZemaYoieFSa5pPmBwIjEoPlU/BcKUqNsOshhxnXMEP4nnUTY36VckWXSpFLApjXLGq0zW4tvEKJR1ROVI2aFtR7d6hqvWOLdA6YaYpDDVVhd4KyjryCGSVCw5IQmtdUbrntyOAHbaP/2j1VAZe4w53AzjlIb+SF3JUyvnlifHjKtqphTpfQTtqNs11I6Q9yLvTppQtkWQ4Yk0Yb4P9bJUtSvXVVkM3o8oRIY2MxTrypGzhZ7y98mWOgxD0T3Ik+4nT4gisZ/8hK0cbduQsoSbozVN15IrJ6lxSAcyx4+eg1x6CIlZIzlv2TIxFSX2PAPVpOSh8BmKee80JVeAsxUXF5dMg2d/kJiD6TgQYmE7JNlFJB89A6Z4OWXWoJWSW1ISOb6yxcUdNUo76nrFYvWM5eY56E52NBkKFN9mhhTET1la/i5bMgnrDJWz2TkTQx4TgE1G/5PNgZBV2mulQwwBP44cj3tB4fip8A98Cd7UHMeArTtikKmZSoL3Szrgo1BWjY7Ywngeh4FpGtDWsF6vZGBlwIdB2sNa3EcpSZ2gdQ1oXC1ytpN5pExEZ1VUzomxHxiKjF7EL5Q2s2ztuQhMEpls5T48E+pFwqBPKASj5MahkGGcEg6hzEVKMwqlscpgXE2ss1BegsZhcS7RNpLl2TWCKxj9KKTbKUGO0vyxYg0gy9U5R6G3GCeHR8rSq9G2IilFTJZsWpxaUrcXLNbPcW6FrqS5NAVRjqOU7FBKmnWCSZKDIOc0U2+UUbQ2BQ1gtfmnJwUxhnBwTg85xfU0jYzjQNe1qByZyrTNT3Kf165hGnuUbnFGoXJNzpIfHVMA07BetYgTUSRuT09PJ07Der3BaMPRB6bkMdFSlSxtqSMKQ7JU2LZ8v0qLy9pqw3E40nUS6OWMQ1vJbKpdQyafZhbEDCFgdDqZUZRS5BmWqT+6ro2Vwc4JuRdlKptzOWaI0n1kgbWRmC1TPEqTTSlaV0PWTFNiGAaapsZHj7OGui6jyARKSVveT9IYy8WrkXMilgWnS3a2Ug6SxdgNVXOOdkuyakg4tHJyVSdDDmgrfQttLE3VELPMKyiziUlN1CHqOMUr6twAW+tc/U8Xw5RCfPR+6udxsxR00l0Teru0c4fjhFYWZZriH5TYPnQmEUn5wH6AutF0TYXWmbYL7Ha7MmEUl5QrLWhrLG0l8xBnNSlPJ59ECAHr3EmjEJMUmf04MAwjbdvStB1KD1jnaFsRb4QgDEkBZySx36eMKbpIbW05HlSBln5UL+hyHMzTypij/BkA5eT8RiRxmETSWrw3WaGtwgZFNorkHOM0Yaym0g3aSaocXgJQpoDsClkWgxBdyu1CW9AVWVkyLc51aCs/o3Icjj3tsiKHIP2Q4mPRpji3VUVVN8QYCglHOrMhBWIMxkf/bExxA1zbeeV/74fPSd/HmPpQBiaHQ08To+RcjoM4nFD4kLAK6XDlxOil5x2DYQw1U99zOE54v2e9qNisO+qq4/mLlxwOB47HHmutKJqNpjUtbVNTVVJsaV0R03S6+xstDZ/gxdyDksSVXFrjdV2JGlsLHW12c6mswcyKq/IzCvNaBjjlSpckokApuf+LyhqyFohHDNIDMVYmmwaFUiJiCTkQZIXilCvT1EBdWTHcHDOuctisyeN4KoL9FPF+JISMsUU6kzQxG4wWbOBwFHSAMlA1FlJmyiN6yjTdhFeZNkWsq2UwZzNOW3wQMbFz8aQZzVla99pYck6699MzNQwX8M9vEwBJ6/pRG73LIdF7z+FwQCsRY84pcxQnT4jSb8/Fcp5zJnsYvWYYHX7sOfaBQx+IuWLRQuUamqVjGvaytdUOk8oHbDLaJIxyoDJ+nEr7OZ58GLNGYjbQyjk4q5gEYzxMgyiwYypCjsI1MBJOMmsYSQG0I8V4EvPOIthIqTnQH7uCgCoxTMoYIb0Z9bGPMrf4NKgSTeBUoqkt+MQ4hfJQjWS0xAeNExlph2vdYk3F5DPeG2JWPO0HojfoCpquJqQR9JGma2jHlupwpG731PUC6yxaS/qOLld7lNRucsMSN5tQYpLyYbowxp8tlz/Cfv2rv/hnq2HRVY83T+pRG5tUzjoVN4/I1CwhJFIK0l0kF92/OIRiQQGmaMmqYYpjIZQkxvGBrrOcr2rWmwpbLXCNLfQQQFHiBWHZGULpfFonY+uUUwk3V0UfaAVEmmVW7wvkIRfiinCgPlrkEkaOg6wISctWbMSur60rr0sWk8ryFMUsxhQiJ/GJLz2RGMNJg+Eqh+kSYfTYgt9TQZ9uJnXt6P2Rw+HA/nDAeyFLeS8TVeMaUA6VHN47xiGwPx4JSRNixieFywpMxIeIdqLR8CmQVaaqjrTNUEh4mcWipW07iS0odUJTVTSNobG1FJvTiKNeDvvhzXKJtcqFf7YYgO00Dk+JnKwxuqqq0gcQJXSMnhAS0ySMaDHFBCIRlcAHIZaAQ5kl0Y8MU+bYH7m7f2K3aVnvDItGcXm5ZLmoGTy0bYfSmtF77CSAsZC09B20PVXK2miskSGVcxIjMI4Ddd3gnKNuaqyrSElG3LM9LkubkVSENeSEzkZ8oHXDYRTTsCn7jTqRO2Shp5wIOWKSlvoheLmVIDynpDJoCD7ii59zCpEwCVpnuz2w2+/l4ckIWyJrqrojJMdh54lhZL/fs9+PwqtOVthMTVsEPQ5bidZDKSU3PBQpTUzjTkBiVWkwpWLGNVJoj3nCGIeriuEmQ/DRHfbjiytybY8+/77FcPQTPnpPt+yo6xZrBdEbi+Hj+5CJGSMTY5CeQhT59zQGMXcqzeAnFEtUtrz98Mh2bzhbW7b7ieVywfPLC/aHIyFFurrmOAjJVO74iap2OAsqQQ4ltMs59DTJhz07jmxFXQvDKOeAjxP5hAaAqCACFHWUjwIsNVbQf8pUoKKoo5JU9hpdbHUFNYTsWEkpog/oJLULOcmHIC1LcjYC6kia7W5gmjJNuyQNo2CDY+B4HIR/MYxcv3/icBzZHydCAFc3ONfSZcfu+MT5xTOJSFQJTGLyopY2xcHu/UgOCpNEAhBiYpMz1mnaupEc7QJArZuapBU+BWdU7lLK1vre/L7FMLlKb+umSU27pKlbrLNMUxSVUJlViDavACRyPq3ElCM+TrimYTgK7idFQfrdXR9IYeKw1Hzz9XuuLjb46YY3r3bUdWa5clxdLmm7mslGrJMXNsVI1zpsY2GaMKbCFpHMYrGQHcE50QSisDLqpCrG4ljYDKgsAzSZpEmWRtcKTc7J9SwVOxzkEvGTT3MDqxRWSVfSYMlBPA05KsgG59qSQx2Y/IEY5Vj1XoCd/TASs+Xp6cjdw47tvme3nRiOgfu7Iz4qsdwpTRUUVZVJSvIiQozs9ntCCpgqF11DLTeTOIuBhbcl1gGPyglrkHhmK0em9xOuatC6QqGNs1aFMGS74vfuDH7btLcpptQuFjTtAqVS4UIblE4i/EixuKQLUyBnlDL0R0EFDkPP/f0jPgLJ8u7tDd1iQcqZL7/6FqMGvvn6hrqqePfunhfP1nRtxYfzHZtNxdnZhuXCUreaGEdWn19ircK5hqZq8FOg7YTRWNU1xlRkNIdpQKckEcamyJVjwFSiyBbUCMUdLpNS5Qzk7x13Cg7HPda01Iuq9JsyVmsqVTHFkRQSlavJSZJ6TK6orGWKgSmMKL2EHLn+cM3btzc8brfc3T6y6wf6Y2Z3GDn0A4d9IHojtzIlanHrDClnjsPAFDMrZbi9u6NuG0Ka6JYVZjKMfqKu/akBp6xQcbSSKOpx7On7mu1WiuOqSmjt6BZC4MkoXTmd+34bbK//2dUSIGq93DVNDs5WuLohTEOZAuoyq8mnSd0crwNaTKlBKnGlDa8/fUMIULsFZ//6CmcqfBg57G755d//BcTIt9/8jvuHkYeHt7x6/Zy37x+5umqx7pbNqqFpFVdXZwR/zRdfvCGkRHPZ4Wq5DSwWC3F9u47DYUArmbS6pibGEW3lzq2U+pjomaCqHLvDgbbrQBlCLICwqNApUinH+XKNTwISzUpjkhGUEQ5jWwgJq1q6yhFD5PFhx9hPjEPk9nrL9fsb3r+75svffst2u+Pu6cgwCZZv9IJVNrrFZ6iMBLtEFSSmQctuFlJku93SLCReSTvFFDSucdihou0mnLakGKhqKyIcSgaIUhwPezH9JMV6ralcI1fyyhOTInivG52yPfrp9y0GjDWDiTYYbWQ6F6TFeco/iPFkhgXKDpGkAdQtQBm++OGPqGrLxcUVbbvg9uaJ1WKDawx/+1f/gf/0//BfYFH89te/4a/+4i8Zjkd+8YtvefZsQ8pimPmHX31NXcFy2bDoGs7Of8Gia/jkk1c0neVP/8XPeXd3x2c//QH9w5YYLYvFiuPxgG3PSMd7lNL4aQANTd0WVdBITprKQtusRUDqA4vFksNhxzgcuFw8w2bN7nHL+dUVWSmO+5EwjVhT48fEcBzx44F+3/P+7TuGfuTdd9c83j2xfTxyd/vAYX/k/fsdKSHh6ckCUp/Io1iRTSBpS1JFel8ZQQWamoxBGYP3YlpKPqCGhN7DerUhhVDU04FpVLjKchgHjmpHU7fUTc14HPGTqLrE/9JQtRmo0GpsFtlru1mvf+9iuLvvc0zKoxVT2QE0mrqtiYdS1esiF8u67BCJ5XKNczXL9YblekNbN/zs53/Ew8M9f/7n/4Evv3rLbvvI5A84BT/76R/wkz/4Q842z/ju6+/43/+3/4XtzmNMDTmyP2be7R7ouobjYYcPgfPNgmk48sUPP+H/9d/+D7x8/pKrZ7+kaS3Pn78gxsTF1RXvPzyxWFeszxZcX+/57PM37HYTWls2V1dcf3jP+dlzNIbDdsd6fYFzLcN+z4vLT+l3B47HA+vuiuEh0w8DIUe++vVXbLcHto8D0Suu39/y9PTEYXdkvzvw4e01lW3xk2e/E/5ERjGl4gl1LTErSIaoLCFkfJLEnZwHnE2oyeNjQllQyrHbH3F1DToR4ijNJyAHzWrREaYgV3ASKfsSWm+om5a2XWIuLfYokYhaG6zrCEnhaouxpnKmUfYHX/zB71sL6ubDO20tAQTBTxGZWGOpayfjXIU4m6K0lY3RdG3L+fkzlKs5HntShKftkfPzZxjr+N///N9z/eGa2ikuzs959uwFOWmunr0kBcWPfvxTfvGLv+Mm7EhpoqoMITgOvWLyNYqGmxtP17b8xZ//Fusyl2d3XN/c8qOffELfb7m8uqLtFgzjwCefvmQYDnz26Wv+5//f31DVDVeXlzRNxZvPXvGbX/yS/eGRzeqcp/1e7BXG8TeHv+Pp8Y7V4ozt9ol+iDhd8/W7b3j/7gPTEBmGkbvbHU29ousW3NzcFY7CmilqjkOkac8ZRlE3jSERJ0XaH6SnYAwJT0iKkLwEncQRY6CphauttLirpxBJ+x11a8EkjkPk4vwSP3oGPdIZzZgiMU6yWGrHZrXGOUPTODZna55dPef99TV3d3fYqubcVGgbFDGrbvEi2fcfrn/vzqBCMHJmJfEhGFXudSLTqusKY1VxRmWOx0iIieN4oH8/EaJiuz+KnjEo/vRP/4R/85//F9w/7Pkf/sf/CasMV5cbHh73dFXHh/GDrObKcewHbr7+gNaR1WrJbr/l7OwMP0WMsiy6M7bbA7U7AxV4/2FLu3jG3//9e5TJfPvdgeADy9WCP//zX9DWjhD/mtH3vH59hZ96rq6u6JYN77/7hna5pm0N795+4MWz5xy3B4bDHm1WMoRTI4tuw/bpwDgGtLEch0BdaxQVzjRMo2O9eiH9isNRZH9G8bA7Yoxj9JnD4BmHwofMEW0/spqyyvhiJWhbwRdkZeiaBqUUzaLBmES7aMg6oBI0dcdqtaJ2jqZxYvZRghTcbFa8evmcthPz7YsXr2m7BQ9PT9ze3dCtl9R1x8LVKiafgYUdJ/97C0jXJh2G5JTIo4iiNZMFUWoEpzVKuaLu1Wz3O/zTE/ePO7ZPRx63e+qq4+bmjvOzNX/0L/+Y//Lf/h9ZLZd8+Zvfsd0+8Ktf/opf//IX/Kt/+cd8ePuO3/z6t2y3Tzw9bTFGcX9/QBuYxkCImcrW3N/tsdawXjlC7Mk583S8o+06Ft2SHOWDapuWpr5gt7/j8WGHdfDrX95SN/Du7YFxgOcvNF99daTrwFi4f/cWIpytNe/eP7LooKrh/voJV0FXLWUBLxupGyZIyaHNQlDFVUunG/pDz+gPHAZBJ8cIWVckRFIvekq5NgvsRLSjXVfRLYQ/UVc17WJN07Y0TctiVYHKtF2Nsw6nK0kmVpqQBPoZ00jb1VxcnPPmzWuePX/O7f09fgzsDjsw0pA6HA5cXSVSnnTSUcforSX+3g6ktsZ0mtykGJi8WPNzFtZhSrEMdIrKWWXqtqIeBGu/2+/4+1/+Eu/h8uo5q9WKYTrSH564fPaGl8/O+M0vf8G/++//e26v3xJ85td//0uchcN+x9APGEPhPYCfYNSBlDPeZ6JPLLtatuGm5vzykt1hh0Lz8vWnNM0ClRJawXA80I8eY3tIUNdSYfeDZ9kqhkNitTQQI/4AtRHknveKs7WgdYdBfKEqWyafqeqWySeGaSJGTTYj9UJz7EcCA4vlktiP2KZlgeL+acs0Baq6op8GmXZmEc8YLZhlbTN1Y7EVsogXDcZZNpsN680Zi65jtWlxlWG9WpJR5QaRMdoQ08TTbsuqXfLwdMfrtsW6mqEfyGiGScy/MYm/8+H+jk8+/ZRM0MaoOsYJ6/un37cYuhD0OpNq7yOSXpJKmIYXP0AKJ47yWIJEzi/OMfsDw9Dz8HRP8IK7y599yi9/+UtePH/O+N03rBYtX3/1K95++yX3dxL2dXja88mrJYqAtSK3b2rFFLLwHoyRkLAxl8SbkXbh+OFPfsZ/9m/+DfvDnu++fSsyfG3w08S4P3Bz98DT45ZhCLS1O5l0jIm42hKmSbqmk6joc5L7d4gZ52qMFQiXc5VI2DI0Xcv+cCwdRE/QisV4znHs2fU7tvsdddNw9fIFU4hE/YGHuwf6YZS2eGlvWKfKcSFEu8M+sHF1EQFnmraTgZO1nF9dEFIvxwSR4zAJUilmLs/PWazWLNdrYvK4pmH7dMS6Jy4vz2mqFt9mQNM0AeMcIWcen/YYu1AxWZtzwF4+X/y+xbC4/9XtWiurlYr4aSIET86RlGUekVIkxTmiSEJAjVLSNq5MKTAV0zTx7XffsFouub25ZtW11M5yfrHk88+ek8N7Ugw8u1jQtYpFt5KA85LJlLPBzy1zDcf9wKJzgKZqFvzH/9m/4d/+n/4v3Fx/4L/+r/8b3n73LdPQE2Pk9v17jocdSgm32VrDYT+wXDiqyjAcJ1ZLkaJbq6hrJ5J+lUlzJzBDu+iYRolOzAoGP1C1FXGcUNZzHHtu7m/oliuenvZcXJ0z+IAOnqZqWW/OeHjYMsUJbRVC5w8YMwPYU1FgQ9s4FquW1WpDt9ywPjtnudpQVTUuRx4f73h4eODx8QDAF1/8EOMcWTsuLs4kw1wrHu5u0VazWF1Q1RXGLRimiYtLx/3DIzHBOCV2O89uN6xjVtmO++H3Lgad1cJWFZlAnDwpR1IMxJIOA8JhMMaKTW0SfL2fRuqmomtblDL85Mc/4sWLV6zXKzarNaTEr3/zK6yxvH75kq420u5WAcXE2B/o6obKgJ8ydbNgnCL94BnHnrNNS/CexbLj2fPnvHz5iofHJ/7n//V/5Re//gdurz/Q93u6uqU/7nHO0LUdzioap6mrisWiEXONn1gsakJKVJYCD3NFByEC2jAFXF3T92MZ+ghx9nA4smwaojJsDwO744FdL671/fHI/jiQs6K2osDqp8DkI0ZDU2mcM2AS1iXQic2qpqosy/WKs/Mz2nbJ5vyc9dmlBLupjK1q/vZvv+RpK9mcn372OZcXl9iqIYbIbt8z+UjbNlxcvWK5WnB2ds4YJg79k6i+TCpqbcM4ZKxNKfgwKXy0+8PvXQyNrd3CVVl5L8R2Wxn8GMpsQo4Ha8Qal2vpi/soQO26qqiMYbU54yc/+iE//PFPeP78JVZbvvryt1xeXvLLv/97vI9cXlyx6FpU9lQ2Mxwf6A97WrfgOAS0siwXC27v7gmTeCJtXcgjVvP3v/glv/rqt/zlX/4lh+OOTOLs/IzlooPzFVXl6OpZrJJZtBU5RtbtkuNwlKxNDXUtQlytEfVTBusqwhRQxjAO5SHQIuw5Ho8MY2R5njgfPLtdL+PoHDn0Rx6fdoxjxk9PNJUgharK4ipNTh6jFdZK0Vo3ls1myXq9FtqrNXTLjm65YrFYsFovWC+XjOOOq4uXKPVI3TUli6smZ81uv+P69oGLiwuurgyuWlC5Bda29GOmcgtCkMQg6xY8Pm3ZbBzL5TKuN8vfOtuMNlW/d1BlTWCVs8o5R7QFqxwpepGQF27iTGwLIRCiaBsq5zhbrfjBZ58y+sDxsGXsD9zd3tLUDYvlgvXmjCkEhsnzze/ecfXsgs2645NXz1ksatzVyHg8cDiOpFyRsyXGnsEf6PsJH8CSOQ5Hbu6u2R12vPvwFucsn33+KXXtaKqKrqklc9IknDZirk2J2tVU2rBYn4HOKB2pW2EY+DBRtRVWWbIqQJBh5OyqJivoDz0ZxXKzEYNMyBx7T06Kx6cnDocD253UKFpHtBpJCerKsOoWKJ0Y+oC1Gedgte44v1hxcX7JYr3Eh4xz80JY0i1WvHz1itVyIUQ30/IXf/mX+BAYB8/j047nVcM4itJqsTjjxYtP6BYrQvDs9gNKO2KasLZluarZnD0j4ajbhvOL8/7y8vLW2sVk20b9s5XgvbZex2XOWcksXEMU+5sQeGUBZTXnKkgEMVmsZKuu5T/5T/6Mr795z9P2nr/4839P1234yU9+wmK5pG0W/OQnP+P6+o6kDL/69ZecnW+4f3jgxz/4jM2i4eKqZdH3+JAZPDzT55i24vr6gd1uJESPDyMPj3doY1h0NdpoFsuO1WqB1VogFaklq4gzRjQJQQAWKisaW5c6yMuWXVmM98JOqlsBeadIrUusDxnjao6DTE1zVlifsVXmeBxYb5Y0XSUoATT3D088hERV1VitsY2jtoq2VjiX6FrH1dUFl1dnNF0n/Ezj0KqiWyzpViteffI5l1fPeHZ5jghmHZGK+/t7pjHwySevcVVFVa0wzvKzP/hDXr56hVKafhp4uH9g+7jjeDwQo7i7V+s14yTygrquR1c1g4j7/vkPnVJwRtEmnXUGdNKSsFIoLBmxqBsnujpTOZwXf8RhGDCIaOT1yxd8/c23PD0duf5wS11XPHv2Amsq+uPI+dkV18tbPtzc8ruv77i9feDuYcurFxd8+vKMZ2ctVS2YPd04lhfnXFxccf9w4O7piXHoubm9EQud0nRdS9e1UoEr0FbjnMAvdBbhSdU0xKRpmoVQ57TBD7FEGTiUFXPNlIUdsVosGSeZG8QYcHWDSRqtK0JIZJ0wBupGmBKjHyCL5XAaPft9j3OWrmlZrVqcyXTNmrrWrJYdq1VH29UkLfrxyliiMoRk0PWSenHGizef8eziAqUVz1684dUnP2YaJ8435wIOy4F+6Mk5sVquWSxX4lndw2K5ZrvreXrc48PIxcUG30+CRbBW5H7GHqCP1vxzqbwyZmhSZZTKCa0cwfsT1k8pVVJdyjWs0Nt0hkO/p2lbno49x+OOcfBopYh+xBjNw/09xjiqqhMRRz9iXMMwScBW2CdG/8iHmyduHy5482rDF1+8ZrmouTpfkHHs1yMXLxTPjz03H264ub9HAZcXlywXC1bL5UeTrNVoKxHNZEmEIytSgISMf7um5hgiOiR8VaisWuGwDD6Q9hMoCfjKKI5TQtsarWusziQ82ipcVXHoexbOEXymrXtW6zX7w5GcFZdXFzy7WGN0EulZ7aicNJsmX1zbKqH6QMyWZrVk+O6O9WbLp59lMDXL1RrQtIsLqroVw40ROPhw2AGSZ1HXVaHZiNZxsz7DTxNP2wecq1isluSjkGwr12hrTA8p2HGM/3QxZGtNpXExhoSPME1jYTbP6SwKZeSNlQGVZpq8iDzIoA27w4H+OLDdHYVEkiRLuu8HbLVksd6w3lxwfX2Htg0qDEQywyQWs6++u+PD04GdT/zH//qP+eLHP0Ohedr1pCyBXD54+mPPX/7lX5JzYr1c0dYN2mqqqgElHKWEOL5z1oy9RxvLdrfDGEXImkPvxRHVD2SVaRdLJEO3IWRL23QCGtM1h35H23QslmuJV64y4+AJUy9b8/HIYrFEZwGbgASOvnjxkvWqQTORc8AZzRAmhmPPMMlgyftIHxI+1WzyhlVu+XB9x3ffXXN1+ZK6jrjKUTVrUgxobZnT9JrFGdEf0daX/NCJcZzouhayovnkDefHNX3fY7ylH8ei44xuCKHtqLAvX/7wny2G29svs9Hax5zw08g4jSUZRgJMP6axJnEaixsEYy2+EM2Mcfh4JATPse9RGIZxYJUyzy4vWS7W9L3nu7cf6FZn+HjP0I9kpyBk9gPs/ED7/pE/iTXLs5e8fvUclDiQKltTNy0qS8PmP/yHvygUOY9KhuWypl0uCYUHNQ4jWjmWK8PD3T3OtZJmGxLd6pz9bsf+MFC3FWE/gYq0bUvbVjxuR2kZ50RIjmHMND5T1QtI0FQQ05IcPcvFimmc2G8PrFZnvHrlWS3O6LpFCVCJjMOOod8z9JnDkDkePD5FYkr0HgIKrx9pF2c8PG25f3jiw4dbXNWwMnWp3aqiFA9kJSEDxlUwZYF6qEzXNQAFDFZRNxW73Zb7+3tsMSGF6M14OGhW1e+tGXJOQwgpZu8nQpRx9ZzJYPXHhFsoNLPJoxCzqPAQLLrI4mQQk5mmgcNhz4sXMm+vmwWbzRlnZ5fkbHBuQcyFOqsjXatxNjKMme/e3fG493zRbnj54gVdtxDhRrOAyXNxecV2u8VVFf7dNS9fveaHP3rGz37+c/6//9P/yM3NHWSFHzN9f8TI7kzKntVyxaHv2T7tAPju/Vsg0yyWpJhECBICVhuurq5Yb855eNwxDJ7D4UhdV/zwix/wp3/6r3n57Iqmafjw/gN/+zd/y8PDEyjFy1evsbZit9uhFYxD5DDsOOwD+z5wPEa2h6MIdJqlANqPsqDqquHm9pZ3Hz5w9fwFiwWFVDsHwhnZ1WbQh5PYQp01TbtkBgBLjoe014GCDXRYq7NWygDRXl//w+9ZD8aHaVQhikTeOSc9hQLWzllMsSmWEI5yxTRooi7ga+cwxtA0DcYe8SHRtrV4I5ViuVyyXC64uLykqYXyFneZ6D2LxRJjo8w8XMuxjwxT5nE3UjdHFqtzAXcow9H3PHv2gslHtK44O1tjbM1iscZHePf2lr/+K+lp3N/fs14tZcwbAheXZxz3e4lmLBCLvj+ilMZ1R4ZhRGvDMPRUtqEfAp/rBqUMw5T4xS/+AWctu92OTz/9jD/82c9YdB2/+903/P0vfsnvfvc1F+cXjH7E1S1kTT9N7PvEw6MX2dthYhgjh2MkaU2lpU3dH3seHh5omobd/sBx6Nke9rx4/lKe2CSfw8y7giiwLy1hsySBhbRtg3OCVby5+XAKfTNWlOVKuVjXzgDZ/uAHf/TPlsJXX/7Kk/ZKK52lTheNvil6wlCCthSquHTKSFYVFmIRZmIMVVPTLTq6xZLXb97wox//gE/evMFHWC0XXJxt+PnP/oB37z8wTSNRK+qqkbgBp2jbGo3kXo5T5rdffUfOllcvX9DWFd1izc9+/of8V//V/422rVlvLrDO8ZvffsX7mwf+4Vdf8c3XH8oNwzD5wHa7ZbPesN8N7PZHmrYRx3fd8cknXzAMnsfdI1oJOGSx2HA4HLm7e8Tat5xvzqnrijeffs5vf/1rfvnL33Bz/d8wjiOb9Yq/+5u/5e379yhlWCzWWOfISC54mjxPh4H7h57dvidEUTlrXWHrRpjOzuKTZ7/f8fTU8vh4z4fray4vL1iv1mwWa+n+ankQYxbW1AwdB8pu7LHWUFUNRhu6bsmHDx84Ho/ig6ksxrqUc9Qg0Zf/9IeqlPJTlob+DAGXcyefEmBS4pShJP+66B1kwi2yuH6UoBBbOZqq4dnzZ5xfnmOdiL2cM6xWS/7FH/0c4yTzaff0RFU35UU4bCVds5sP96xXa3a7HQ/3O/7sXzk2mxXPnl3y8z/+E37wo58wDCNn5+f89V/9Nf/w66/467/6O25vHplC4tnLc6lvkpejCdicnUljKSeuLs740U9+yg9/8AM+3Nzyy1/+A9vtTnyjBTAeY+Tdu2vubx548fIlMXk2Zxdsnx7p+5H/9v/x3/Fnf/anGFfx8tUbXjx/Qdd1LJdrkd7FzM3dPff3D/TeE7MmIbxJ17S4qsJZ2U1b03IcjhyPR66vr1kul2zWa0KIvHr+kouLK9GVOFdqEUEuGiMUmqwNow+4qiKkJCqtIBPqvu+p2kbk/jGYhOogG3vs7//ZanCVG5WyEyjxkTCbZ4QTkIsgdv6fMfKGpqxISSL7rBFkzTB5fIi0jWYce3bbJ3LMjKMnk4VcpiLPX5zj/YHVqkMVXHdTi3jW+8hvfvMlx/7A3d0tVVWz2x356Y9/wuPDE5vzFc5YEorf/OZL/uqv/46npz1391tykvyKw75nsViQkmGxbNFac3F5TtutOC+z/5/+9A/F69l0TFPiy9/+lqfdE6vVhrptqLRDa8c49AzDWAZxntXmDKMMbbvA2Irzq3OePX9B0zRM40jGcNjv6fuex+0j/XCkbmS3OBwHbOWE81iScAXFrKhdJZxp73l6euLDu3eEEOiPBx4e7tlsNjRVw3LVkWMClagqi1IZH+bPQWj9D49bDvvdyXw7DgNdt2AaextjqgGs979Pz5BHZfRRRZ2V0kori9KRnE3hEEmwN0lyJUwJBplb0wohsS6amnEUxE4k48MkgM+UMbrCmMxyWZP1imgmQrik7z3OVgzDyDR5GCKPT0989913XF+/5/r2Gq0MD3eP3F0/cPXskhcvLjFWE2Jg8oGH7Y6Hxx3GOrQRvtMMLm+bjhfPXnJxdcHnn3/GcrEgxMCLly+Zxonf/PYrUIo3n3zCMIw8/XLP1cVzvvjhp7x4/pL7+wcW3YKvfvc7vvnmW+LhSBoDlROA2WK14eWr14Q4cX93hw+BYTyw3e04Hnq5WWmwyuAqR0tROJFBKyprxdwcLYullYHf/7+5M9m1JLnv8y/myOHMd6xbY5NtNkW1aHmhhbzzCxh+IvktvDBsQDuBXhkwCGgjwCBMS6YtNkyK6m63urq76t660xlzjlGLyLpdEIsELS3s3JysexZ18mScyIj/8H0RMH2P+/tbeO+B4NG3DczQQysFY2fwLrm96HgfGE/1qV2XglHb7QbOG7i3EWM3ytYJod7BOnfAewti94MdaKR7QphnVHBCRvkGTa3rgie/ZKKzJdWwdalen1A69h+miBwdG1E4S+lfP3ZHMZb4B1LNMPUFFosJjlYLGOth+9S59OrVJdZ3EQ2vcH19BU4pfIwoiwJvri4huMTz7jnu79ZYLOcINNnwrE3A7NS+P3Y5jQR7xiiEVvj4D/4As9kMn/7tp3jy9CmUyvH5Z1/gf/zsf+IHP/g9/Ms//mMMw4A319eYzef45z/8F+j7HkUxwWp1hKKc4OrqTZKhCI79oUbT9HDeQ0iFkRuEfsQCGjNgu9+hqvepVrQooENE8AHd2GGVHsMMKkggEsznc2R5ltQHIxOja2rstwwxTEdYaIlX3+wSRc65B1AZ5xxFmWMYkQXWGhAS4APGZBgFZwKMqkAgt4QI996tZZYXhpHthhIaGBPgJEGpIzy4TP+mNKF2GRI4M4ClXkxKUhMqS/Y1aw3MYIEygcTqpoaUEqvlMWRWYBgslEqdUVmWw1iHTGVomg6/+ttP8err17i8moAgoGlqHB0dJUxuBPb7Dd5cS5yfXaAYHHSmUiwEFpwmHD8fbXnOJTZV0yZ+IucSu32F9XaHEAGtM+z2h+RioBSzxQplOYVSGsvlEn0/4MsvX2K9XuPi4jHKsgQXaqxoJqn6yXgMvcO+qqAEh85Sp5axA6qqwm67wW63RVGUKKcltM5grcPQGxhnx+BdclwWRZH6W11AMSmxXC5R5gWMHTD0LSqknddmc4e+7VMdJSKmkymM6aG1RggRh0MCpoXgR+FLqkHho2hd6+KyKMTXABx3w68/JijnjlK6I4RZxqj0IcIF81DmRmmirYfoUjfVCNymNPU7MgNorbHb7aGERtcNcNbAO4u+T1k/LnIoXYCQBlIKPHp0htl0grKcgAmFvm9xdLTEF4++xM31UxwdLfHyqy9TGFdK7PYHWONwOOywWq2glEKms9R5jbTT0VKiLEtEP+oBY4TgAra3qKoKL168wGa9xsnxMWbzOZhIPMqimMCYNHjarkeIQNO2ePXqFb755htQxjCdzsblNsdgLERkyPI8YQsjARhFkecI3qOuBXz0aNtUer9criAkx/n5GfphgHcWjAnsdrvUYU0Sw9IY8zDD5Vmeqr2igLMDegJU+11qZooRSmnkWQnvAqpDg7ruUrSRsVREIwVSN7aFDwZaaQzG4/g4+0wp8cb7Bpyr9/daRtA2hmCds7ChT9m90SdCqUCqFMQIxEynavwyE2/pbX0kkCkN7xwIgKKYQIoMIXAgCjAqIIXGdDrHbD7H2BYLrXM8eXoBxinKMofSHFku0TRVwucpNT6/M5ydHeP4ZIkYI5r6Ww0yYxzT6RRaZXDOo+s6CC7QdT1evXoFQgim0ylm8zl8qvhNEc4QMQx9QuDoHNvtHserFYp8gq4boJVGpvIRnUThAhDGx4HzHs568DID5ezB6TmZpmCSEBzHxyt878Pv4vjkFFmeYWh7FOUEdVPh1atLCC7Qdh3atsMw2LFlscNAgGHoEix9MJCco287RMbAmUIIEZvNJjUzdc1oCUy7Ni4ErO3AOUNZFuBcQQrppOSvvY93AMCH/XsLYp2ztnN28IHY1JUMktYEJFlb3tpi37bWkRHvS972UzCGPMuwFwdQkyJ+wzCAcwmApxFc1yMgI1FiR8g0nO3BhYLSJYoix/HxCnV9wHe+8wIpAcVQVzXW6w3yPMdHH30fWuWp4GR0TvuRz6yUglQSziSfpjEDOGf4/PPPcXNzgxACvvfR9/Hs2YuH4FcIYdw9eQzDgLbt0LQD7u7uoFUGRnl6lhMCTglqa8AZxX5/wHa7w6PzR3AuQHKCvChwSs/gnMXJyQkmRYnz8zN8/Ps/wJMnT5GXGaIPUCqDcRYvv/oau802PZa++greJGaEdR7DyKbuuy45QrUcvRPJMbHb7R4YFSEEdEOHyUQjxpS4sraHUgIhTKBVhslkusvz6Sfe0y0A8L4a3jcYbCC+DTDBRzNWRWPkASH9glJGOC0iIxmdHkn/Ixkbo148pYD7AZRRtHWbeiFRAUGACwmdaQAE6/V6VBMASmeJwEosyrJIQaLZFIvFDHme2sWstei7AUJoFOUCu80OTdMgImIwPayxkIJD0QT/3Lt9ylEMJiWSSFppT6dTCM7Q9y04l+i6NL3e3d3h+voadV3j/PwMxlpcXDweRWIcUsgR3eehpRwLSRqY0VM59BasGDvEGcHx0QlePH2GzXaL2WyGxWKKo6M5JtPJ+L0ygHLM5hPcvrlFdajgvcPrb15BiAyHQw2RZ+i71KFl7JAYEEizUz90qc81xAd4SQgOQqQSO4q3CIUUJsiyPBbF7FOlJv+7LOeJEEtmv17cAsCR2u1Bg3XGJt7hGE/gPOFwYiJlfstaEgJ+DMxondYJiksIRiE4R2cGKF1is9mi7wLatsdivkycozHB1TY9QBM1drvewgWLuqpgrUVRFMh0WgMUZQHGOSTP4CNDVbWo6jZpBryH9w55meoazDAgEoKNc+j7FkIIWOtwcnKC7330EYw1yPMcgjPc3l5jMD1ub6/x858bvHlzjbZtcXd3ix9+/DHIfIpyUuL5s+d4+fJL1FWFvh8SL4lQOOtGcZpLn8N5NHUNxDRgFsslkkcrYrvb4qhZJo7T6OxSKvWTnp4eQUqOZ/0F+rbFfl9Ba4m+d4lEHwiElgnnBwAjhDRRZwi8B3xICsi0cBTwI6ta6yzNgEzWQmT/3Xt8iTFsyY3J3jcYIiO4Q0RHCY3WBxKjhxAJsJ3mhjiSVOPYdpd4SzGkQaOkhFYKudZg43bHOI+mq5GqET2EkJjOF0hg0LSSzjKJzd0ar1+/xpvrK0gl8ejRI+RZhtVygbxI7mud5YgQQKDQyiPPEr/gbexdCP6ABXA2QTiHoUPT9nh0/gj7/QGfff5ZalZRClVV4c2bK2zWd+j7BpwJmMGgbWtcXXn89Kf/DUqnG/bVVy+x226w2awRo0fXpalZKw3TG3Rth/lsihiSmsCHJEgpy3Lc9lG0TYX9fgelJLTW6IcOjBLY3sF5By4oZvMJjk5WCDGiqbvUe6El6roGMIJTkKSrSmbw3sGYVKsphHyw/SSZbECWFZhN59C6iJKrv1JK/rn3fnM3Okd4kb+38db3OrtiXXPlMXzAaVL1WJv0P2Ikp4HgW2YSEjsxBZQS8l9nElmWoZyUIMLARox1fCmhwjiDDw51XaPrWjRNjcV8CuscmraGMQaT6QRlWeLo6AhaJ2gI4wJ920Mqibap0VUNqsMBh+0a+/02mXp9oqjtdutESiUeBB5ts8fdWqCpWgglH4DjbddiMinQtQd0XZ1mQcYhJUMMFn/9858h0wq7/R6LxQJt3UFKBcYFvDNgPNFuAT4afkdxGzgITTNmUU6Q5/mYr9HgXDxwFTTTADyic2jbCpRyFEWGxWKC/X6PYTCYzQr0vUGMGUIwaPoh7Xo8wPOUBLTOgpIIrTMwRsY1goeQEnmWI8ty5Hn2N/PZ/Eez2fJndd09LBrfF2cAgDhTx3cDb37p/fBHFoMSXCKSCO/st2TEkdfw1ghHKAUTHApJWG6chdIcZZnDRYBHAikZtFLJpuYNhr7DLkZEH2GNRXu6ghAURVFAKonpdAql1MhtGhBDhOASg/GIOKDrOqzv13jz5hJ3d28w9M2IIY4Yeg/rTNIFMwoEj5PVAmAUXglkWY66TRhfKZI0/OR4iX6wGIYep2fHIBRo6haMZairGpzFxIn2BpwpTMoCfDEHIQzL1REoTWCy/b7CWX4EIVj61TMGKgWUkMiLDFpLuFGKao1BVugRgMrB2AxVVcN7g7LMMZuVI4GGoqkbeOfhncO2OmCzO8CZFEdhjD3gD9OaTaTyNsHSIJQKWudfnByd/unp+eO/AHB496bz0N68dzRQwfZc5H/NffdvmDdnlHkwRtAP3SjaGmeHsdKGEPqwhuBjzZ+3Fp1gmORZ6tQ2DkoyKEEAeJihRVOnDw+fdiaHwx7L+QzL5TJ1HXGGtm1xOOxAKUO9qxACgRQKvR1gncXt7Q2aKlVhF5kCoRxm6BGdRaFl8ksLCfn0AjrPsZgvIFUBxjT6wcC6HkNfg5BksKnbJoXTixKUETRtDW8DurZB3/XomgH5hyX6vsfR8gR5UULpHJPJHJQy3FzfYL9bIwaPiydnKeU9tMgzPdJvKGIkGKzF1c0NpkWBZVg8zBZC0HTN1R5d12GxmCLPHTKpcKhSLUUMQFHmKIoCm+0eIdBUJ0IFYlQpyTeG4bVWKMtpmE6nL4+Pz//04uL5nxXF9A2QtvDfDgb1XnILAPS8KH9BzOaaMnFKKSWEJh8EEB8YjD6OGuC328yxTlJwjkwqTMsCFAScCuzqBoRTwFtEAjgXMdA2QTwpg5IZcqXBaUra+OBQ7TsERBwOB3jr4QYP05uE/EOE8wbe9KCIyASHyCQEl+hYxGEXcX56DGsddFHgeHWEyWyG84sLMDBQKqDzAuv13bjQTIN5GHpQQTEYgzLP0HY1nE8wj7RItMiUhrEOzgOZziGURoTA0A/44v98gdurPartHjEELI7SzGGsA2ejmcYYIAYEb9H3/VgptkAIb/MoPq1xmhpDP2A2X4IJgqLIIISEMQ5CpRIBzjn6wY5a6RTXADDWk6Qi4bKcffP8+Qf/bjqd/mcAr993w3/TYwIAfJGVV/VWfhpj/31no+Ig4FylWgXiUts5PAafIFfJKpcM8sEFcCYwKaagYNDKg3GBqu0RvU+1nIwmjbKzAAeitQg2WVeM7VOWb7eGzDTaugNSRR0yqZPCiERwkuxLkUZk0wkiSxFAnmcQTx4ncqwUmC9WmC8XaaFLKJRMmGTnDV48u0Dbp35RLgSM7VNWlgDRO3B2AhcdmrpGnhWghAKRIMtz7HYVhJCIgYBQgavLG8zKArdXN9jtXmKwFt/93oc4PlkhL0YhSAgYbPJkYPRNtmWqrcgzNeYZPJSS8D4bNQwpRjCZTmCNRdMO2G53IATIMwnvHDgXyLJiRDynNctkMvXL5fInL15c/Jfj48f/Yb8/7H7TDed5fO9uIh0SdSXyv6ja5l+F4I+lkoTQtDWiYUy3woMzwAYDgpQoij5RlxnzUCR5JDn3iYMMBmsDAuFg4NCCQ7GUR+j6GsFZeGMQSUDbtwjew9QNiAMKmcEHDzGWvPemTR3MUoIoAa4kMIK4KeGQOj2Hi7IEF3JMYllEpDZAYw3yLENwZsTqJrxAnuWwzkJrNZpwHURkYJPkpMgzBc6S3ebsdAVnPRiVoExCcQVvHaqqwavLS3z19SsYH/C0foLV0RInJwuUZZlK+WUq6mVcIwaOQ9XBDA5CpF1QUZSYTidomgZAApsVxRSIFOv1Fs553N3dp4Eg2AN8NCXlVMjzfDeZTP/r8+ff/Y8XF+c/o7Q/aF3iWzr2PxgMrJj/lskBdVkuf1J3w48tMf9aCCopfEEojc5bYqOB9ywwGmhgASDCITCe3JYSjAQYW4NwDRotMkURpywh9SkDBQOJHJwKeB/QmQ71fg87dGPTigdFgIgB3BFwmdYQSXYWIGmaCrNJAUoplE5IAOs9BJPgUo5xEQbC2agokKCMg3EDytlDMo1EAsoFlFLJoJPJ9AWTRJB1AVBSw5geZjCRaUKMseBZMuoRpFD8dDLBR9//PkKMyPICry+vcHd3j2GwuL3foGkv8OLFEyitkesCk4kESMBgApwLaOoOgAOiQ5YrkJAQf5QwlMUMQmgYY1GWE7RN4ngPg4OLAYyldJVQMmipd+fnF39WlvpHT59+5y9DaN8bXXz3YP/2T/7kt70fDIQpdH4do7tkKuuF4K+jBzgTtyGQDYncc6mvGFWXoGon1fQloXqb6aznQn8TAmKkrEGklFAmuFCBc06yLIfgcvQwAXHMsxMAbjCJXEYZ4CxkDKA+SUIJ0vaUjvoilqQSKMqxSJYmNjKlLC10SRJIaKUASsClgpSZjZEySgEueI2YlK1aZltGWRRaQ3B+b3oDytiBUbZmhGqp1E5w3goqOGf0Nnovuq6hnOeVD0R1vQmEMOJiyh4WZYnT8zNY61HVDQbj0A4OTd1hMCapInkSlSZ3ZrLcdX2HYTDJnic4hmQkA0BhrMd+V2G93qFuO2y3O9RNgziCyZmU/fn54x9/8OLZf1rMV//e2v6T1ercJxj7u6mHX38ikN3+vXyGdw86m05Jc7g/Hmx4BNoWNOC566vawZ4SU1ovzMZap6aL1bqpDpHz4jSYfe2smZRa5tV2Xdjofr+tt7NmMH/krXPGuKfeRc8oJ8PgRbTWeOMkANAI19uBM0bB4ECDg2A8Us5JoBRcCEcIOI0ButAmgEgXgTzPK8rFJAAgRKytd3PK+SaTYkO50HpS1HYg+xjAmBA9Q7xkLCBQ7Vl0a+eQMyoOgdABPGqCuAWhlnMpQ+i8c5ZxTgtGUTNPnQv9iUFs/CA+ND5mm/vN4yKflMa5Wd10Z9P5rBc80/frNX7xy09xe3eHdkgp/WKSocg1nj6+wPnpKZRkoyLRgZDUtKQziizT4+KcjvBvYLut0bU9qqrGfl+5GAIrJ+VuPl/8dHV0+snji6c/enRxchl8twPgOV8ihBaUvttkvfi1G/3bFpAPs8P4eg3gerl4Rnfrr38yP/6gvL/7rF6dzlhbIdvaNzUArI4u9H6361enH7C2vZWxrbuzD/7wWGYN295UTxqzflZt+2fRm+N+MEsSyXH0AdHFM+IDYYSAgkyaoavsMGQIvuCU3zAaC60lHGV1iHGhpVxzYlsh5IxJeRm8bale5EzQxvXmEIWEyHUD575QMgfPhWutuwGiPDk7a9rmcEcC8XPN3cDnO++NyAWhw2Dve+Pmk+WpfXP52e3J2fPTLCvbttt0bb0+ZZKtEbxE8Pp0erQdol0OHZl0Pco8Xz7VBLIP4eO8radlOf3DPJvy2Wx1enxywX7xy7+RNzf3Z4OzW+NsyWIQ+6pzjN6rk+MTSE0tARVK5N66mjXNgBBpiAF0pNr73bZhSW/A7rUsKjqX1XK1+qvVcvarcjL/87Ozx/umae6Qymv+r47fZTD8psFRj6/+nXMA6N/5+1vR9t34en366Pf+19m5npp+Pbj9/QuqVWUtP+WmnhMmqjC0Z0xO+tabGKEWvD9srAcXRSYVcc1gnRxY9Kfl0bptNrmYHBsW+9eB6jmypeehvR6GetWBNGWutxRRcfWo3dz+yh4fH+urb257ADg6OWXr61sPACVaugcPAFBkivTGNe9cz7uBmMt3rvHwzvs3RVHQrjl8Ui6PyvPp/MeHerdyzj0PgRTT2eTxYIz84Q8/PhqsV6mT3KzW66ro+t0zGuGbzvLFauXyjG+GrllygXnX8tC3w7kQ+TWlLHgXylxN/i4QuuGE1LMnq09OTk6+Zpz+ZaY1dvv7GsB709C/y/GPGQz/1CMA2I3nvxpfXwFAqaU8DK0BgKMnP9B3r77oAeD04kRsdpUtl6dyuLk0ANDEWpBx9Ivld+iwu3wNAKw4oRjq7Tv/X/8bzt/tKwzvnL9/qf27XRfw7Q+jBfCKUqqVEsPjx2ersiycjYRUXV/Old5e3W0/tP1O3N8PR+VEhKPl0SsuAovBrYZh8Nvt5lxr7UNwndQ611JVxIe/84Rnk7LcvHz55WsAWK1OSNsc/rGf++H4fzEYftvxLq723Rtn3/P+u9Ng+A3n/z8cb6/j/p2/vR2sPweAf/bhI3V1fTcAwHKxIOv1XTw+PhPb7cYCwNOn3ymuby8bADg6fcRvbm//4a//nzwQAODvAeGPAnvu3hFgAAAAAElFTkSuQmCC" parent="Y4IA8xLdNqTUvV_AQGgA-11" vertex="1">
          <mxGeometry x="82.04969463232123" y="77.36334405144692" width="105.88463022508039" height="216.61736334405145" as="geometry" />
        </mxCell>
        <mxCell id="Y4IA8xLdNqTUvV_AQGgA-4" value="" style="ellipse;whiteSpace=wrap;html=1;aspect=fixed;strokeColor=none;fillColor=#dadada;" parent="Y4IA8xLdNqTUvV_AQGgA-11" vertex="1">
          <mxGeometry x="114.7616244063895" y="321.0578778135048" width="41.260450160771704" height="41.260450160771704" as="geometry" />
        </mxCell>
        <mxCell id="Y4IA8xLdNqTUvV_AQGgA-6" value="" style="endArrow=none;html=1;rounded=0;edgeStyle=orthogonalEdgeStyle;strokeWidth=3;strokeColor=#1653de;" parent="Y4IA8xLdNqTUvV_AQGgA-11" edge="1">
          <mxGeometry width="50" height="50" relative="1" as="geometry">
            <mxPoint x="109.6040477766586" y="620.1961414790997" as="sourcePoint" />
            <mxPoint x="130.2343542955822" y="554.4372990353697" as="targetPoint" />
            <Array as="points">
              <mxPoint x="107.02525946179315" y="554.4372990353697" />
            </Array>
          </mxGeometry>
        </mxCell>
        <mxCell id="Y4IA8xLdNqTUvV_AQGgA-5" value="" style="ellipse;whiteSpace=wrap;html=1;aspect=fixed;strokeColor=none;fillColor=#dadada;" parent="Y4IA8xLdNqTUvV_AQGgA-11" vertex="1">
          <mxGeometry x="115.65130637501807" y="533.8070739549839" width="41.260450160771704" height="41.260450160771704" as="geometry" />
        </mxCell>
        <mxCell id="Y4IA8xLdNqTUvV_AQGgA-2" value="" style="shape=image;verticalLabelPosition=bottom;verticalAlign=top;imageAspect=0;aspect=fixed;image=data:image/png,iVBORw0KGgoAAAANSUhEUgAAAKoAAACtCAYAAAAgc+Q6AAAACXBIWXMAAAsTAAALEwEAmpwYAAAF8WlUWHRYTUw6Y29tLmFkb2JlLnhtcAAAAAAAPD94cGFja2V0IGJlZ2luPSLvu78iIGlkPSJXNU0wTXBDZWhpSHpyZVN6TlRjemtjOWQiPz4gPHg6eG1wbWV0YSB4bWxuczp4PSJhZG9iZTpuczptZXRhLyIgeDp4bXB0az0iQWRvYmUgWE1QIENvcmUgNi4wLWMwMDUgNzkuMTY0NTkwLCAyMDIwLzEyLzA5LTExOjU3OjQ0ICAgICAgICAiPiA8cmRmOlJERiB4bWxuczpyZGY9Imh0dHA6Ly93d3cudzMub3JnLzE5OTkvMDIvMjItcmRmLXN5bnRheC1ucyMiPiA8cmRmOkRlc2NyaXB0aW9uIHJkZjphYm91dD0iIiB4bWxuczp4bXA9Imh0dHA6Ly9ucy5hZG9iZS5jb20veGFwLzEuMC8iIHhtbG5zOmRjPSJodHRwOi8vcHVybC5vcmcvZGMvZWxlbWVudHMvMS4xLyIgeG1sbnM6cGhvdG9zaG9wPSJodHRwOi8vbnMuYWRvYmUuY29tL3Bob3Rvc2hvcC8xLjAvIiB4bWxuczp4bXBNTT0iaHR0cDovL25zLmFkb2JlLmNvbS94YXAvMS4wL21tLyIgeG1sbnM6c3RFdnQ9Imh0dHA6Ly9ucy5hZG9iZS5jb20veGFwLzEuMC9zVHlwZS9SZXNvdXJjZUV2ZW50IyIgeG1wOkNyZWF0b3JUb29sPSJBZG9iZSBQaG90b3Nob3AgMjIuMSAoV2luZG93cykiIHhtcDpDcmVhdGVEYXRlPSIyMDI0LTAxLTAzVDIwOjU2OjI3KzAyOjAwIiB4bXA6TW9kaWZ5RGF0ZT0iMjAyNC0wMS0wM1QyMDo1Njo1NyswMjowMCIgeG1wOk1ldGFkYXRhRGF0ZT0iMjAyNC0wMS0wM1QyMDo1Njo1NyswMjowMCIgZGM6Zm9ybWF0PSJpbWFnZS9wbmciIHBob3Rvc2hvcDpDb2xvck1vZGU9IjMiIHBob3Rvc2hvcDpJQ0NQcm9maWxlPSJzUkdCIElFQzYxOTY2LTIuMSIgeG1wTU06SW5zdGFuY2VJRD0ieG1wLmlpZDoyZDdmOTdhNi0yMjc3LTQwNDEtOTBkYy0xMGNlYWNjZjFlZjgiIHhtcE1NOkRvY3VtZW50SUQ9ImFkb2JlOmRvY2lkOnBob3Rvc2hvcDpiMmFiOGNlZS02ZTI3LTJhNGQtOTJkYS04YzQ5YTRlODRiMWEiIHhtcE1NOk9yaWdpbmFsRG9jdW1lbnRJRD0ieG1wLmRpZDo4ZTk1YTJkNC00M2ZkLWRiNGUtYjdjZi1lNDIwMmMyOGE3ZmUiPiA8eG1wTU06SGlzdG9yeT4gPHJkZjpTZXE+IDxyZGY6bGkgc3RFdnQ6YWN0aW9uPSJjcmVhdGVkIiBzdEV2dDppbnN0YW5jZUlEPSJ4bXAuaWlkOjhlOTVhMmQ0LTQzZmQtZGI0ZS1iN2NmLWU0MjAyYzI4YTdmZSIgc3RFdnQ6d2hlbj0iMjAyNC0wMS0wM1QyMDo1NjoyNyswMjowMCIgc3RFdnQ6c29mdHdhcmVBZ2VudD0iQWRvYmUgUGhvdG9zaG9wIDIyLjEgKFdpbmRvd3MpIi8+IDxyZGY6bGkgc3RFdnQ6YWN0aW9uPSJzYXZlZCIgc3RFdnQ6aW5zdGFuY2VJRD0ieG1wLmlpZDoyZDdmOTdhNi0yMjc3LTQwNDEtOTBkYy0xMGNlYWNjZjFlZjgiIHN0RXZ0OndoZW49IjIwMjQtMDEtMDNUMjA6NTY6NTcrMDI6MDAiIHN0RXZ0OnNvZnR3YXJlQWdlbnQ9IkFkb2JlIFBob3Rvc2hvcCAyMi4xIChXaW5kb3dzKSIgc3RFdnQ6Y2hhbmdlZD0iLyIvPiA8L3JkZjpTZXE+IDwveG1wTU06SGlzdG9yeT4gPC9yZGY6RGVzY3JpcHRpb24+IDwvcmRmOlJERj4gPC94OnhtcG1ldGE+IDw/eHBhY2tldCBlbmQ9InIiPz6taO9CAAC14UlEQVR4nKz96Y9lx5UnCP6Omd3tLb6Fe2wMBvdVlEiJSm2pailLyrWyGj3VKGCAxlT3hxrUt/kwmL9l+stgGhhggOqqqQa6MrMyKzOrlMpOSaSoLUWJOxlkrB7hu7/lbmZ25sMxu+++Fx4ktVjghbu/5b5rZsfO8jsbMTMeNL732ms4OTgAEWHr8mUUeY6TyQSaCAOtsbO1hVd+9jP83u/+LrY2NwmARtviOEkwACj1DCiCBeABwLZg5xkAFDNOlOLZZEK5bTElBdMSed/Aked2CvJuyvO5g20JNrNgbhhlBTjH8ywFGvCkPoGznj3V4LkDGQeqGXCAIsKkrOC4gVLAvcMJ/q//4/+E8+fOPXDOx8woDw4ocQ5qbY1UnmN+9y64bVApDa8UdF1jUlVwdQ1blqiIoL3HvK7hmoad/M2t95iWp2BPqKoG3nvAGCitwW0L8h639/bwr/8v/woXz++ceT+2rtFkGQyAG8fHGFQtlfkRDuYKYz+g0rZwdUXNbA7HJVTjuawdTm0LshbOWmhrubIWUIqZPVAzWsWoXYs7t2/jX/8P/wMeunyZACgAqvQeE6XAx8dIVYI6n2LeGBQlqJyX7LIaLvPkThXTpMKpZy7dDO1pSU3SAi2YK2YaDdlojW9/+cv8V3/7t/zSCy8gNwYT5zA9OsLR3h7SNMULL7yA0Wj0wD0BAPNxLzIzCACIQETxSfkbgNY6WxsON/76u9/dUs6NPLPyRGObqDT1nrQx2te2YGhjjGbFgFHslNZOG+0anYBtq3JScNqwgXKkwUor51vttWptVXowa8cFnIb3yrZWMdtWKacseWbvATgieFLKas2eNBxAXityWhsmeGgFP15b47//h+/yMCug0oyTJIVzVgFeK9IqSZWeti51dWsMYJLhQKVFQTyfk2HiNjFKGQNtLTXWMayFt9ZbrdgwfOsswzlmrR0AT0ReETG0dkppT6SYjHHaGDDA5DyvjdfUf/n+39NGMSQiELQmQyDNShmt0XhvqMgoSVI6nc4oY8qsmenSp2qkB6h8S7CWXNOy1tYbR9w4+Mp7aGZZHu8ce89KKQ8iR4qgNHsNovW1Nf6zv/4bTVYNmdzYwWXMlCBNU+OtSYxJkABOgRJPzKygjNMq1cyWeEipbUn5hhv2deutdl551ZKlSlfzWZ5mp3fu3D5smuZQK9UCeDBn/HUJ1XkPBAKNhMoACEBRFOPXfvKTz/349df/6enp6ePk3KZJklRpnUJRAg0AmnzTpt56Tc7DE8Gz9eyZHbMnZgIxsQMpgByxJ2goePaamIh8VbWJY+8JyhODoYihYBVTq5T2eaEdmYSVIqfZOybyRGSJyGpSrnYtEZEngvMe/P4H71o49qTIKa2dc468l28mDU60UlCJ8syavSffWpVqQ1oZtkBC1urGsyFP0FqRB6CVAsgTOWKGU+y990pBE3vWMFAE5dmRIg9FHsp4TbAKikkR3bxzHfDes/feAVDMnp1nZs+OEgCeFQNgUOt96luXkCJNiaamacizhYJSmjXBsGaAFJTSSgNAwmCwJ/bsvVHGKq1IG8OKtAI75dhr79mAWWtFyrPSpFgTmBrbGmZPTI68Z0ApIuc1e4IjS0VWcKIUeXhyntlaz+xc6zyXAJ9maXbrv/7nP3vzoSuP/vjlF198k7Q+gVIeQZJTnwn+uoTqvQehdwTCxbMs2/nBj3/6hz/9yY/+NEmSz2rCFmudK6VTJhhrrfKth1YahoiUUQSjoAF4KLAHUgYDDM8AmJkIgNIEAmtmQCkwe2TpEI7A5DxYKyRasVLEEJ2FrbMMgInIs9JMzPDee2Zmr5QHoDwz2DODGUprkCIQGEyMNEmUJ63gFTEBiVEACEoR4AmtdkKAxKwJREnGAwZYMZNS3DQ1GAxDhmEIZFJONEDasCHFdVtSC08MMLct2tbCcw0ArFgRkycFIigdlkApJ/dJDIKBJiIDITYP3TKzIQYzsXM8GAzYKMUA4NmTYgITEYMVgdm2jkknMKmhRClipUHeQwFMaWqmk4m3batApAmQAxvEqFLEaZoSyANgeB9oigEmIQelROganbCB4bxgT96z8+QcOad0UnGt9q/fuv6L/+f/8v/+d//893//latPPb3LzDaS1W+HUFc4apokj7z2ox/9yxsffvjfjsajJ1vrdzyzVgxYIvLOwXsATPDMsJqEpjwARPoKJwlaWCkRmAFmD/JAw4ByHp4ZKhEO7sEAe1jrwYpAzPDOC20TwI7hvYf3DO8tM8u9y4bLPwKghCxApBgEUkrBaAMwwbGFtU5UHiKwB7RKAB2kCTOYAM9evs86GJ3Ie8Pr3rZoLQC0ssCJYq1kDdgYaAuwDUef5IhBiSol38lghpA2ACYPIKwhEXRqoLwW5sGMcDC7NWUllEQACIR5VYOoQWpTtFrDew9rbafSGWNgkgTG6MiHuusxCB4+3JuC0mENwAABStYRDMA6BtDCt4t7IRCctuNsMBgWRbE1n59u/9nf/e3Gv1hf/z8GwAcA2t8KR+Vww2FnSRuz/cPvfe9f7+3t/XPP/ETbNENWhrqF8gQiBa0BYSGM1jowAYqpI1RZEAaIoUjL78ywzgIOsM5DEcGzR0YEZRRIy4IIQchC6MQIcTB3xGUSDcAQh+dU4MyeGQSC0iouDHnZAdRNC2ZGkiRQitA0DZg90iSH8x7E1BGGHDQhA6MVmBeHb/H7Qg1rW0tKAUrJwY1r1SlRzGAmEPGCIMO1iAjOu3CIZS5a624O/e+OV2Tv4b2XdfEeo9EQxiQgUt11+4TdNA2ckwOutYZSCkQqHEYPVn5pPvFz8We8z/79xIcHwzmAVDvI0jwbjkcvNlU9/vf/6//30T/55rf/bWqSt4Ka9psRqg/GFAPKGPPUX/7v//v/o6rr/+bk5OQJk2c6SVO0rYPWGkQE7z2cCxwJBFIkhNJNNN5QJFYsOCwTNBmwJqSa5aSSB0F13CTeEwA4BMID9RZOdYvaLZYP1w/vI1oQvYh/gmUGnIdJCFoZgFuwl2tqbaCUbHJrLWzdgkFIlUFiMrS26ogznGcwIjHKPcm6CIfXOoEx1BET6U7UQmvVzYHjiVQK6IjAgz3Ds4cmDaU1EAgvEoxSCkopOOegFKGqa1BjhXMamQuF+XjvMR6PUdc1ynmJqqqgtUaSJDDagLUXTqpwHyH2907mTsKhScuaM6Nlj/FoCCiF6XSqq9pvjbI8Lct6+Nff+Y77b77y1X9/oSjeVEq5TyJU+jh46q++8x1oa41X6iuv/fCH/+b45OSfDobDS633ZJ1F07ZQysBoDVJq6bTKJhGcc8IwsTxJWQDVqReK9dLniIQtO+8AtXxqEYis//7uc4FIREQJRMX962oVDk/g+G0LUgT4cO++913eg1SypPArGDmAgfCbdkGosmUufFdQH5iCSuKXuU14DgCUUkIcZnEooqRQSg4WEcFai6Zp4JmRpSmyLIPC4nnmBVd0zqG1LVgbUGAQkSMnSQJmFmIOEs551x2CuGAMhtYEBEKN+wiOaw1oHSWiMBHbtnDeQZECK4JTkDWHqGvwDE1qliXZLeXxH//k93////PVL33pLW1M+3GE+kk6agrnfu+HP/nJ/+3u7u6Xs+Fw62hySt77oNcYWM9onIVvRVynaYYsTcHMaJoGRGLAKLUgxIX4DxZz4I3oxOriBGtD4WlaIfRlIl1cd6FXq0jA4QNxcaOkiI8skfutqgoAkKQpFICmaZAkpuPKSikYMp2eZ22LIFGF2zGD2AUxLd/pwxsiAfYHM8Na4XZ5nkNrvXTYmQhGa3CYYp/ICAtipqBrtm2Lpq5BSiExBnlRoHXcfV6uCVgrdoxzDjasqVYEbTQSnQjRhYPVtjW8DweeCFoUeyH68JOZoUmDCJhbRtO0YMUwWYq2sSADKNLwEBsBSg+t54c92//T//af/iKvyvL/9U9/7/feUkrVD6LFBxJqWVWbdVN/+3vf+/6/MYn5/Ob5na3j42PZIOeQZplwRNvCGNm82XyO05PTjjN475EkOhCO6gym/ghnTSxxAsBaTqwigADSQDzisoFBaCvhMlmSLnMs+I4DRlEIoBN3S/oQEcp5CWeFCzZNDXgOUkC4bdL6Ti8lRVCsYK2DbVvUbYX19fVO5CsNKNbh/fK5TiemqI8uSwLRq5Ml1ck51937ZD6Hx4LLUyAi5xy89xgMBh13bNsWbdMAzGiCkeQYYpr39EkdrtUdCBb0RRuDhE04MLLUtmnhiEEecOzgrRfbRVGA5QgqGE6RaJumgTEGaZFDEYRTKy/cPtyHZVuwUlfWBtmf/Lv/+B/13cPD//n//N//929rpZozCfUUC86C6RSsFIxS43//F3/x+6+88r3/+9baxrNV265XdY219XXs7e3h8uXLaNsWd/fuYTAYdSJ0b28P9+7dg7UWaZLAJAlUEPlta8MmeOFMWovYYAS9SgeiUjJxJboRY4HlRo7a18U0iZiz1srCk+9ej6pH/28K1xZ9UaOu6yVxuRDPog+y74yvbnO997DOgj1jkOUAGEoRtFFhkxf3U5bC4VRvDvHgqI5IEdAKWR9mL+thNJq2FWmgAjGs6IqRSUQVKh5D27awzkGnWWdDdOunSIxbRfBhznEfjDGdmsHew9pGDjmLGmatHKS4RwA6phRVGO890jTF1vY57Fw4L9/rPZgI0LpbA3YuY+MvK8K3/+7/+Pv2yuOP/8/fePnl9xEhkz6h/jKebmZUr72GYyBry/J3f/H66/+GPZ5rnFuLG13XNS5cuICDgwNUTYUsywAAVVVhb28Pd+7sYn9/D3XTyOnyHt62PSIBmEWn0QinUS2Mlo7L9rif966DOjz7xSTDz42NDeEkbSuLpRefZ2YkagHlOPACcgubSgEIFOIF2IpYF/2QQD2hE0V+X/1I4n2T4MZRw7FWDmaWFUvcs8/R47qKGmHRtm3v2hRUh95nw5dSUAmUUqiqagkRiOqDrRs0zsKoBGTkpiIXZmYoEFgBqU5krbr/Zc3b1oKtA6loKPUMVGbhpkrBhfWI95GkIuHyPMe0nGNtPIbJs+6+xMgTelCe4Tznm5tbV0jrb/3NX/3lAU8m/8s3v/nNWwCWRK9J42/M8EmS2Nns8z9+7bX/0bbN585tbq4dHp8izTMEuxlHJ6doncdotI4kMTg9PcE777yDtm1x/fo1aK2xvr6OyWQKgDEej5e4GRiwzsFbB+tsz6oWPUuH02mMEIAxsvikAjJIUX+Snzpgg/F3k6ig4MvriheQTITbnPdhowjcWhFjzFBKOE8SuIpSCsQ6EDN3BljUCZVSYuzBgzqJvlA9QATbLogjwmiAwEjMLO4y78VwIQVl9ML6J8BGTLRnFCqlkBoDrQ2Gg0EwTAMWHSSYGgXC8gQyGooBy2E9gjHo4HF6eAxWhIQUoBUUA54NUmXAiYdJVIcJ+oBGuDBfJgBJCg/uCJG0Rl1VqOsax4dHuHHzJrYvnMfm5ubSXhkSNeHk5ASbm5vF8eHRY1me/7d/9bd/e5Tn+b/7yle+cneJUBeAEdTJZHL1Zz/+8bebtv0KiLZOZlMUoyEIQFmWHZeIoqEsS7zzzjs4OjoCCBiNRA0Yr43BYKRpilExRF3XqOsazIwsS1AUBbQxgfQX0FZRFBjlBVwgurZtMRgUSBLdWcBpmnbXS9MUVSWcPctyaK3gHZZUAYbrRLrWWmCaNIEh4QgKBE8M5aO3Zdkp4WwkzgWWqSKhiuYiix9EorXNgrsZA61Mp3cCgDZapEPgzgjcPOnBR1GUevZwgUDiwSMiKFIwQRIkaSpzdV5Ec2vFoETUQ50QmGO0zgo2SgCxkkNy4RIcMzSRGL2B40c9WFMw2LyAbgy5TtM0aNpWEAcraoYxBkmaoixLTCYTWGtx48YNtN4hMQaj8bhDDhwWB353dxfra2uDqqkfa53/F3/+5395+/bR0X999pFHjjo9vt7fBymFpmmKV1//+eOTyek317e2zlV1qeanJYxJxZ1JBNIaJhDp8eER7u3dw97de93ELl64iLqqUGQFbNZiPBpBKYXNzU3sbG9jZ2cHW5ubGI3HGA6HKIoCWZp3Oi0zYzgYIpGgDVRlCa1Fj4sbmGUZnHNo6hoMdLBOxP68RydiAGC8NkTTtvDOgQAYkwSlXnWGnWcPH8SiCw/5m6G16IAISIVS0bMlGO3m5iasbcDOdcQdDx57RprmIikCN6nqeiHimTEcjTqkIuqR3os+6LyH9a7jxD562ziqEPL5qE923FYnIiW0glZa5tNaVG3TMRvnxDovinyBfQe93XsvzKBpYNgvqQwuGs3TCU4nE+ze3cWtW7dw5+4uWmuR5znGoxHyPMdkMsHJ5BS7t27DtxaXLl3C5sYmtNEdpO69x/b2Nk6OTjEajTYU0ZM37t77F4d/+dfvPfNv/vWsbdsGAEz7058CRDSvqvWj0/1nQXisaZpBVdVonIVq205JVkQo53NMJhPc272LW7dvAszI8hxJkiBNEnjnYLTGlStX8Mwzz+DZZ57B008/jQsXLqCczzGbz2GMQVEUSJIEo/EIw8EQG1nesfm+crIK6iwALPndcv8VwHnuiBUA8lQHcSg6pQHhtzlqbwV7jfcbDhQQDoxlaK06XZyZ4R2CCzIYaQq/5btajM6TB8DzMkjPDLAC5vMGWisUeYI23K9RPSP7jDGra7FN9g/w9jtv49133sEbb7+FO7u7GAwGGCOoaGAcn5zg1s1bUEqhKAqM03G3FgAwm82Q5zmqqlLb6xvbm+trz+zdvfulH//4R9en03mjFMFsXr0KIqJ0MhmlSK/W3K7VVaWVFk5YV63oIBAD4eDgALu7uzg9OkZTNsiLFKPBABsbG6jrGud3dvDYY4/hy1/5Cr748stYX19H0zS4fv06fvazn+HGjRuiBwZIZmN9HdvntnHloYfw3FNPoRgOkWQZdIfPEToqYwh3jMA2CdeQZRcdTmtCcNiIARAWloL3R1AXsbCj2zC63+J7XRCdQIBgsDg82i8IAOShATD1YCcfsVwtojnRkSw6cawNosYLax2IF0ZWd50wZcss1jUFoometh4Swb2/FffnG64TflUk2Gx4BxhAYz2GwywgCoDRhEQBk7LGvXt7sFWFpqnhnEWaZhiORljfWMf62hjDLMO59XVcufIQPv/5z+P111/HX/7Nf8bB/gGstciyDBsbGzDaoGka3Ll1G3CM8xfO45Grj0AbjapqOkNYK42Do6OUCVvZaPjMtZuHo3/53/3BUVXVMKcBZph6X7i23WGCEeuY4doWymi4VtCCpm1xsH+Avd17ADPyPMNoNECSJBgMBlhfX8c3vvENvPzyy3j+uecBAv7qr/4K7777Lq5fv96JndlshroWbHdjNEYxGAAAnv/MZ/DI1at47rnncPXKFaRawzrbGUqKFIo0CQZMsGT9SqALyYLH3ekMkI70ZJPEBQmAF+6/OGTTFxfoc/EI8Ec/FRMDWEAuC6MqEtHCC8W8sKDjjSkd7ywSaXxBPq973qDwjeiPvuMCSz+pe2LJ+9gRsJziNFHwzJjOK7Rti9OTExwdHeKXb7yJD95/H21Tg9lDg5APBxiPxzh/4QIee+wxXH34Ci5duIBhlsFtbOD3v/UtXH3sEfzbf/u/4he/+AVGwyGccxgOh0jTVODLvXsAEdbW1oLalgWjVWyLNE0oTZN8Opk9fLS/f3n73PbNsqrYaIGSiOu6cERriihRxsA7C9taKL1wv4mOVaG1LUaDIfI8wyBPobTGeDDE73z5S/jjP/5jbG9v4+7du/jBD36Af/iHf0DbtpjP59BaYxC4b9M0sE0LicAEptMJXn3lB3j7rbdw9+5dfPlLX8Izjz+OLMtgScBsIkKapiCl4KyA+9ro3upjKXCFA8QUX+Hwhj485Zk77hU/TxAO2hFAb589AxL2BkjQYiR9WiaIQHhKIkPBSgfrXi7Yh6oifNafBwVvXEd4tIig6uhtBe5a/e6Pe549YOHRlqKneufx5ptv4nvf+x5u3ryJuqqglELTVh2TwJEYPzdu3cR777+HnQsX8I1vfAM729tYGw5hlMLzTz6Nf/7Hf4LUJPjFG78U4ksSFHkO2zSYlSWOjo5Qlg2KYgiAQ/QaQnCMB0C58rxFxu2Mh0NNgDWmqqCVIpRlZpkLz04rK+46lSo4F7hAAId9sO5GoxEGgwJZojEajfHkk0/in/3xP8NDFy7izt49/OAHP8Df/d3foQ06bpqmaNsW0+kUaZpCa428yEHw8GyxubmB/f19TCYneO21V3F4uI/6G9/ES5/9nFjDSSp+7gAsx+1iJwA2LxhI2NiwkSsbjgDfdORFCv2tXviyF++53/upIKS8/Nm++I7RSh0QHyRXhNbEE0eLe4kqTrxWdz/RzcxACHAJd74k1h88ovcpHooY2aSgSCHPUuze28MPf/gjvPrDV3Hz5i2srY0xGI9gvQUlaqFeeYZJDFrncPP2bXzw4Ye4t7uLr37ta/j9b3wDlfdg5/CVl1+G0hrlfI6Prl9HlQjSQ0TQx8dorYVShCzL0LYtrLMwSlAPWzdUlnVCiaGt8+fsJE1p3rYwLkkArdECCbzLTZGSdwwLsX6VFq9E61tAMbI8xXg0QDHI4FwLrxWeeeYZ/Mt/+S/x8OVLOJnP8NOf/Qw/eOUVnE4mMEb0kzzPMRqPxeAKngulxUhr6hqpFvgiSRJMJlO8/dZbKLIcRVHgySeegEnEku04BckGRobSD57r3iJKXXTS9p8UkR4sb47iOBLA4s9ggPRItCf6mT2YGEvHgGP8rb+P2y2B+WeMJUJX0fXaadkg9IJszmaYHzvExRzwXAjUNq8qvPrqq/j+D17Fvb17IK1QjIaCEdcVBkWGNsBfSouO6yRQFyDCO++8AxDh8kMP4bFHH4VtWyRK4bMvvIDZbI7/8B/+f7BtK5CaMciyDHmedw4krTWcdSAt3NolGs55nSUpr61t1IW13lkLlSYJ8iyD1toww3gP8kqWRWkFVqLOxFOvjEaSZUgTgXm2NjfxxS9+EU88+ihmTY1fvvkmfvTjH2MynWA4HsE737kolVJIswx5UWAwGiHJMiilMRqvgbVGkhVwDGxtbyNJC/z0H3+O13/xBmrrMa9qpGkGJg0fYlsjExKrthP6wg0J0BDRG7nP0qMjNnlvAAk7mAksTygVA4QZ1MVmipszqhf9ERIJOsLoeK5fUQuwfACiXtyPT+heQ+Dd4d6J+58Jv/PZj+77yIcg7PB+JerWD37wA/zwtR/i8PgI586dw3A0xHw+R9M0SLMM0EpwWEXQWQqTJPCQoPXBoMC58zt46+238b/9h/+AvXt7WBsMMG8apMbgCy+9hM+/+BLyPEfTNMiCLaMDZhzdv0madAytqRuQUiovBvbi9k45ynPe2dyEatoWTdNQ0zYahhQz01nqTdwQrTWyVG64GAzw3PPP4ytf/jI0EXbv3cOPf/ITvP3226ibBhTePxqNkGVZwOEEgHbedS6/sizRWguTyM03dQNAApk/vP4RPrj2AYZFAQY6nVORqCUPHtxt8gO5TwDPI/9kz4AH2Hk5BN7DexfUAQd2Dt62wT8eXKqNh7Me3jFsK8Eq3raAtyB4gBjeWUxOjlHOp+KWJYa3jVwzHDjAw/tWODQJ5XGIrvfs4dkB3XuX9+SBgxYG5upDK4XT01O8+uqrOJ2cQmsldoO1GI1GMIlBWZZgUiiGAxSDAqRInA9KAqtn8zk8M9I8wwfXruH73/8+TmczrBUF2tpiOBzgC1/4AobFAE3TAKAuvkNrjTTNJBhGiaPDthZ11cI2Xus0UUmWEoX4A0Xeg8QLYZiJ4C3BedhoqVoPF9MzGDC0cFEOigJPPfUUtjc2MKkq3LhxAx9+8AGapsF8Psd8XsIkwu6NMSEiSthztOShJYqdmDu3adM2aNmj8RYffvgh3nvvPbGcEblQAJnY3886FnvU+4PFADqD5bACvLdgdiAClFFg74Kl7sDeAXAd93LBo+SDWpRmGXTwKOkg2pIsAyVGIvqthdYaw9EQWmvYNsSNmkQ23js4Z4MPXHC11rVoXYsgqAEI2C9ELI9PotEFMZOE6bHqgsETbVCVNX7xyzdwcHAIdgz2HBwsOngfJVaDPSNLciRGQvbKpoEDkA4GMHmO0+kUw9EIpBVeefUV/P33voembWG0ggFwIbhPFSlUZYlqXoph7jzatoFWCnVTi9MnSzEY5iDNNC9n+Xw23wCg6qqCQQgL81WtyXlNIPISSybQS+AcnhZpJASBEoosx/nz50EAjk9O8P7772P/4ADD4RB1U8vGh9Mn8Yu6Y/fWOXj2aKoazgmGhuj7BmC0hmNGOZvjxo0b2N3fx4Wd8wKuh1hPFYN2z9ogiDTXK8/2dVz5GeEimZhzLXRiJB9eaxAtrqC1BhQFF24D7zxMmBOwcN1GB0mijahPYKgkRZakvXsR748QeBJIcpEiojpATTBdJrEVuLuXhVPhUxFsnGoIGp+XJe7evYumqeC8vEi9KCswi11ACswU9itkXkBqNSAxUJ4xmc2hiVHWFX7x85/jhc+8gEcfugzHDEMKm5tbGA7HaJoGR4cnuHr1ERjSsI0V7k5K7B2/0Mts2w72Dva37xwd0XQ6hWGtAa3Jgg1AhpUhQ+I6cRHi4WDnRi7rPXzTYm1tDTs7O2AAJ8fHuPbeeyjLEsPhEMPhUNx6HOI6s0z82dqghYVlh6ZtOzyVScDvyGkTIz4kbyz29vbwwfvv48L58yL6Q5CJNquo4lljoZf1N5WDzhjdqMwM3zZBWihokwJgNK7BbDZDOS+DW7HGdDpFOS9xfHyM4+Mjcf96oGpqVFXZzaEoCqyvryPPcwwGAyTGYDAYYPvcDra2NpHnOWRlGa1tAQKMNkvEskRpoC7t89MRaA+w7f6WA7W3v4+7d+/CCZWKVNCCqTIRWme7cMwueCZeLuDD8XeJ2wghikSYlTMwENJvFIzScNYiSRLRV9sazloo5DKfAM1R1KEJUEw6TZMkHxbUuhamzTJQmqLVOlWajNYKrCTIWcVABMWgkOYsVC8EMh6Psbm5CQawv7+Pe/f2uigaFX3WhjtQnVmizXViYJswsRCAS5DYUfYBbsJCJz45OcG9e/eC1bsA+Ze55eqIp7MPpodXVvc4cAptJGdqOp3g6OgQd+7exfGp+LQPDw5wcnKCuq67OAKAwMEXroiQpKmoAkrB+xrHJ6e4d7CPNBVoTaA6QpEX2NrYwM7Fi7jy0EM4f/481tc3kCoJufPwmFdz+NbC6BRFngXpIfcq8FLAeR+AIHTvDSkx/eG9x8nJCY6PjwGSqKokSD+5vhiLCNFkzrtOL0eEAj1DEUElCdg5sGNYL/Dj5ORUvHJGI8tSrK+vQWmNPM8xHA7RthaNs8jZwzcCVakA1yVJCoDZs+VEZfDTFFxmMMY5GGaQtUYrbRITdCslKbvEEMs9iB6EtASllJxA7+EAxOj/PMvB4HBSA3oQ0hacd3BgpIlgqp790sSBBb4o+KOCClFUMWZTB11XKXRBGh9HpNFVySHLE+GwRIZgAgG0zuL09BS3b93Ghx9+iA/e/wB39/dR1Q2GwwGyNEOaphgMh0iTBEmawnmHuqrgENCCgN06Zjj2MHmK8ZqEOZq6gSZCay0ODw6wt7+Pj27exOu/eB3j0Rjj8RiXLl3CE48/gQsXziPPM9SeOiNNO+4AftJKXMu9A8h01vzDIVQKzMK5nXMAEdq2RVVXqOsGlr3grMQgbURkawNmwFkLHzh+dC17J4aldSJdtVJItYFOCNW8xHw6D3sPGGMwHI467qCIULctWmu76CmRahHxIGiliJGQMgrl9Jiqcg5jvEfqHME2Jm4mw3dgsqQ/h8jyEIVudAL2hCzJkWcpDICiKJCmKeZ1CTBQNw2yPAesQx2CZQGgKAai/wagW5K+An/qu/tY4jMjcBmj9Z02YOclVfkTBf9iwyLW6TjqgRomFHb46MZH+Oj6R7h95w5u3bqFk+Nj1HWDwWiE7Z3zoJBPpEgFA0cIWxAMCd2D0V2aDsBQiYb1HvuHRxI9FWJGm7qBAyEfjrC5sQHvHA4Pj3FweITd3Xt48423cOnSJbzwwmfwyJWrUIjR9SGL1fRUg0+afXTZIqb5CHymTSJBRkbDhqh9RRaeAGXEkE6SBABDewPrJfLKeUEhnLXw1olXkR1SbZCP1qBSBevEOIyrPyhybG5soCgKmCQRmgjBKcWgkIMdjMmupoEY90opT6RKJiphqiQBpylqUkozK+UFwmaSfMrO5gBAzB0gDkZIWxCdaTAYIM0yHJ0cwwRsFgDatkWaZ/DMcNZiNp0KFkdyPW+dGAtgOOvg4gIQga2434xR8N7KwhHgFMLvCo7FbFLRr96LxYxxjwYa86aEZ49BlkMhgYPH+x++j3feexcfXLuGo8NDxNTmJM1wbnsHaZZ3uhbzIuTOhTQVgujWTWO7w6SCkeNCXhkzYzqdSsysTsFESPIMWZohVETBcDyGbVuwZ8zmc7z/3gfY3z/A5YsX8fClh3D16lVsbG0CQFcboA8XMi/n3i+8dItwwH6umgGQZQmSxIhjQXkwPJyzqOoGpEIQu9EwSYLWtqhDlisFLuucDTaHFliprgHvUWTCsPqjbVvYRq4xnU5Rty2y01OsrUmch7XtQu0DxAvKXrumVZPJCcqqglFS7Y1867XEUS84UMyrYw/JhWcKxjEFvV4hxP5iPB5hPBxi13mwcvAk1nGW5xgWBVprUVUS+DAajwEC6rKCbW0vEiggTSzXnk2nmDJjc3NDsD1jRPwE74zrG0I9jwupkKZNskFlU4KJMcgHUEhweHKIV374Kt7/4APM5zOB0YJbWJtEApoJaBoLx1FnFhXIuugIUOHwCdEi5EwpJfCOdQxXVlBGwWQpPId0jUBSVdugaRtAiRinMOcszQFmHB0fY+/uXbz9xlt49NFH8eyzz+DqI49gMBiIx1CFwhreIxa3WDCUQKzR1+AjkS5iA4zWnQRjZinyQQplW8u8EosUGRx7NCFpUGwELelB7GGIQF4yNuqqQlPWGOwUGBSDHrpCAUNdZnoAy+fqutPfJTaC4IxG01hSScKU5USeYTLvkTkHbVtFiuCJOiuMY4UQ6intPZ3QmLQLgxuNxmLhpik8AZPpFK5tMVpbA0Ci5wZdNc8ytG0DZ1tJMgu4qg2xBGAOhQwc2raBMRpbW1vItIHtOCY6TtIPPNEkEfQOAr4zPHRiMDADHM9O8NqPfoS33noTx8cnyNIMw9E6Nra20TYNqrqWQBxFsLZF64JeG7i/Y+4ClJkZRVEIugGgtS2qkIKhlXjvRFe3wXUZNijAb9wjLBcYgw8OEQ0FYzQUxAj74MMPcOvOLTz22GN47vnnceHiBeRZgaaVONIESQdtaaUFc/UMo0wX9BOllgkcvxgUMEYyJNbW1lBWFSbTCQajIRSUFNsIrm7vHBQIWlE4xAyjdKe+aSj4xsI7i2GRY1AUcKHEkjEGTTigRmskaQpWCoPBIOiny9VVHABuW9jWkWdG6z1a72GoKKCKAl4pxaFyUYwoAiD+VGaQBsgzlGNQyGfLsqyLt1xfX8fOzg7yokBVVTBKIR0OYUIODREhTVJMJhPESHIVEu8i60cgBNu2mDcWxojbdXt7G+fOnQP1FlxBdZw1evI9CNbbUF9KYl4zlaGyJX759huBi74PRQpb586JhakIJk1hvUczn0toYzASQ3EqcIBwOh0+4MmNdTBePGip0mgaC+8atNYiJYLSBO9jJCo6HFLYHIeU70XAh7xX1BUFIDEJxutDEBGapsY7772H/cNDPPnkk3jm6aexubkB5y3KpkSSJAsiZakXwErieRkSTqgA8XCRwsb6BjbX1wUc817ynMoYMSWZWlmeI9EabVXDe0aWGsDbkCsm6Td5liHRGtOTCZQCrjz8EM6f3xJj13soBeycP4/BoEDTtkiSBK1zyPMCxWCAuq5BWkOxOJbyLINrGyJynKaJ9dYxew/TlCUUM9qmoS5UjXmxqBQwx4CpRgMmZpVGsbK+tobHH38cb7zxBk5OTpCaBCoxqKuqyw2yzuH4+Binp6dQSnXBCW3TiFOAhZtba1FXNUCMzXObeOaZZ7C1tYWGBZelTn4ETJU8lBSrhHcepEmcC9C4d7SP733vH/DBtWuYz+cYj9aQ5TlMmmAyncE6j2xeogdqSNpKICIpFBb9Akos42DMWOswnU6XShrFrNLZbI40S2AS0wH1HWfl6GNYOFBi4LfnUK0kQIMB3kCSpEiNxvHpCX742mv44No1fPGLL+OxJx6FMklI3JNg7aapkJgEiTFdjlvkqm3bwmvC+sYGPv/5l3Dtow/x4UcfQYWgIGctEiXzrssZ4CzqthGVzCXCLIJqpUCwTYMizXB8cozNjTV85vnnsLGxGbipwG1S30pSa5qmQWtbtLZd5LWFTAChKwVlDEhpr5R28RWTAsgAYu8UA9QV2QpEQBwUHtYh9zyEqYXNch6onYfWCs88+yze/+ADHB4eigt1OoWzHjrRXSJYrAgyn88xOT2FSZLu1DsrCrXWCutr6zg6PcLly5fxuc99DuPxGM5ZaKU7zhHMhKAjMrQyIImGhoHG62/9Aj/7x3/E7t1d1FWFPCtASixT3wgi5j2jrpvgXxfjIWateo9goIW1iNpP8MB69rCth/d1Z2ETkUTsx4MdipzFQURLUBKzR0CeQgCx1Bdw7OFaL9yGCLPJCRKjMRgOQMx4//33MZmeYlr+Dp575jmkSYKyLpElKYq86DhrlxbjBbOOtQ/SJMVLL76It99+Gzev3+zSxo8nE3F5J4l4DcO+GW0A59BaK6qZ1siyHK21cE2DLNF46cUX8cJnPovEJJJ0mS48dlFdikmDNnjxnPcBHuOwBiQQqNJcGOPysGbGkoNTTPOmNFJicFGXKQZLSBEI1+mEkUjzPEeWGszLOZQxuHTuHL7w0ku4deMm3n77bQCEqiyRq6IzPth7VG0r5WCI0DYNyuDGNSTuSGUMnHcYj8d4+Qsv48qVK5K96aNrxIPZLXDFGPoWTJWTkxMc7B/gh6/9ELdu3USaFtAqRessvGUobeBbi7yQSB7bWkm6cw4mKJO2aUVfDxX7iAmOY2SVlHb3fQrEslMhMQbgGM/bI1Je3KlCLJYsRgoFIy2qXUabzgDVWsOkBvOqhIbC1s45TGdT/Je//S/YvbOLr3zlyxiPhmh8CwONuqqhtQoWuDhrgFg/QSonbo3X8fXf/V3s7e3jF7/4Jaq6AphRlyU41KWCZ7imhecWnKbQidRoFt1U6KOalXj+uWfxp3/6p9ja2sJsPu8MJjFAJPhHagGIGzeWKoqH1kMOqthExKQISIy3pOCIYFxm4QqLyew0aetGUZqyUoqcd7IxAdfiluGJ4UgI12gFkET1FEUB7xnWM5566mn84e//ARJt8Mu33kRbtyG4WVxlhwcHsK3F+vo6kjQBhziA2XSCLMlQDHIAHmVZ4fnnn8OLn/sciiwHtw46SdC0tsMWmaQkEAC03ooBYC2uXbuG//qd74BAyIqRuOu0VGHx1goRMsP5WaipFBaIgbpu0dWvUqL2ROt4KaVEKSi/yNyMXp34HsE9cVa8zFLcaax84p2T2k6KoRODVKcoywqkCKPxCIkJMFFVIUkSDNMUBQG3b93C97/3PQDA17/6NWysr8P5FlmeiS4TuLUPhy1NUtEvPcMR8MzTz+BP/uhPYK3DL9/4pbg7ncP0dAIAGARnR12WcG2LQV4gTRK0TYP5dIqtzXU8/eST+L1v/VO88JnPwLUWtg3fH8jVOkF2JPeLulRyAICKzEbow7OHBxMzQRMzowZTCzNMNzFIBxgOxu5An7qIPwoRCKcSo4bAcCHszQPBYIm6bGIAhBI3Tz3xBFzT4HQygbMeVUhrMAOCtw41anjnMJ/WaNsGOzs7SIyUSJzMTpFlBV588QX8s3/2J3jqqSdQJAmqugQ8IY2Fe0GYnEpgdjEYIVUpYDT+7M/+AteuXYNOkxDsQSASYLttHawVyEoimVzwjsXMUXF2ePady5JYEv5FxZA0aqJY6U9cv11JnR4xevYwXjhINPgixisXDgXDIIRkA36stcEghFA679G2bQeUzw7nMFmOoshwcnqKtiyxvb2Nqqzwo9deQ1NX+NrXvoqdc9sd0I+Ql88Be46GpzGEspwjyXK89NnPCrqiDX75y1/g5OQU9bwU7u+BLE1AzqOuasxOJ7B5hkQbrI/HeOnFl/CHf/hHePqZp0FEaF0b6mH5DumJyAcgEJ8PcCLHNaBF1Zpg/TPA8F7ZtvZsLcN4lcFRhsQMmsRorxTB+VDu0Kvgh1UB2F9sBTN3dYokMEAJvgbG+vo6Pvfii5g3DV7/xS/x7jvv4M7uLspyDjAwGo6wtraGvb1dEClMTk9gEo1zW5sgUnjp8y/hf/pX/wrnz21DKw3rLZIAIkcxSETYXN/E4fEhMvbYOz7GD3/0Gm7dvo2qbTDMUoAkT8kxBbgkRE+FGFTSGppEFMoCOQmj04tymB1H5AAoh7KMKsRDxEj8PpeMAS9lVYoITwyyNEOeifEICuV1XNTNVEipNqFKiu4KclhrMZlI4bnReATnPOaVlJ48LSsUwxEGozVMd+/gtR/+CNa2+OqXv4yLFy6Kd2kB4AS8WQ6iZo1BPkBjWzCAL7z0OTzz5JN45dUf4jvf+Q6Ojo5w48ZN7O3tCRSXS30C27ZYX1vD008+hS9/5Xfw/PPP49lnn4VSCicnJ8hD6vx8PodOgo4awkTZezGinJcaVjHUc0nKACpE75k8A2U5KW1hBt6hsC20a1uC8vEUiihbRJx3GZ5qUfArCVH+Llht0bOQJBrD4RBf+tKX8Mgjj+K9Z57BW2+9hbfffgu3bt0MQRwKiU4wHIzAsBiPx3jppZfwuc99Di+++CK2t7eR6wytkzypxEj2ad+3X9Y1tjbOYVaVeOWVV/B33/0uds7vYDQahbRqISYXikn0jQvvJc5ABbEjhEodTBYxT9/b5Pj5M6PwafkQx4MsT6CrttfHDpeq6QWu7L2C91XAjwnO1fDe4vj4CEmagXQCZRIYpEiLFqfzEvAeFx96CLPTE7z++huwTYtvfuMbeOjSZVR1LUSfF1BKDGLBVyVcUhpSSPXsfCvHN/+b38NjjzyOw8ND3LlzC7u7uzg6OgpVawbY2NzEpYsX8eijj+HZZ59Gnmdd8bs0TWFMIingcV1DkBGCK8k7kUrOOYH99AKPVZGzeoJSIGLvbUAMjB8O4QcDLr03IFLWWumD5Be5QIsENQWtU2htOq8IQ/QsMElMgFIgJVU4xqMBRsNHceWhS/j851/E9es38P777+H27VuYTqcYDj+P8+d3MF4b4sqVK3jyySfFFWtSWG/ReommT9I0gOeLAltd9Q4wvvf97+NHP/pRALplwaazGQyrzi26lK7MiwCJjmjDUF3YGbriuH1iXNIvV7hpfzAv6jG54IHpS4P+5/tlJKPOq7WCIo+6KtG6UNW7aqCMZHSmqYRNTicT7GxtoXUW4/E6kiTBu+++C6M1fu+b38SF8xdR1xXm5VwKtgWdNd6HIpE2VtL9MBxkePbpp1HXDfDyS/Deo5xXKCvx3m1srKMo8rBuCFkWcmjzvOjmb0wBdkDTtBiNh8iyROiKWHKwvBxc5yRoPs4/NRoqTYA2Ia4buNlMCDXf3kaeplChB5B3XhoMkIImgCNXDfnnRmtoo9E2Ai9EMahC1ea4Z1oT2taClEKWZ7ic7+DC+R189rOfwXwuef3D0Qhro/FSuJ6Dh2PhuOR9V6PK93zVERsc5AW++93v4m/++q8BIuzs7GA2m8GkSXCh2o5bdoXKYtJdUOJjxH5HpD1CXA3+uE/ERws+HgD0PE69z8aSlrFiX+TGkVi64hFKLRGqd4sSm8ziiqRWmpzlucXk9BTTyQTjwQCqBQ4nM+S5QEOvvfYaBoMBvv71r4uBxQ46hu2F9YupPCpw1dCnAsoAhU47n+dwOFg6hG1rUZZVh4P3xXbc/7hsWSZY6nw+B0MhTQSFMEqHdJQUJuixLmQ/KOehnRjPlXNw1sIkSkF7zyZNWmedZzC8k5LY0acMIES2BKwwbIQOJdEFwhIcrl/uu/PCMMMG1SBLE+TZZmeoeTAqW3ewiSLduTEzk4JZapHG5MB4D0opvPHWm/jO3/89SFFXxMJkGeZVBa2TUIt1QWBdjSWluu/vu+/ifUeCi9Z8fH2Ve0Zu2SfkPrH2a4YaY7pQxVXC76sSC1VLjFgglUp7IGi76AVQNw3SNMXly5chRpJC1dTI8wQ7OxdwdLiPn/3sZ8iyDF/76lcxGg0lZiNc3wdPmITaReoC2En8AphBRktp9EB4UX0SaUC99SDQ/UIlBB7Ir/OyFBoJb6zrGoW14FAfFsFAZfZwykBpzfOy9F/50pckR89XFVySkIFl750iknhDkxj41uNsLiLPpWkKsLDyNBQyi2JWsLvIaRbJzBxKdbvwvjSVOvQJaTRtDRhCliRCSLwo1ahI4lklXlXj9u07+LO/+At473Hp0hWUVYm6bjBaX8Pp6amoC3a5nmooDiJ4sF8ctiiio1HV35j+3PtE2SfWJbC/j+32uHEsktsfqxw1Eqp8F8PoANuoUFq+pxY757C+vg5tDE6PjuCdx8bGBryVSKa1tU2cnBziZz/7GS5evIjnnnsODIuEktAxSMFQb206fFecJyIpF3OP5eG1VjBGIU2TQLgALWFwfW9GmKeKDUMgjoTWBqePqDV5IFYKhiUF1uwzzaPREHmawWAwAIhMNbeFRPqxVPDj2A1DdWJzsTkhByosdESTY5B0XHC1UghJqQVy4JWHYr/AKOGXype3VrxQipQk3EGCd2PRgjfe+CXu3buHq1ev4uDoCFtbW3AkBbdWgfhIYH2ii5w/5poTKbRt1ZXHjASzSqiror3/sy8G47Wj3z2+Fok16qhnEbpcX4WiAtTdryBpIcZBSXeTvf09FEmCsiyRFBKW2DhRMcajMQ4OD/HWW29hZ2dH8ttI4g+W6Kk3T9L9Q7OQDpFo43PRIdRT+e8bQpsUCrDlYNKAk6LLw9EAddPAtg0aluCVRIe+AAw474nbBWRh7GwGpKkpy/k6mI1SmjguGMXNXS4/01n/URy71bykgNZ1HKAnLpdiBQS3TJO0SwDsb2K8B1FHfAeH/fCHP8R3v/tdFEWB46MjZFkedCC5utYGzjFclzWgum9fWNe+IyQX6lt5Z0N/K3TSoK8/Rl0zPt8/wGcZVGmoXVoHyzuWx1z9bJ+jLXHkkOUg9x9w3IhceI/ZbCZRUoH42xD0oQio6wrpIMfADfHuB+9jc/scvrK+hmExBBHD+RYIolgH5ZQ5rpFIFx2qUS8Il7qfcZ8j8X78kNKhTWPhrOuqdo/X1gQNaRoxXLV4rDKdkAJxArAKX2oK56DbFmDlSWnqE2X/dHc3x2LlKdKdDudDGm7MPe9cZ3jAUVsZZ0XqE1HwaISJagPShIOjA7z66qtSfcUY0W2Ygx87bvgydNSd+E7RZ8RqLVLHv8R0Ou0w3iykyvTvK4ruWD90ce0HE2pUKaLkWayXv49Q4/p2xh4ABIkT/Ir36cDlvMSgKKQuQtuC2IdWPlUXare+volr197H66+/jieeeAKDqwNoUp3BHAORutY9WNgXfU67Ot8oDT5uxCZvNkiiuq7RBI5aVRVGa2sdytI0jdRE8B4KTJqYbGuZgqFj3HQKB5BJs7nWCdq2odhq5ywRGJZsSb/qYBpEnSWu7qcjVJnU/ekVEtnvoFXSueG+973v4e7du3jooYdwdDKBuH4kZ13qK0llD+pdsyOmzi+z/J1t02I+K0EEDIoBTCJ5Wa5uunXoQ0j9z/cP9ao+X5Zlt6mAGFcR8lpd07NQhsjlyC+4HMuFxEZIks44y7IMni1YKRTFUJphQFKCLl2+gtt37uInP/kZRqM15LkU7x0NBkgCZOTJL1QReCiYztjsz/dXGatqU0xliQd2Hmrl5rmUbnKtVEqRGmMWLrWg4L5TnhnWOd3ayoC96Vus8Uvi6HOCyBm6TQoEEGNBPzmf6VNMFASltKQSA/jwww/xox/9COPxGEUhmJ0Hw/LivnznZVp+9K8a5zWfz1FWFZyV4sNZmnV1B2LNzq7Scg9eiuFpseT5g7jqfD6X8uK9riuxGskncSO53gI56S7NordF71fk1MaYLrRPaQ2TpKibBRxmjMFbb72Fd999F8NCqn2DxUu14O4RXmR4nN1M70GHc/Wg9m/aGAmuSTINz7bL2i2CNDBGoSwlkMVai/FoBK0S+EZBkWoBQDVNQ1VVZbOqPm+tTQAsKfl9L8p9MA7h/pv7DcZ98A/EEJlOJyAQvv/973eFtXZ3dxfvWyVMDzjGfUbg6mibFjZ0cBmNRhgOh/DeYzqdYDKZ3EeEqwZTVAX6Yrv/c6mXAC/rx2fd1/3P9fAdYFEUJqhg/XsTYkyhdQIyCUhrKZ0EQuM8TJbj4PAYb7/zHubVXBgNyaN/z4v1/80ZDRAyN+yir0CnwqwYo9F+CI3lSGsD+JooQApKSu0oA2tT56HOEklxMfpir9O7cD9+GH+Pwv9XfXSnMwT65nmB6zeu46c//WnXDdkxdyFizJJw1xEEnUG8vUfc2DT6wnkRt9A0Daq6hHVtd+0FIZilx2g06kq8x8MduWw0umI9/Fgy86y1Wh0LqRZE/spbF/BXt7FLz0s6u5QZKoqic92ORiPcuH4d//iz12HC6zH6bNWgC3fywHv8NINd7NvluvtcYnSILSrjd3oQhSrg8FQ1NqVwM8p7B2tbxdpYRax870J9nYk5+L/j6xpIE2nFuISz9ib36xKqh+QR+c5lqvCjH/0I8/lcNiNwQICWCBAgiRmJUiBwjHhvkUNGED4uUuwl2rYNnJeWj4NBvqSb9gm27zpdmvuKmpGKx28RXdX7/Opn+uvcvRaJlPm+cEG5FpYItf+a1gogDVIGUpZIIS0GODg5xuu/eF3ytDpEQ14/g9R+g0eIte1fjXkJKoy/950gYW2YAa/0ooKdOT6uMJ/PtKvnA+usEj8+Yzwao6kbTCYTaJHxUMHiJRUIwUqnEcVAa5suf6pbsDOm/qkHM+q2gdEJdu/exY0bNzAaj7rqf0I4vfpLjEWasBeuGhdsSbQphURpaKXQVE1HPD5krWqjYHQiRXd7hBrf130fsMQ9V8Vw/Bm/G1hwj/41ftXRl3aKVNfaZ/U9KsR+xo7R8aAUxRC7d+/il7/8BT7z/LNBj6T7Pr+4v1/nPoPhF5hbZF4LZ5BwztbWcN6iaUK8g4g3WGu5rmuwY0KIz1ZlqTCdgVoHKoqCQisfnJxK+RpJ2jvf9dyMeqlEHS1urR+PSaBQlxS/9kMRIc9zMHv8/Oc/w/XrH0IlBtNyLr2mmiaoan2uFMPwGOQZGgRNgNKhlY1WgiGGVIgYE0lKQScptEnhPVDVFlXVLuml/U1cffTrv/a5beTCUVUAsES48e+zOOsyx1YA7ufCwILExICNOVeMWN6jbSxs66WUPDPW19ZQVRV+8pOfoqkdWrvg9h0//DUP0dLg3vz8Yh3iukg268IBEgPPQeIZtW3tHbSqAEwAmMcf38TBIRhQzgbwtfUSRT8oxH9uY8ovc+dyLAYDZL1CA6tG0G88TxYgvqxK3LlzR9yZIOR5IV2fjcHHnXYCQktvWaRo3faRiq6THDOSRDiQlXqxonf29KezdMvZbNa9fpb4fpA1vBC5qlND4nN9B0GSSKzD0iwD8seQfDWAQwUXdJioEJ7rApYlN6mF89LpzwSpJJLAQ5kINf52DCi5KxnRmCKi0CBOVKGmbTBK1oQRMCT7OFRYARG819BMSQqoBIBaW7uAwfCcTXLVtHVLcWI2VF+bTCbY39/vxK2Efc1RVdVSRFOMN/ytnEa5VxAR9vb2cf36LSilu0K/ZVNJtbRPuVyr1vhZhoO1NgDOEmebhlbuHzefVULsi/zVEMDVayklzd1iPdI2HJBldy/Ds4P1Uj6IIRyHlXBO6yXTAkqDlZQ/Iq0BpWMJYJACHEtvV+ccJtNTeGYcHh7iH1//GYbFAKQ0pvMZwBKlFatmS04TdY9PkoML7XTh7GHmrixTXBeB/ywMKSQmCbVzFawTDyRAUMoRjDOAdPA1zp3CuVM/Go7nbD2T0uC5fFfE+yInihUvyqqS0ix1DYdQZCHGr0Y9Eb8ZlkqQhrAfXPsA+wd7UlI7NpjtIrkAv1iTM0ffyuxjv1H37Iv1yGFMWLy2Xbb8P+47+lzyQe9Z5bSR2/QhrP69LuGthDMPVzQu4QFPvWt06lmfmy+KkbVti2vXruH5557D+voGTJqAIedfwiplD1Z35eNGtw0EMBSgJKbu/M5FzOc1pvMS06oUeyeqVNK4F23rQKThyeN0WoJMZppJVShmdmUJo0BoW5dPp7O12Xymm8aiamqhci+gLOsEk+mpVNUYr2FjbbTocgEKZSqXoalPMa+PHQSFqmrx/vsforYW4yQFPEk1wDQFkQoGU/jOle8S0ei61Yt6ZCSQVagkiu8+R1s1nu6bX/9+HyDmV9/fN8QiGB8DfJi546wRMuujBf37ipJv9YB02KRadDNZjICPkwSufPjhdXz40XW88PwIg2wI9nIwpCBeLGz5m0tI61rJBPAOrRenR1Rf2PuuqoowOwXPVpz0xmgQecpzmOl0iqPjo2JezteVImJ2MErDW+k3mqapVH92woE2dnZw+dIFpGkaCtGG7iS9jeiMrl+RUuOSREvx5PQE+/t7KLJcyiB6Ceo2SRKgjyByzviaaNDF0pR9I2apHfiKhR4JuV+4YWle+NXVmz4nX/38Kq4Y7y2qXmdx8nifXfQalrMUIrrQtIu2930VRLQKxunpKd5//wNcvXIF57d2YCnE0OpFX4NfdxBJpRrJajA4f/480jzDtJxjf38/ZIVEyeY7aQaEUqAsiFINcN00MBUz5nWtnbVZkWdktMQLzqYzaeZb16A0W+I61tolq585GlBnc5RPMxb6jXDTsqnw1nvv4PD4CMZk8B6gBAAreA8sWrX0rtEZGovF6rdEX21OG0c/Iqq/8WdKCZxNqN4vEtUiUZ/FWfuvGbPoPN3Xc8+Ko1gdRNKnaXVExwSzNK/rc2KGOBGUCqXnyeLmzRvY27uLna1tkJJOiWx9B/1133ffN32KwVIILeZbmcQAWuF0MgHCHnT5bH55zRSMskSmBVQNQI3Pn+e1rc1qmKWzpmmUcy3AXgIFBgPkRdGd1tF4DOfcIv3Z3F/zeUkX4+XH6vu6eILwd+TABMJkOsF7776HyWQq7b2dVNiLyYQ+Jg88cI2klmuceNu2KMtSKuqx1IuSGqDyWvTtAwsXcvTr9zlwXMw+BLVKxPHRd5meFRLYRyD6xt6qPt1fr1Xk4iwijq7bOPoE36116Pt0dHSE27u7OJqegELfgLZtfmXCvG8fGAAWDME5h+PjEwlNZKm0IodoWb3o1k8xdJJqy6ystTBbxmBoEq6dU1pLTkuapmitw2w6x6xpMMgLFEWOk5MF5xBM7OOLk3/SiLcY3Z9aBc5MwGQyxcH+MYxJkWSJWLTQcF7SmZVSS56PTvxTQAxAYF5sdpqmS3U7+4TTx/ceBEV19xxe67+/rxL0ifcs3XaVyJdwxTD6aTer141/r35X38CKHDrLcgT52r0mapkQiMTgEu7e2cX16x8hf/JpyfZl7mJgf90RSxUJA5LIfl/OxVDrZaF2h7gDXgOiqJTSmmg2L7ksS5jwWpNlua3LOdW+DjsinhnbWuih1HNiZknyC7ikug8i6k/sbG8HAYvCA2C0zokUJ6kJpZR4W+7evYeTk5PQXj2FColpBIFlfG9z+jrqsldF1JO4kX0CWBW5cfSNkshxz+KcwP2epv7ry/exGNE4WtV/+9w0HpyoqqwiBqvu7f7fcW5aayShLf0SbNgRuGDMSZrg6PgIt2/dxiNXHwluXw1F+tdGbQiE1kkzEbAwIq0XgU5N0wAk9XPbuoYXio4fBjTBsk+O9vbMe6//XHTUWdNgMi8Tz5zEBZvNpiCSULHxWHdFzbz3wbCSytCdC7OvGGLxfd3/Ue9YIaJYWoZUzLq0op/OS9y8eRt1a5Fmubg0tZZgE1Ao3AaAFu17Oh23RxxKvrzbvCgN0jSVTQxGSywi2917TzQv6Xg9olklllWD7eM486oK0H9v/2ffBbtKsGepHAA6hwwAVKHcJ4CQOMddKZ0kSWDrGoeHR3jooSu4t7ePt99+G195+csLzPaMHf20g0iaiAj+LYXn6qaGYKQSyS8p5BbMyygLAWjrMvng5o0B8pGxtoXaPTzE9Tt3tuq62tCJRp7lXQfnREtD3ojpgRbla2IW4ifd7H0GRfjp0S81iLD5Uij25s2b2N3dDbWppEbAamBIMF279WPmzjfve5va38y+uE+SpAPc+5yxu9YKhLU6p1XvUvxcfG7VE3UWx42f6RtRADpcNX5PH1qLasJZiYb9+79fT17o2T4gJmtrawGfNiACrl//CPN6jjRL77smnXH9B34/GIlJMMileqLSGlobbKxvIA2p7H0boD+nWOfVth5ro6K++vC6vXRxBDPKMmQKDbyvmBSxYhiTQCksNRzTsXlvgDwkvXlx4/ePM4iYl3+PG9RhhUQ4mU3x4Y3rmM6mIECq1yUJck1ISHoGxF6o6HWw63Oz+O0U/cdYJow+wB4B977+2LfK+9deJfql2a7okGc93/+7r1dGDh2vGzn9apRWXKvV73kQ0SwfllB7ARITYZ1DkhahFHyLPBth984e7u3t45ErV38rbvA4pAPgshEYjXGZ2yJoBkDsvWq3tnaqKw8/xeVsDnO9qnFQzwsFV3gHeLYAJDwsbmRs0rWU57+y0Etk2YGqK3+fMfkuYQ5SfPfo+AhHh4cAJPfbOoc0zztHXadvkQRerOK3fQ51FoeLJ3lVnK6+J6ICfdVgVVc8S/QCCz30LB32Qc6AVWJbSK4Fx47f+yCduT+WVI/wXyRUQPTf6XSKuizR1DWSjQ1UVY0bN27gkSsPgyHV/87iNw/Sv5fmheAHi0H4wcZBKPuktZbKglqYTd954cGkjOb10bpfT4eMxkMdvPuu2r95e1A2No9Zkp3XgDngbmpRciX4wEVh7+epE/gT9JilqfUmq0nAeQXg3r09nJycgIgkpyYx4h3zhKZxaBvpyOFCjyPPDMu9WqVEHxsH0Oe8fa9QnxjieyKRrho6EfUwoQdq5L79ytP9Q7I6VvXdBxlLfb33LIjrrM/34wwWOwOph6BVh5iQUiirSvpHeUlV9/B4/4MPcDQ5CeVEPv4gfNwIpCkIDFGw5oVPKxZ7RWsdml4sriXVtj0UgWb11I+GOb307LMwe8dHVJY1Zzph9p4sEaQjsoPSCjqUwTah5WNdNRgNpQFtJEyx6OJZ7Xk1OhYYV2vhPe5iglhOnQZwNJ3g2ocf4nRyKkTiLAbBAm7bBjZwGAnLM6FRReCqYeNUIHoKXJ5WCHB1kftcNHK8vjszqgX9VOdVUd4H6aMLdHVTH8R9V63//jX7z68S8yqh9FGNswy5haEiFnZsmtHluIX5Xr9+Awd7h9gab4Q94i4L4FcdQqihEmRnVyw7ZIBoVwRPo4f0fSWosqzZefBwMIDJNzeZksQSkdNak5RRRKju3PvSiIkRCTBMPS7EEXPj7mbukxmx6kh3UIO7MlS5VkT48KMP8dH1j2DSFCol5EUBZx2OT07B8KF9jwNbD2MkYoiwsO7l5JIkTKllIu3rlH0J0edccSwsZe50aVqa1zLB9yGluOGfJJYfpAqs3sNi/XuByMzg3gFdXW1ZZ+k9AOYzyUwwVDGyAHQhj5PTU0ymk+V16M38weNByEa8xQiQ0tLbRQKF8kIKoTIkgbRmbxKvY7p0wcwJUauNFsFirXBIievvCJR5GbskBLgpvCey9xXzcCmiBkubFxX7BW0765CmKYbjEWbTedBFxcjyIChjoEGIzWFXv25pMXnZ87PKRVet9z4HilYxQEG9IbBntI2DUosgEZmOHA45bApaMYxOlrxi8XuiEQcs1wnop2Gv6srx833PEiAGiosqidadZOlb+877jlA7AD/UdwUzvG/RNhL7muc5SAG2tTg+OUbd1kiTLBhVZ630Jw8Gh04sIa0mHHy1su6RmDtDlhlGK0WnJ/RGWZu7AIwyBo21aKwnzQDBQ5EB1HIRMe8XufL9DQ8rev88+kTafaD3a2BMupcSfHB4gLIsMV4bL7sKFcGoRIIVSEHFRrS971jiYAyQXoTS9S36+xbzDM63igAsOOji9dVrroYExsbDqwbe0rph4a49C25aPUQUuKS0V2K0oeNMGoKvY5R87GZIGoAL9+AZpAQC1EphOpmA4ZGmBlmWAiyd+zws2rZC1TbQiUYsJ7cwAWL9hJ7wjIve/SaUpxabs/A+EUJ8a/hEnFsvsg0EtI01uwen6eHuL02+PYWZzmYoy3lqG5foVJMy6YJTAgD7cJNBEVYAk+v0D4kP8ejHLtKnDA8jUSKhALTe4datWzg+PsbG5mbHySXSXdrgxEQ/kIT7+Z5Y6wiO5fsjHnCWSO8bJn2CW+Vky/d6vyiOn4kBL9FK19pAurUvG1VLRsMKTrt6qFY/1xf9KrCgiCporTtURCBFgnUNAJbGaiQVF2O6EDNjOBzAGIXJ8Sls22I6n6AoMuzZFkeHh7C2hof0AViYycKVhUfEb+xWpPs/ogw6cPnUJEGCSNRbzLZwoQmzSTS4S4mRQwhN0IPcjedabd5uYUZJQgkpnyXGm0QzQ0oEJlm2aAgQN6/TUTvbCEsESegI5JMgDO4mLuNkOsHdu3elowZRV3szujm10sF/H748lkC8z1CR+/JWeg30MdE+R+tO7+p9rdzz6mdWnwcQItbbntElXMfx/deJ37F6vT5MtWr09Q+WDxPsow6Rm/ZVEnmOpI1QCKXr1IugTlVlhTzPQCRp4gwpyrF/dCA4Kww8uYWe3qlqy/lyZ+4uL4yn2EmQud8KNKoErqskrrUGGLBs4bwjlTqfIkFa5TAXtrd5c3v79OR0UjVtA2LqANoFN10WP/E5pVSo2NFXtz/eol0iAkJnTJ0cn+D0VE635KAXSEyCeVUiy7IOFvNghKqRnaUfucQS1yNeqiYS70Es477oigSzEG/yO3UbdNZ8+vGjq56kj93CQIj9whX9LNb4d/9g9Z+3MeKsR+yrlj6YOytaIXq3FIhMx2xc22I2m2FjvIY8z5DnuagvBBwcHmIyOcX5zfNQUGAKnQu7Nfo0XskFv+Weahjn2eVSedURqlJKVM7Wg9iz9qmf7cxp/+F9UsWjj/JwMCjB3lVVxWDGaDwWq3pVBwzfvqpzLdPg2cr3qgET/8XPTqcT1HWNqqpRVRWGwyGUVqirClVZLnudAkeIxyIS7eKHlAJKTIrEpNIojRTAYhQ5xyFYl6MxCmbh2lmaYTgcL3Gpj9Nv++J6IaYRVKPlg9p/rGYbLK/nMgzVh550gMJiaGIc0RWsY0XwUIisbhtYiI8/FoXrr+PJdIJiPJZ4Ua2xtraGe3v3cOvWLZRt2dOzF82KP3nI3nZFHrv7XzCMmOEgumvPFnIOjkPXwtQhPTTKXE9gniDCd601tbVaKw1ogkkT+EY+ZIwBh2BbZtt9WWulkFWslUrEi2j6HrF+3LmzfhHYMptMRR/VGvPZDEZL3EF0cTrnQpCD4LQxxK+vYvQPQMQHV/XOPkIRD4qPK6qBJFHSV6mql4JSPnZbekQqg5fglz63jM91+U60wG37Y9XAEvVHEvj6crcfBxBRBGstsjQVMD+khtvA4Xz42zU1rLUYjUbY2NyA0YSjo2OkqTTynZxO0DQ18iTtDErq6kF8HLQmiiEDYc90B+7HCLgFshL0a15OvkT8Ptasdwz0toK5fvs2ZvN5O8wHrqKKiag7qQvLmjsO0S9HeP8mfnoYgxFEnBbDYDKdgUA4d+4cmqoGPHBhZwe379xGnuddsHaiDayTrn3RmhQrWzaQeCFO+zlHeZ53uliEYzrxQ4v5xMDw1VSUs4ypB+ngHNas/7lVoy7mS0UuFw2yuHnxPuP7VQjuiCMJaUD9IO84mkZEeDwA1lo0zkpKsrWwTtqYt7bFhYsXkWc52rrEwcEBiqLoovG11lCQan8qQHR9iRpm0+28/OwbjMtzVoo6l2q8d62VdEXsBadrLalQ2oGysSGzqWGeeuopbLz2mj84PLZVXTtrPaytzkgXXrZYCbS0cPdt1sL+i08s3TS8dP+T/qYpjBHwfjqbdqkU/SihLE3RNg04RKZHhfys0TeWopiNIX73qSA9jkZEnUjqv75KlKsEvProE+qDPtdPkVnluP2N7OuixhhBWZiXYlajB81au1ALbN0dhLwooNhL2fSmga8qbK5voK4rafPZSoXB4XCIg4ODEMWUghSFnqoCHzlnofWqIXg2Y1I9QzvqoAvVZ1mNQ2/ekbNaB+hU++peQtPKSOB024gRBYT0bcSA4/5CB66KaJRQ1/7m7MG9/1eADGZI8zEViv8CzrVgWHhvUdcVjo+PMRqNMBqOpCyNMR1Q7Jy7z9rvrh0NJV4++U3TdEQZOVqfSGP9qf4mrCIX/ev5FaOmW/RPOfr66Oo8+iK//z7vfTfvvp67JDYh7dNBixwxsJRHms/nyJIUly5eBHuH9Y0NjMdjrG+s4+bNG3BgDAdDTCYT6e7tA6GuSAf5+fFzXQps517qfciRii/0G1gs6fzMUCZFgkxpmwg+NJnNktl8lkMpSkJ2aRd9RNKNWEBjQNTcfgpvaKD7K46om0auLHhuBec8Dg8PcHBwiI2NDYzGI8xmMzR1DceLXlM4g0iXr7+cWtKE8ttx81aNmGhl9+NC+6NvrcbPr4rms8T8bzL698ksFZvn8znKYFxG9SQWzIiF30iJqpNlGay1OD09xenpBM4v9PyynCNNEmxuboKYcHJygrIqkWZyDetckFrLB3FxFj+eWNvWIgmd+9I0lVqx3ktvBq0BFo8aEeH09LSD+IqigDEG09mcmmpupN5giDYgpbiqKk3OCUhLtEQHCy7iOsjnQRv6aUe8pulFo8cyM0dHhzg5ORFFfyxlX1wAiMv5HFmW3Sf2+6ey/x19DthP1FuFrNI0xWAwkBbgsXXmyrUj0cRrrIYKnnUPv8n6rKoYJqSXRN07fk+WZdJILlQPVEqJiA8qgtEGRZFjUAzgnMO9e/dw+84dGCNpzM5LTVjbWrigI6pe3dS+YYh+0NHHDBOCseP6CVLTy7ANB9t51wXm943Kjc11TvQA2UaLdLOGuX33LjbW161jtgA8rNTNDzUqQWSW9L0OqlfLfZ9Wx8JbHm42/HJf+cTwjrxnHMgpO0GRF7h44QJu7d7BbDbD+sYG/IrhEEdfRVn8H+6lx/ni39GYis8nIV1itRdU//qrakD/5zLX+eR4zQepCfFzqzqsUkrWKBh8sW5/fF+/v4D3UtVGKYXEGGR5BqVEpZjOJzg6PMR8NsUTjz+O8XgNTeDUXXYEQdrOB3RkeSaf0lhmhnOA0YLLi37NHefvpyUpJYX5BoOBEKySonUgSmbKaUctzH/4y7/EeDTyWisLZh91Glb3L/QqyLxICTlzK8Tlet8GodsAKe3oQZBGvzFAI88KtHUDMOP8+fM4f/483njjDWxubYFIoSxLUM8wWiaKqMD7pSipviEV40n7hBpVgr4x1Z/3pyHUZQ74yRv5caOPqkT9TpEE5sTX+pkKMRsh6rd5LtBeGdLDdSDUOvw9GBTY2NhAYxvc3d8TZ0uAzPKiCL0Mks4ZHef/adVwsZdDr1MEBCKoHkDAv52DSRcJlHEfVJKgbOZ67/DeJt8stU8dzGA4hlRoZO1BpDXBtQ5wcoMxo1GDwFYWQSnV5cfHuFICQkRTOCVncDbCIvoHFMskyqQGxRCxwZbRCRgex6cnGK+NsbOzA2U0mrYBSHfc4+zN9yDSXRHgfsB3PFwREjrLcu5nfhLoUzGQs6Crj0eQ+xt/NgTWxxqjRCurCioSU+j2HEHzJUgRWBBE+B7nRD+MB3j73Dns7OxgOp3i4GAfk8mkI/o0TZHlmVSl/hQxGyurAUCyCaJ13xFh+P5oHMfu0vGg9VUpX3scNvs7x/unOjEGqvKE0pNiBunIHbRaCsXqL+p9HBXoousfDBihez3+8xQALFJgKIFDoLA2WkdRFDg4OsKHH36A8foY2SDFYFhgWs2gUymkBW9B7KDgQezAcFJgmLwUrMAi5WTVL1/XNeq6RlmWmM1mKMtyydCKmB9D6ldJzOay7nu2Jfzx+Gp/9FGDs0a/iESsiDKdTjGZTGGtYL0AOg9aTP+Omx1x2Jg2nSQh+gyi3ly8fAk7F85jOp3i+PgYs9lswaEhyXmK+urMokbrpxnM/UZ06OyMOPe+cbrETVVX+Y/JKZoXuZ/mGRS7lrytNVvWTERxcVZFWd9Cjj/F2xAB31/t5AnXkRlZ2yLPcwyHQ4AgdeebBrfv3cXe3h52ds7jqaeeQlVVmM/nSyJvVRwzs7Sx4eWqI0uvOw/b2o5Y5/P5AmAPl1NaASTVVmL6MCmAlCAfWis4tnDeQhuFJJUooPh7HzYC0BFMH11Yve/+XPqEt1SpxVuwt5hOp52e6kPcaXyvC0ZxLHYWG46RZ/EUKSUq1c4O5vM5To6OcXx8jHk5R6I1Up3As4dekhQPLhonTxIkLrd7YqEe+YWa1LdtYm2qVeMQAEjBD0ajJhuNfDIcsmpnjpqJNY6YiEBn30T4MC0HUSxO2ic5S+8fOmTlxBs/f/48Njc3u9bY3ntMJxNcu3YNa2truHjxIi5cuIAqKP7s788MjYsRT6lJdEdA0jOeAWIoQ+AuXZvDokohWetatLZd4sb9YmRxxNoG/XY+CzG73I+Ke0T0IKSg/77+vJxzXWHfNE2RJhq2bTDIMmgisJM24loJhOPbFk1VoZ7WQMPIlEFKGtx4tLVFXVV46skn8fijT0BBYKLDvX1MT6a4uH0Rk5NTZCbB5QuXJAyPFIjRkyrLgH1HWOGhWB5EQGJMsFMWafZEsf4qQ4WYBDJ6yYBlRSBNPBgMqvPG2G2loEBTMKbaaKI0MdxX4jtjpX86eBHSRhT86mGRVI9Y6ZP+9Ywgow3G4zHW1tYwmUwwn8+RhP6eu3fvoqwqbO1s49KlSyK2mwaNtwE89ktEEe87C3rswhceOQF3wbmd65pEInjvQqyk+1hCjWJq9RHvJYrtPmbbj1lYTdI7ywt2VoCKvBbhk+XPdZscfmql4GyL+XQqIX1Vhf39faRpivPnzwOece/uPcxOpyJyQcjTHOwZ4/EYm+sbSzp0DEpZPFYIlaIBKfGrrnYwWqLrhsNhN5c4NyapbWuyFFVdI8kzWPZovQMzM8F475lLa33ZNDDWebLOK2YGE5H3voMOzuKRq0p+JLrFqQrlfuIEz7iGPB/ql0Zd0LkOnkjTVLomn55ifTrF3bt38cxzz2JtcwPRq9Q0DThJkIaTSbQcnGydQzS3oqiRh3x7V9Ix3GCcUx8rXa2W1yea/uE4qxrgWarTKtGd9XPVK9b/TIw1lefPDiuMfzet6LAxXaUK2QCXL1/C1atX4b3HzZs3cfvWrS6OgkjQl0ceeQR5li2L4t49fqpAnZVIKQbDRWxSdVTdixGQx2L+8IqZHcCOGUpDQ6Q+iCIRxgXoLYIDA3pBCF3GI1bcjGegbv3H6hBgWRbz/PnznWdCEcGQwunpCQ4O9sEAnnryKVw4f0Hy/WPLHWthrev6bcZRV3XX3ym+Px4yZj5TZMcNiY++uF4KXu5hm/0mvH1nQj+VepWI+w6HuJmR664aGquqQPzYg/RF7yVpL2bCCiZ9iqZpcO7cOVy58jBGoxFOT09x7do1XL9+HcfHxwEa9CjyHFevPAylFvh5f3waQzF+b/8zi1ZEEjcQPPXd9WIwdxyOiMlop4gcATDrgzHKsiQokvrvCP5vF046eiw76KSxaVW/7GRUDx4EZN83kcCJQ3ID8iTFlcuXYYzBfD5HahLUWoydo6Mj3N3dxUMPP4Rnnn0G8/ls0RCCQ4VBJIty4LzM0frcKf4e+5SucsDVIORVD1R/I1bFdZ/Y+2XN71OlVkT7xxmGZ6EIfanWn8OCsMV6btsWddPgdHKKJNV4+OpD2Nragm1b7O7ewf7ePRwfH8N7j82tLWitkaUpNtbWl+6hbwB92rG4p+Uq3h0dBSZ31meIiBV7r0k7ZvbeexhSFp5a5ZxnyfV28N521K1CfGOMc5xMJhgNhzDGYDKZYn04AnlxEIiDjUK6BO7bWGDBVaVOFEMr6eoBA1y+dBnb587hl2+8ga2tLbStRZbkODk5we7dXSij8ehjj+Hw8BBvvvGGwDLxii6gECxFaAfDQYeTrtZqIqKuUl/ckPh8JNRYJaVf7qe/eauE0zeIIi7bv2b8ffUArRLs6ljCFn3w9zF3/WE7ydbXoRUAJkwmE5QBxrp08RKuXLmC4WiEqq6wv7+Hk5NjlFWFPMu6Uvfra2tYW1tD32pfHbIeZ760/L5ec7p4JSKJuqPwOzoGSL11JmitfT7I6o3NTd/UNYz3DO88SbAxcQz4aHuBvd1GUPzivj7Yw1t7m/6Jpy9oFuIEkKDrixcv4vMvvYS33nwTzMK167rB/v4+Xv/561DG4NnnPoNHH38cJ8fH2L1zB9Ch0RcRfJLAO7HmrRfVIHYubhqJHorV/M7K+uwjBku32iOuVc7cJ/L+NYAFJ42NeuPzsZhFhKz6huXquE/0Y9HyJ96rFKyLHailQmJTV2hsDedbPPTQQ3j22Wdx8eJFGK1x68Zd3N3dxb29PdSltFJvmgZaa5zfuYD1jc1OB15dh0+1t3E9sRwj0X2W788UWBziYL9Ae5OkNklS5z3DCFwgEVAeXpGSgJTlNjILbwuHsK9+agGALqwOqn8yPn5Ivn74fDDChoMh1tfXgweF4LyA19PZFLu7uzh/4TLW1sZ49NFHMS9LTE9PwVYyVamqgSwFGDiZnqIo8s6D07e2++7TVXG7OpYadmFhSNV1vVTG575N6umZcZwVc1DX9ZIhFT+XZVmn60bmEGUSKUIaKh0uDooPJRxjf65554W7cOECrly5gsFggOl0ihs3bmA2n2E6mSIvCuzs7EArhTzL8NBDV7A2XodztvfdvOQ4+TR7S0Sh7i11DiHfJ9ozrtFdlxnkWyQKXtUnrJoWxioFy9BErLz3FKNm+ou9rOstW7mydMs3v6pInzUxIexI1IKrpkmKRx57BFeuXMG7774Low1ablDXDfxkgt07u7j6yBGuXr2KKw8/jNPJBNc/+giz6QxgoG0beJIg6yJPkabSNM3aBs61get4WNv2TnQkqP6clyVJJM7+OgwGC9WC+f5SkH2i73fuW6wjd3pf9CDFoJIl7psYaNIgWiAbzJItCkhhZQl0DqVB4eGcoCJlWeLxxx/HY489CqWA+XyKd955C7du38Tx0QmKIocmJUl+6+t46KGH8NRTT3Xu59X9/1VGQFzhCXDoYce+18Wa7mcO8XkHTwyQgvPELQyPRnDzOXnrtXdeRUxRGR3aqcQPEyIGuWjt0rs4cB/xfpKI6PA09gAkce3ixYt45JFH8NH160izDKopUR4eYjabYW9/D9evX8doOESR5rhy5Qps2+L2rVtg69C0FpoIqTEYDAq01qIs57C2RSRIZoe2bUL7yr4Off/9reqS/Q1beOZUR6D3Q0m89P5VOKkv/vopKU3TLIrwMoNpARX2gfNI5NKhD6jrOebzEicnJ7Bti0cffRRPP/0UBoMh2rbFvXv3sLu7i8PDQxyfHCMxButr650a8fgTT+DS5UtYDXH4dQjVs4ezDtpoGC0RXDybdHCZ5Nrpbu2899BKg0Ogyua5bTssiqaqiJuGYNK2ReJaRcoH/LNXSY64s6ARFOJY51KyQOME5LflqO4HE2nfmoxbIImBGuPRGh599FG8/fbbaL0Hz4ADIjR1g8PDQ7zxxhuwbYvPPv8CLly4ANu2OD05wenhseTZkEWNqqsPH0WziFKFtqUuiKMvapelgAfz2bBSXxRGcXiW06F/zVXdtx+Zv4oA3GeodWsp/IVCSfnOueBtSCVpMJ/PMJtNMS9n2NzcxNVHH8alhy5BGcLJ5BQfXv8Iu7u7OD05RVmW0MNFv7A8y/CZZ59FlhZg784+uYuZfcxriz02WsNDOqNY76R6jA2p3KvB7ytSm72FAzBpLNrGwRTMMB6kVCKwgBKFnIPfdoEpshR9iNdV1IG6gY7PFvGfMC1ihNxxuXKeZXjsscdw6fJlfHDtGgDRx+aNhnUeu3fvAlrhwvkLWN9Yx+bmJs6dOwfbtPBTXmrZ2C/S0Mc9V/Oi4gIt7l9gOK0XjXiBRSXovlMAuL+4xFkGVrd5vfvpGxmxcG9UIfrE7JyDY+n/ZEzaXUugH4uqKjGdTlFVMzA8tra28MQTT+DcuXMgkuj9O3fuYHd3FwcHB7DWhibMHvPZDEUxwNWHr+LK5SvBVvj10mv6a+B9C2Vip0UL7yT+wrOF906QiZAdQgB0YAyOPLxraT6ZGrexoY0RfNqM8hzHUtOJQUREWig6ctNAZuxdF/QcT4tZsdzu023j87hflHTEzwzSPfCagStXruCRRx7Bm2+9BSbGaDBC45w8Woujw0O8++67GOQF1tbHuHz5MozSuHfvHqqq6jI8o+64CtD3xfhZP6W1jVjj/dqpEZvsG2JnIQXx+/qtayL3PQuT7HPovmjvOHkox4PIbXgR4F23NWazGY6OjgBy2NraxNWrV/Hkk09ia2sL3nvs7e3h2rVrOD46xmw6hXMe61tbsK1FWZZYG6/hs5/5DEZrY8ld+5RW/YOG6KBKnD9EMKnUMou9c1UA/Fdhvbj+bVDjnHdUs0PDDsYNh1xrTc4zjDIUUxE2xmM0TYPJsegykkZcIzUpRueGADO8jRsWKusFd6jCSqW9Hqe6b9AC+orlBwd5gasPX8VgOERtGwyIUNYVXFMh8Rrz6Qzvvf8e1sdjPPXUUzh3bhsaCvPQTLjPpSIX6xNM32u0tMCQgxIzYJcIGssHsS9tHmR8dgZED7JaBb/jcCuetT6xKqVC71AxqOq6xWQyCYHRM0wmp6jrCmtrI2xtbeHixQvY2NhAURQ4PDzE/v4+9vb2UJWVtI8P9zIaDuHbFpcvX8LTTz8NTRq1rc5cm19lxM97L81JiryA0YkQbYDmVufb/U4CtcE3xOI+ZcsMg60t8rdva9dabbWFNiI6xaoEjJEWMG3bSuBr28Jb35VLly9B57MHsKjdeebowV3UUwwY0IoQ23devnwFL7zwIn76jz8FwWFtMEY5r6GURjoYgjzjww8/xHA4xObmJq48egUm0xh8lOPevX1Mp9OlUjtxIYbDIfI8l8CRtoW1LsBAOkiPiAy4Lsmti7sNwSdxM2KGQ9TdGYuA5T6xLghNdfW8+nAPmLsSkejpxZ1uGvKU2tairhtMJpKsZ12L2SwUishzXLh4EQ89dBkbG+uo6xKHh/u4ceMGbt++iaqaYT4vQUTSacYYGKOxee4cPv/5z+PCxYvSydo5JN2+/IacNRhlksSH7oAAi4MZuauC6kiBmOC9opQ0F1YxWQVDVQXfttqDlXUNgQSfm5cljFIoQlOtJEkE9ikKJMbA6P6pY0QyjVWKPjnsb+V1XvwgAi5fvojnnnsW7733jij+WqPIc1S1RIfXjTgC3nrrLRhj8MwzT2FjfQPNhboj0BgMvRqE7L0P0VIe3gYlP3IspUCKF3vk/aLEDLM0ZgsoiEdIeAwYJ69sxvJ0gxjv6Z/W++VVCFwoVs2O5d/BBOstqrLCbDZH00gHwtl8iqatkWcJdna2cfXqVVy8cAl5PsDBwRHeffddvP/++93cq0py/bfObWF9vIZqPselCxfx2RdewHg0hm1bqdT9G3BTWaZQabF3wL13nZS1zgKhq44xRqLuogoVr0GAIu8NN2y4gdHHx7CzmYYS2m5siyxJMRoOMBgOMS4GODk+Rts0qEJmYx+g7t0eokb7q8am9gcRYJ2A/S+88AI+uPYB9r77dyBS2NjcwL179zCdTKGMQDn37u3h7bfehCHG1auPYHv7HJIkRZ4PsL+/4Kwx5eHk5ARlWQo85X13r7VtYZRHmiShrfiy+zdWtV4F52PnFQleXujjSyHEgZu7wDGd90sBGH09tzOgfGxma2GdRdM2mE9nMh/Xoq5rTKcTDAYFLl26jOeeexaPPPIIrLW4fXMXN67fxPUbN6FYAV6ajw3yEdIkQVu2mNIMa+Mhnn/2WTzx6BOwTQNShMQIRISFh/kB48HclghdcbbuORCMCk32QrnJSKix4mBUqQCGIobTiZ+oFI1imHQ0ApQiDxCrQNnskaY5ts+dQ6oNDg8OulRm6x1q23blA4GQH9Nt0G82iKTqccse59bG+NrXvor3P/gA1z66hjzLMB6N5F6sRRoySe/u3gWxWIePPfYYtre3oZTpamFNp9NO1MS0k6i7Jom0r2QvgdNKKRjS0L0wNWbu1Jn7nCAcVJ+epKQA3Z3llWLmzn16ViA1EUnJcus6GK2qK1RVuVQa0jmLK1cewvb2NjY3RR+t6xpHR0e49sE1TE5mUKRxfHqMuq4laTLPcH5nRw6J83jh+Rfw7LPPdrokvAu1rVSndpzNXT+eSOUtHt4DWpmFBw+EohCXNgK31VqjqmpELUcRgUnDsmUCOcPEjgmmzTJ4gMiLJ8Bog6YRZT3PUrB1mE2nSPIM6xsb3cZXoYgYgM5f/2nHQonuLUJUVVnAb8UOtbd47NFH8PWvfw0HR/s4ODzE2voYgMBU9WwKZkZrEtwFkCQZSCW4euUKiizH5YuXMRqOcOfOHZycnICZMRgMMJvNMJvNupDCRGv4nh7ropiKHM7HtgvouGq/3cx9WgzH/xbz7aMK3vuuanQUk9wnWMfwzqJtLaqqxmw2QVmVQT+WgJmikNSdtbU1bGxsIM9zzOfzAOgfoW3akGM1AbMELxd5jqapYbTB5QuX8NWvfRWPPPIIqqrEeLwGb6UxsjK6s9B/LTUgYO5RajRNjflMDF3PLHh3Qp2HM6IESppMgJwjTZpMWniTFXAg8fWDvdJ6kfqcJAk0AXu7uyHgAcjSDCVNUZYz2FZKQ7ZWqhr/qvlSnziIkSiNsq6RZRm+8NLn8c677+CVV18FQsT4+vo6jo6OgmUPTKcz3LmzC2bAW4uL5y9ivD7G2voa8qLA3d1dnJ6egj3j1J12MJb3vgO9AcBpB6MTKLXcIwpBT9VGirR516vped9G+aUVISywVqWkbY6zFlmWdZ6tGDOrlEJbi9s4ctNyPkfd1J2o3NzcwHA4QFEUXffByeQUR0fH2N/fByA9umahKqJnRha6hc+nc2xubOCllz6Pp594CmmSwFonMGGUqM51uviDXOAfN1alTlM3mM1mmM/naJ2kw+R60B12ccwsbB7HDO+BNPFOJXNo38C08wk1TaOgJMTEeYc8SaFJoZzPMB6NkGUZDg4OMJlNMQrVNmRhW3j0gjsIoeb7p57Syt/Bw+V9qOmpUdsGW5ub+OIXv4h7e3v48MMP4b3H2mgEAjCbzVBXDep5hRNGB4+V8xLnL5zH1tY5bIzXkGiDvWwP1llk06zrIXVycoJ5qHINSCui8XgdeV4swScUrfuPSSzs/dFx1AVmLHqpuAoVEER/F5jtnBBkXaOp21DorIV1LWzoF5qkCkmqURQ5Njc3A7GmmExOsbe3h4ODA5RVCXbA5OQUAELWRAtNDN+2GA4GePrpJ/E7X/o8Rmsj2KZFlqZg9mCtobyknEQJ8puqcgAC5ivxB42Vuq1JnnWl7RfwndAQOwdmTy0M5o2htvUw+x+9i/lsQqQTImIylIBZUo5HoyGICFVZwoTqFtZZjAZDmDRFkoQJesnapGD9R6K7f3wy52UE75JtxJ2rxGX47JNP49pT7+Nw/wBHpydQpDAqBkGPsyAnOurkdIKb7iam0ylOTk6ws32Ec9vbGAwG2NoUETkoBti7dw/HgUhjmgYAZFkK7wnzednVNIgVr6UcohX9qmdERSLtwHrcj7t28wu6cTzsUWeN+ujR0RFcG0WieKOyLENiDIbDAUajIQaDYWhcx9jb28Pe3j4OQzyEbRuwY1RV0xmQGxvrGI9HaKoK586dw4svvohHrlxFojQ8ybydc1KBTwsURhEL/zVE/1mfiXWmmrZFG9Za6qYqOBcORqgcqNMU7KxupqU+3Tsmay2MGW8ScFd520AnCbSOEfILuorWGPPCdbpodkudAh3PIX1s/vfHnVPurqN1SHMhoPUtttbW8cd/+Eco5yV++KPXcHB0BAajyDI0WYvp5AA5EaA1ZtM56qrFyckp7t3bw6VLEjS8ubWF7XNjabtNCmlWdHWu2taGk+9Qls1SUt94PMYwBIsDAdCOlVeATseMYWyaFn1LV1NYtNbY39/vwgRjBFYM+VNao64qeOcXXQJVCOxIU4xH0jFmNpnisC5xrxel771D01QgaBij4L2D1oS10RB5mmFrbR2f++zn8LkXPotBUUi3mRDyqKLXC8tOjl9rEC3p6ETU1Rao26ZTJyINGRNoK+jr42KAqm1U2871bL6vnXUww0tD0FuO4B2MTlipYMkuAkWF0uEC7CBvUBrB108geGlN/qln9ik4awdOAuQBpzxGoxH+yT/5Jzg+PsYPX/shimKIeV0CzDh37lwowGthrQdR0PEqabUNSH+qopBCaOd3zqPIi8AtM5yeSCOwsiwxnZ7CGNMlG3rvpYwQLYf+9UH9vhcp/h31z+jujBBUP4glEmMXO8AMow0cBG81xnSF20TPJZTlHPP5HPO5uE7jvck5NVCkkSUZTGKwvb0NZuDg4ABffPmL+P0/+AM89djjYFrE5jprQ68qFQJSVBfHcda+/Kpclkii+tM0hWmapeIm8rp8n2IGeQa0AltAOfjyeM5108Bs0wUynJE2RFop9A3WziLt6VtKC5QDiiz+VyHQbrqfNDURPESCTXoPdg6pTvD0E0/gj/7oD7F7dxcfffQRdJpga2sLdS0R/MxSYMIEyKmsKvDRUVcEbVAU2NrZ7rjZYCA6NylpdKCNkXIzvZpVbduiLMvOk3JfxFXAR+Mmdt6olaioyEUiUcbY0xgTsEAT0AUtC3EDRJJJenx8jHk1xWw66aknClVABYqigEkSDAcF0iQFeca8muC5Z5/F733jn+Dhhy5JQHpPCe13vxFnxv0G0W8ynHXgoJsbo0PV6RjXLPutlIJihlEKdTmHs55Axv/BN7+F7c0NmHRzjXSastGGCQR2UceizgUm8YlyYiOX4BBQIsbBb0PlXgzP4i0iOQ3BlSnQiVEJnnnqKfzJH/8J/uIv/gLvvf8eHAhZnuP8zg52794NB0w8U9Z78biQ5E4NBwNM58s96RmASRIUgwGYCIPhUKCd0Dy4nzfVr5i3uEDMflioLlG/62+4CQ0fYpGNs2IElJIKfDGAXWIsJBFRiHKCuimX4hpiQLhSCmmWYq0YYXNjs0M1nnnmGfzRH/0RXn75ZQzzQQc93T+izvfg8SDCXTU8+6O1ApUdn5zAhnhmpZbTvyMYzRD4qpzN9MHJvtrcXKMrly/D2OkUrm21IqMJRGeeJF6A2CK6XOdG5CW0+7dDsBw2nkicskYp6Fivky0SneCrX/kKDvbFyt07PMJ0NofWClvbW6imAp/FCiOOCMfuGFVVSaDG8TGyPOuMJBAJ5OR9gGsC8J8kIKC7TuRykaA6gvXLEoJpwUWjZQ9gKcxQUIQY9S4EkgRunmCl/n4oNxQLf1R1CecWWQDeu1AWqcB4PMa59S20TYWmbvD000/jT/7gD/DVL30J4+GaECkv12zglW3rlwb9bXDWJJGia4kxaOsKgKgCi3oLHs4Htcp5pEWB3FuvyTh4+WJjNjYUMyeKvfIsMZje+uBmCtHlQcyzisS5nP342yVTiKsNHHK5GP0GwbJRFYosxx/8wR9gMBrgz/78L1CWJYajEVRVIlEpiKjTD5nQFa1omgaT6QRJmqLIc6RZJj52jl421Vnjg4Cvxs9FwoxeJdcuFwbub2Y/aqofMeXakDQZfN1x4QjikVIkRlWM/ZV4BYnhdM7CM3d/x+/VWmM4lEzS3EjhiHJe4uGHH8a3vv1tfPVrv4s0SVA1VUgmxK8cb/IgjvmgkECKBhVJfEWe51BBGkWpIYacg+t1jiOl0JQVvGMypCnPswQATDWZkKvKxFNoTkhiLC1xyiVVTAjXBDfgwnG6CnGvxgH8aiMGbygieHahjaVwtDzLUdYVsjzDt779bXgm/JfvfAd7B/vQSsOTQD55nkuRCrcgqLqqoBIB7Zu2hQ5RYoxFK5xoZFCw5tM0RZqmnfVuA2d7UPzo6oadmXEJWkiq8DnvnGQ1MMM7EelNaLPjnYcPBq3o2wrWNgH3XcNoNBIITWnMZjM8++yz+Na3voXf+eIXMSwGqJsaWZJCkTozG+FXGQ8izt4bejo7kCS608NlrUNcCEnsr1J+ESlCgv0mTaqquizefOON7GBnB+boxg11PJtnTMpok1JbS+sc6S2lwPDIkwI2k8JcHE66sy0cSydq563ku0C8GlorNE21yCsiDYYEgHTBs702QD4YZ95LEwvvfACDgyUdkAciuaeqqVFkOQ4OD7C2sYlvf+ufwvoWf/Wf/wb7e3siwtMUxhiUZYmqqaG1nN62baXDh/doyxIesbeoCj97+VCBmxahGnY0NBSJKuICgZ2VD9W9Hwvuuvp8HKspLkoRrBWboKvXGpJ2osohcQoFtJZ1rKpKYMNE4erVq/jTP/1TfP3rX+9iGNI0DRFZ7swD9SBC/E1E/qIN/aI9TyTg5YMe+6sGF7N1UEqx1krt7u5idnoKs769TUWe6+l0qhssGsKSQnCfGiSJFIyt6xprayPUVQ2GR6ITaREZ9C2ChMo1bd1hoda1AEsJb60SOdFsgQBzyfkSIrauBTGBoKFNBmIpQKtCbU4JHSPkqRT63drahGUHYwj/5OtfQ6IN/vY7/wW3bt3B5HQKpRU2NtdxcnIC7z2msykARl0uPFEuekdIKuO1TjDFxGhoHax/JzpgNIiMkvI3fbB/dZP77sf+I74nEl+sSmidDesnnWKsXXQMETVr4X/XWocyndKGMxajuHD+Ap547Al89ctfxBd/5wsYZhnm5RxgMX4tL7cxWh2SYnk20T5I3D+IkPvxtt6HcvY93Th6+la5OxFh/+AAmTH2qRdeOP7a175WjgYDmHx7WxmtUwUoOEcUoBkBgMVzoIgCvjjF+vp40UlPa7S2RRqMjAhZpSZFWZehCkcOrSL8IrVGJV9JxKd1DqPhEASNJEEIwUvA3gnp06IhQeS+HZanKBavxNZ4E1//+tfwyKMP47t/9w945bXXcHBwIAbWuU3MZzM0bYOiKHByctItprUt6taGELcEWaLhrARVu8B9m2phPLbOwfUCnrUKHDHmk3Ho59ntZR93XPSyIiIxEKUACFKdwLoWp6fHGA1H8KEsZvykqEHy/iIvkOcFEmWQaINhUWBzcwvPf+Y5fP5zL+IrX/6S1Jh17VI2Qzx4i/tZ/CQAUuZ3mQjlvX1VjgNJL0uKVYIVGlJBUkrIYuSwUTKh93mlFBAO/3g0AjPsOCvqc+fO1cOigEFZ6nI2y7TWmpQCx2DdUJ2Y2cN7CsXGyk4fc9bBsQN5gvdSosVaCxWMMQllU1BIcXS8h7t3pShvWZYdrKLDIj788BXs7JzH+vp6J9q6SJpgLMSEt+XiYKIbV62I9vFghGefehZbm+dx7tw2vv+D7+Pdd9+DTgySJF2qvxpRAfCiajMgmF9/4fvGUvSkdAXIehu62AAPZo1Y+G0ZgpK/O4griOK2aeHTFEQeTVOD85F4wVTg2t4jzVLkuZRv3NjYgFEaYIc8y/DEY4/ja1/7Kl5+6UXsbG8jKeR90pJyYcX3sx201qjqEmmawFsfWiOJimDUooph24qOHA3M8XgMY1Kwt1DKILZXd67XKTHuUThonr3EhAQY0waRL04QB2YlZaEAwIt94WzLLVc+VgE2vHdPnc5mydpwqBKTkIUFO9817XXOwetFLyYiST2OJRmNNmjqugPUFSkxZnSG49MjvPvOu/jRT38S8nbuiRhuLcjooHNpbJ87hyeeeAJf+MIX8MwzzwBQGOQSTNFaiyL0veqLk4VYVYGQZdIAsL29jW99+9u4cOEC/vzP/xzvvf8emrZFkop/PE9TqFDDP5bbiZmpsSnaamXoReCEBE2AFgXkVjlKl5LTEelKVRYfYnlVgK98C1hGkhgUeQGCR6oVvFadmBfvVKiLZQzaqsbW1gZ+53d+B1//6tfw6KOPYmN9jDzL4Vhqjz5oxPvIMilHP6/nICVdVzSlOJkc49bNW7j2/gc4OQ1q03QKrRSuPPwwtra2UGQZHnn0UQwHA5g0h7V1xwRi55P4PdqIx6tta4zGA9w7POjWs20tEh1b3ItTgL1D61o/KkZOa6MAwHiTKMVIobWO1i67hd7AEPggEmrUmWLNpEQnaFwVqiGn4unQBj/+6Y/xyiuv4P1rH+DO7m7Qw0SksvPIioWBcveXb+C99z7A22+/iy984fN4+eWX8eSTTwohlfMOyuh7eCL+Fq1qo0w4rRZt0+Lc+jq+/MXfwfb2Nl599VX84z/+I27eugVH4n0qjOlqgMYeVyYRT1XkHv2Sk3Hc7/5b6J29J9H/c4mrEiSsDrHwsdzPcDjosN1yKmnPiclQDAqsr6+DAVSl1NlfG47wyFNX8bnPfgZf+MIX8NzTz2BttA7AiZ6vDM5oarOYg4r9Ux0IDnkxhFKEO3d2cf3mDbzx5pu4eeMGdm/fRlPHZhaNtKd/fQSjDTbW1/GZz3wGTz39NJ544gmMx+s4PNyXFkM9DFkZCaoZrY0lQZMXVWGi0apDLYkYd6cBaO99YTIOQX0w+foG72xtzmvbYl5WFJvbiltxYZX3K1oQFr04AUkA1NpAQeOjGx/i7XffxXe+8x28+eabGI5GGBQFjk9PQQB2dnY60cnMSNIU7D1m0xnefudtHB8fYTabgZnx9FNPYzwew9tFIlg0BmJinfMOrbPBWBNdWEr5yIF5/tlncfH8BTz33HP4/ve/j7ffeQfvf3gN3looY7reAW3bYlrO0dSSKBfr+0duG/HiWLSHmbs6n1GX0xCseTWdujtggXiUDukm3MI5jzRNsLa2htFgKHX0lQ5t4A1AjLoqAQbGoxEuXryIq1eu4LnnnsdLL34WOzs7Ap2xA0GSLt3HEGncw5jdwAQoaLz9/jv4m7/5a/zil7/E0dFRiNPNYbTkp2mjkeUZqrqGdyX29vZw89YtvPvee/jSl76Ez33ucxiPxwsjcnFMO7ShaRqUdQVjdE9v1osiJz0G4D15pRTHPgLm8fM7bjganZT7e1yVJbx3GBbD0JgqRNe0TQ+0BtIkDYQq7s4kzcAMWLb48Y9/gj//q/+E2XSKLM9BSkEZg+FQQgat9xivrXU6YlWWSNIUykgg8+HJEV5//XXMplOAgOeeea7zt6dpuoCzAoFopRGdoZKXY1BXNZK8ANihrluMR0N86YtfxNWrD+PnP/85fvaPP8c7772La9eu4ejwEHlRIE1TFFmGRBu0IXBCKdUlA0ZdcYnL8sL0iDlTcICTzLRu07oCGIGD5kUC0VfRicoYygfPOHduG0ortE0LZo/UGOxsb+PZ557DSy+9hKeeehzr6xvYPncOCQw8RM8lCrUDaOG7P2sYY1BVFbI8B7PHhzeu4T/95X/CK6+8Ip2noTCva2iTIElyMBScBzyL4bp5bgMnR8eYTqZ459130bYWxycn+KM//EMJ5Gnbbl0YEuM8nU6lqYdtu6D0ruiaX0ZK4v4q+v/39ma9llxXeuC39hARZ7pD3pxTOZFJiqRIipRKEqukdpmyXVUNNKrRjUa3/dJAoZ8MNPzav6EBPxowDLtf7AcDLutBqrKryzUYJYCUqCIlUhIpUhyVZDLHO517pog9rH5Ye0fEuZlJiW7YQVzmvefEiROx99prr+Fb36JIwogCM9ncjEqrGGPU29ubbb24sHaI2qcYYK3F5uZmCplQwjsWiJGxms+wubGN//RXf46//uv/jIP9KcqqFHspSqdiW5RQWmHZ1CClYGwBZUxb+bha1ZKJcdK788c/+QmqwQDnz57H5uZGC5TIjoAsnK7aNf+tlUZVSjMwaw0MM1ZNg9VshUtnz+HE9jaeffbLePOtt/Cj1/4W7737Hu7cvdtqca21pDKVaoP8fZhe/i5mBvt13v42PogOzS9Ann7gn2CtmDGFNsgZbk2UOKQiYnAAa5SFxclTJ/H4Y9fw5FNP4bFr13D+wgWc2N5qpcAjQEEqMJAbaBzPiR47vPcpYVLh3Q/ex8svv4xXX3tNmvoOB7C2gqXkCmmF4WTSgkaaxsGFiNF4A9VwhKZp8KuPP8ayrjEZb+Lb3/52uyPLrtMJoLUW5aDCYrXbjptSCnSs7CWQApPy2hivlGoAwOzt7+vZcloxoEAZ3ZNjqF3NUL/XUj93ne3an7/1M7z00ku4dfe29ChKsUZlLQajcTt2xWAA1zixS0KAtgXIB2xuSTnFbDbHdD7Dzs4OXvnhD/H888/jK1/5CmxRoF7VLbmZUirdzjpSCcigliQcpDAoSpBS8BxRlRXOnDmFjY2v48mnnsSNm5/inbffwZtvvokPP/oIB2nbAzovubBFG5DuUGMAwoM7nASmnJxJ6dJeiCqNp3MdwYX3DbxrYO0A48kIw3KAS5cu4tKly4k07goee+waTiaKnswdoNJceI4tVtY5j8I8vISUmXF4NMVgMMB8McfLL/8Ar/7tj7G7u5/CkDVsWWFnZ0eySQwMhwMB7PjU2jLNn7HC+VAvl9jd3cV/+os/x7Vrj+LK5YtiJiUHNdPWK6VaAHV/V8xHfp2ImBVHaCP0hADM5uZmDBEueE9oU4UeIN19GDJJOQBtkscsA+PgY8T3v/99vP32L6GVIISU0QgsiP/FcgGVWrQQCTqJnEMAWsIsY8Uus9bi9q1Pk3EN/OQnP8GTTz6Jsihb4ogH1in1juMxaKUUqqKAj9JILURpJHHx7BhfOHsOT37xCXzjG9/ARx9+iA8+/BDvvfce9vf3cfPmTdR1jUFRAgys6pXgIBSBI6NJIOCyLFOdmYIyGvf299r0cowAhdgCesSBIARICG84HAFgFIXFhfMXcP78eZzcOYnLly/j0qVLGA6HGFQVtrY2URqLCCBwZrNOGTSotUW15sndNzaEra1NgAk/fetn+NGPXoHzEWVZ4nB2hHE5QTUYYHNrC4BgDWxZCvlGDBgMBzDGYrVcwAcAWmPrxAnUqxV+9fF1vPTySzhz+n9EWVWpj1SdiD4Sd2uvKLJ1jJEdTXndWsu1qz3EJRBnKsZYb0+2FtN7+y0vfr+MNzsLfTQQUvhGw8C5OXZTLZMPAVUxQOAIY0QLaW2wrFfQQcM1rg0LgQimsG3KLE8+c2yN8uVqhR+//hP83u/9HrY3twGsE8p+1mTIEbuQOaftFUBhCunuF0WARtUA1x55FNeuPILZC3PcuPEJbnxyA+++9y6u/+o6Dg8OUzGg2OpCAtFIV78gYJEMUuG0OPswPqs0jO0A0FpL1cD58+dx7tw5DEeCwD+fKhE2NzcxSkx7WisYxbCp7SZzhH5Ab6928sFrnAEPOjQsXPB45533ACjE6FMWbxtlVaYS5lWL2WVmiX2mMVRGcMs+BpikWZumgdEGr772Gn7rK8/j2mOPtfeVUV9KKyk7p27RZkHtP0dRFMAMMcaQk2XBMHMsR9axAhrnhMkNSAHr0JYmZLWcA7VN00BB0nkfvP8+jo5mGA2HaLwHaY3IlICyFipqDEZDYEQgLckDk9KCcnPtngqlFEajIUKQ79nb38dHH32Eq1evwpBKtmcXo/t1R795F4GkG13ekkmAIRLSZGhFGA+GePTqFZw7fRpPP/UkpkdH2N3dxd7envCK7u9jejjFfD7H4eFhG8GQaoIlvA/Y2jkJl9BWMvAG4/FYwBbWYjY9wvkLF3Dl8mWcP38OWye2MBlPMJlMMBwMYFNxJYEQOAAcETi2rN6kHyyIv2levnEN7t67h+vXP8ZiLg6O7AxFxzeQoY3WCpOg0lAA6qZBvVqhSRRPCoTZfA6CkBvv7e7ihz/8IZ586mksljMUCYEWokQkIiRakjOb08MpigRp1KSgtYHzHmfPnsXh0VH18cGBCSE4E2JU08NaMyutjtGaHwcP9KF9uRdndBHvvPMO9vZ2UVZDKKUxHE/gY4D3EUxOwldFIQMfA7QRwqwQJLYanIdLWwNDCCgy5xMR4YMPPsC3vvktqOT13zdBSWY7H6KfP2bkDDa1hLgk0QhQS9VDEUJ9GQV0MhgOsbm1hbNnz6G+LMHsxXwu7NYADg8Pce/evbYvQB8ltVjlJIIUsRWFRD3GkzG0NlgczbC1tYXJZCLFhqMKk40JbKZp5IgmeqjYAbCJqH3O9t+8WRwTUm6f/xhqqzciN2/exCcff4zp9AictJg1JUBCRa9yJUJMC4MISLtscB6AhBYVEZCdShehtMbNmzdxcLCHzc0tBDBsIbhe5z1IC2FzlqlqUGF7siHZwsUSdV1DmwLO+/LW3dsXbr37rmm8h9k/2C+drwsQVCukPachE6Rl+zL386xr8dJdcNjbP8BisYS1JcpSskhIxK0iJwJM5hixWC7FGSASZySlEAXKJl6vNgV8EFQ7x4g7d+7AeYdBNURVff42MszHJpIlNMTZQ4rcdhJRxKLpqcvJE5FwCYwmcDsei8UCZ86cwbVr10QclPSbd3UNz7HVGH0isLIoUZaFMJIQS5PitEspTSi0RcY1ZDXPALTKAJIE2D62VT7o6IJmfPyNFA8WEpHD6TTRySuMhkOU1mLlmgQOyuQYEexl7AR0DVhKtVxVCaM0ovOCj1AOHCN2d3fx6aefYnt7By46ZEhf0zTSq6zHGQAkdpSe8CqlMJ0d2Sb40c00ruadt3+hi0prMCtOgsFKQZEGUWyRL1LRqGDS1qC1wPqIFMaTDZSDISIzjNGoVzVUYTAaDhFiAKXWP2DGqq5TmizZwEEaeGWUEiHC9ibH98I+Wch+3XEcbblus+VKBVkrCpkcTWRWFl9oB5Mg5koMouVAhI3JBhjcOghaawwHgxYu6FOryn5Ii4igUm1PDleJw6h6d8UJbig5+hbN0IPCgT6b2YtAbVKiff4sp21PzSAU5RFgJgEApR3OOZ/WSUTgtOPk6E+aBxc8bJDPayORAZ0WQmRJD89mMwDAMpXRINuqXtqh5915sVhgL3Qs5soYzOdzKKvduXPn9p++cMHPVyuYmgkHuzPrY1CDsuowg+kRI2dNWght4UgjeIfpdAqPgMY12J8eoG5WCNGjqErMFksYZzsgidGCueGI4FNFaHJEkIsJUmgMrOBc7jqnYLTCeDQSmFpw8M7dx79//FAPENb199c7dTCE8RjclYUQSbkxQWztvGAI4v3nzJxSKsVABfRMOT3Y23YzMEPwFZy0Yqf1hBFBeBDFuRAnTyFPfC7we4htig5mGX+tvs2aMTd8kDR4dB41M4J3MClyECODXAQ0CXNKGr2IiLpxcLUDATBaoywrKXeGNPvIUaF8z7ltKRPWugoqEiUQYoDSAillrTBfzuGaGgvvQ+09zE3nqGlqQyDqq+OYYqWFLVBq3bZrZGZhhhsOwcyJE0mYj8tRiUW9TIV4hLBYQmvVomZilNCO3FiCsTF17QVJJr2sBgCGkBYyFoPRBEobhAiYokRAttmOYRnbWLc6Zp0JiUWe1ghuqdgZAFQiQWNqY4cyiV3GpM2iZCcsgYEpOQf98Eouf8nAbyIFTRrQsi0zgtDBp+/P2FQg28khOZoMkEAJiSTcxfH++GMrgL3f+QGvt5o171CRYZVCNRwmEg9eK5PmpLTa72299dQHwXsE72G1kQhEFMaXyWQLm5ubAICckidFon2PgYqqaoDKWtSrFZaLJZr5DIUdcFEUXhsbGueodg6m8C5aTXBKU4afdROf0Pwg+BQ68j7AeWG0mM2OUJQlzp8/j+qtCkorTA+POlpxJQZ0yByivQnPnVVkwPMQZlwnQaWA/Xg8wigtisJaNK6B/YzwVCes7SvH/pVf8wYq8500XDbPSaZaJ3rvvoMpyCpxenJ5Rf8JRPDWX2vfIO7pvvxJTq/LSWKW5BIfgDidA6TwHfeQ8/1HSmQYa690T97/RiJCk3rFklYYDAZYLvYACigqcag4Nb4hSm3LQ0xEcmKqKaVa0HckaXrRLGtYRbh06Qs4sb3d7kBSbyZ2VY4nd0oxYThSjNU5j7JgslYr3wR7dzrVdV3DbG1uxbr2cN5x4bvtjEgQ75kSfT6fY7VaYTyewBiLw+kRZrM5Lpw5jyeeeAKvv/E6dg/2pPQh2SCIUrEaQ8dpH5E5SXOPAA1FDI2u9OJosQDSikUqK9FKwfkaTVOjTCnI3+zIemvdmXrgmcmR7LJI3KqmLk752SGg+wR07b2+342HXomoK+GgNnWMJDj305b3/xIzQvdiHf3vppaK89wXLuDcF87i449vCP9/Cnl5DgguJswsw9c1fAwoi0Jgl062+yJFcYZVJbFk78AhYDzZwIUL5zEeT9D4Gk3wQjVU16l1T9dPIe/OMRVJVsMBilghREZg2PnyqDy4c5frpoGanz0T3WKmXOMoh4ja7U2JhyaqPsC7HG6xWCwWAo1TGpcuXsS5c+cQfEA5ECAKowfUANpkQXCJktzJ9TKS3gcvBX1EKKxBWVUYjYbYmEiXvvFoLNWWw+HDWZ3zpDxQDrn7od5P/3UWZJhKP5KDhwS5kxOjeu93P1j7WRe67ue/xUG4f7GsCTIpWG2wubmBc2fOInihw6/rGnVToxpUqJ2QmblEbFYvV3BNg6au4ZtaKDGbWjhpXYP50RTT/X3E4HD61EmcOXsGRVkBCGhcjdu3b+He7q6MpzaIzKjrBiEKVaj3EZEJ5WCUnDpPbrXSiN7Us11q5ntQz7km8tDEsipCv5Ftzudn0gSldFs3FULAwcE+PvzwQ6xCjbPnzuHRR6+BSMI0Eo7yaOq6zfXGEIWgt2nQ1A3cqpbtZ7HEarFCs1zB1Y2UfyTPeDIZ45lnnsLVy5dEq6T6qYfp0jXfnh/+oxLnoEJnH7edqdcshDztSUhb+/TXCMt/Y+F86H3gfq2d8++nT53Gl770JYzHY6hEBNc0Dfb39lEvGizmS9SrBsyABmE+n8PVDooVQhMQmwBDGtODw7YqlxTh3PmzuHTlIpiT/GiDxWKJsihRWIF0Ui7qC2JC5gyYcxlSyWAEAjHXCmiIoeoIlHrUltsygMYHUb8pZNQiiFLTA6UU7t69h1deeQUfXb+OcTXGl55+GlevXpWmuAlUHXwQYa0l3xsaoVAMTppW+KYRwW1quFriZdnM2Lu3C0WEJ558CltbW3CuXitN/qzJ+U0nMLMPrv/g2A+DENv3FRjEwrXVCv99n/k1P2uf6//34Pv/TTNOv8kRU8ZvPBzh2aefwVNPPAG3arAxmWBzYxN79+7BrxqsjhZYTudwyxrBRTTLWuB4geFqaThSr1YoTIFBNURhK5w+dQZfef6rGA5GiNFDa4Pd3V3c+OSTBJdkLBcLGVXmtiKjTBUcdb1KlchiCCqyrINlFS3MnaMjA8BqbZljQNM4MAnfuiIkpI+AIAaDgbDaWYP9vV28+ebP8fH163jk6qN45Noj+OY3fwfz+QJ1kzjmp0eYLxqEINyXqhdwFn8lAhHyfoiIQSctJDbRFx97Ak898STKciD56JZZ40FEXVnM8laej7zFHz//s2zcB733/09YOrv4Ydf+bJv78wjrQ89kwObcvfc4ffo0Xvj61/HBB+/jcDrFoCwwGo5QlRXq5GzFhPIKziMqC20g/kNTgyBhrtlRg3Pnz+G3v/ENPP30s9CqQIRgUt9+5x38/K23sKpXXS1V0r5IO1jO7EmHawVtNDETKc1o4pRmqwXMTz9636hmVcyaRmXkdUjGrjUWRWGh1ELSX9ZgOBphOZ+hbhrMljXu7e8jImJ7sImnn34Gv7r+Md58601oT9jc3sRgUGI+myUaRY3lfIHVYpnghEE43rVOhnqDplliY3OCLz39NH77d34bJ06cANAR3vYjB5/v+DzO18OOvgj0F0RfX/bO+BwZtAdGJ/5rHCQ1VyH5D88++yxu376N733vu7h18xYQGGQYhhQCaYAFMB59wGx6hEFVoqoKrJZLTBcLlGWBkydP4cW/87vCXDMcom6WUMZgejTFO++8g91798BKobAWhZUYrCUFk8IsIZmGOSIRA0MpqMCEL157Fo9fuQQzPlqiIU2UMI0MICaaxky32CQuzyIV9BVFgXPnz2P/4AB/9Vd/hQsXzuPLz34Zly9exosv/l34EPCLt96Edx7bW1vYGI/R1DVWTS1om7R6OCgMKoGQLZfSpHY8meCFF34H/+gf/UM8+ugjkBJrlvKN+GDN0qbiehoXyOe2+hsPF8IHadz/8uOhUYX2vh72yd/wHn7dAnjgF8jOwsyAAoxWCKsG29tb+NY3v4V79+7hlVd+hLt378GtlgIiUSo1MkM7Z75ZoRgPQVUJrCKe+OIT+P3f/wd48cVvY2trG87VMLZA7Ru8/sYbeONnP0MEYzIeAaSEKAMdiFw4XRtIJUMB0pK2IK01+0g7wwldOPsF6L/7B38wODyavbBczL9mrR0aW4inTwK/a5yTpgd1Ddc0mGxsgEk48+u6xtHRDFtb27hw8TyGoyFO7uzg7NnTKIoC+/t7uH3rFhaLORgMVzddaCMHgbVGXa9QVRWee/45/G//8H/FH/7hH+LChQvSdE1JuUkmt+gDutd/FDjFHNdA3yx88IA0JaaePEjMO4dMYoe0or5o51BSslh7UZE+qkxk58EatX9uFsjPs5WvL7xW7B4s1r/muv1x0cbAOw+jDZ586klcuXIF0YsTHJxDDA4h+tQ2XghFwBGjUYVHrz2K559/Hi9++3fx7RdfxMbGFhqXOGQj8MZPf4p/98ffwTvvvouyGrRkdKtUhzYajVvKT+cdtDIJcK8QNQGM+YnN8Uv+1M7rH7JqzKiqmtKa5ojhgcTLSQTfNBIySsV0ZVFgPjvC/v4+tre3sVgspM5oMMQrP3wFjz1+DafPnkFFJR6/8jg2NjZw4uQJvPajv8WH73+A/b19rJZLoVlXWho8KGA0HuLqI1fwxBNfxN/7e38fj117DIU1aFyD+WIGow1sUbQpT60tKMUDJR7XBccDh9YOzgKRqQ1BlJp9rYkAkFN7OUrfljbnmGWvciAlPfpHV13w8K2/n+/v7u03MQs6tpT8Xf1r9xibutd71RcA2nE7/vm8wEgB5aDAZHOMF174Oi5eOI8P3n0PH374Aa5fv45PPv0Ui+Ucg0EFWxQYjka4fOUinnvuK3jkkavY2t7CaDRGiCssVwvcvH0Hb/7ibfzN33wfL73yMk6c2MFkPMb06AhKC5USJf6rzDbjnUdVlLDGogmNUPowVLQGul6yuXEDptA6jKpyeVQWK601QgzSSjLGNm9sjMFwNMRqJTCs6XSKU6dOwbkGBwcH2N/fw/e+9ycIMeLrX/sqtkdbOHviDF78O7+Lrz7zHD7++Dre++W7uHXrFpaLBTiysLsR4ZFrj+Lq1Udw6tRJnDp5SrhQowcDMEYL9C1puLb5WNZymUM1TZVRXaYoTyZLO70seTLxiJ3A9hA81G5H6AX+OzEgim3AnXvpL+YcJ/bHhPF+bbquSam9zwclJvLv+TMCTOnZsjlG3ft/LvXIh0a3YAQTkx1ZUb7G6JQJk98vX72ML3zhHL7ytedxeHCIe7v3sKpXqKoSxlqUVYmz585hc7KTnx7LZoY7d+/gZ2/8DP/5b76PV370GqazI2xubWE0GklFRTLxyqLCeFxgMtlI7dslNu99QFUpGBJQt+fIrmaMvOIzWsEIbE87ZYyLANiJkGR+Tk4TUxYlTp48iaOjI2SuTiLC1uYW9vb38Oqrr+HGpzfwtz/6Mp566gk8evURnD93DmdOncaFUxfwwldewKpZIPgOWcQcsTk5AYDQsHCaNl5A1aQEDb7yNWKQNovKaCkhhiQhCATPAhwRgINCxxnXEwrSvdewfiQO1k4wVNuP9fjRCgwnSWbVXk9Sq+a+7f7hx7owP8w+/byRKQ4BEV2fLGA9pdx4B45SBJkTHkQBWiWgdnBgitjc3sbm9klcuvroA74l4t7+bRxOD3F4eIjrH3+MH7/2Gr7//e/j01t3oYzFiVOnsLm1BWNF0SgWcPlwNMRoNL6Pa7YzoQSRFzlGpUz45O4u39o7gGnKEg3gYgyeYHvsdl2fSoFgSUaqLEvcu3cPTbOSEmilMNncwOHhIe7evYPvffd7+Mu//AtcuXwJj1+7hqtXruLUyVPYGE+wvbWJyWQDhS0QEdF4h4OjI2gjNfnGGHjXAMwpyZA1YNJajTCrWFvCmNRi3He8RrawWM4W8I1PIQ8FrVPwXSnoROAWQ0xB5a5ioRuwrDGRwM9ifyolDXczHabWWnqoBkAYkBRsYVK5ioNSUsnaOnQkZTl1UyMGwT5kjtMcpsnJjM7ZkHNyIzSZXEnCix3eNQPO6LOmlj4GjO6eyWgoo6GJpEmxVtA6wjUei+UMztXt53MHP0G6Cdv1fLHAql6iaRy0trh77x4+eP8D3Lx9C7dv3cbtO7dx584dHBwcohpOcPL0WZw9c1aaS9Q1OEoDEmtKbEw2UVZly6qiSMEoqe1vUhhUFhwjagozrtkvPUwpvcdXBHKkFBMixRTsp17JsHdN66Rsb28LUcRsBs8BVTXAeDyGtRZ33S3s7x9gNj3CL3/xSwyqCoOqQllWGI9HGA+lu7MyGtpKDX5RlqgGJQgEV0uKLrdhjGnLzgK0XNYgELTN3UQEmqe01CXV8xz7S2ZAQvooJdjJGAKUlgK77HUyC8jCaC3hfRYASNM04kw2EhO0RsokVJpUEOBdRPBiShSlxXwuE29tCaW08G+lshtrBfrWr5zoyopF6DIw3fTinRk7kWnVxRHSrfOR6YfKosTB/h7ms6PW9lZaQVmTxsdK4aYWM8c5h8ViISXricOgqVcJLyp+QAhCMS8tjkTjHU2n0lI9eKzmS4AAWxW48ug1GFtCawuXKlbrum75ZXMDt7wIc8eXPlApxChbvw8O7FcIjokjzJWLF/n67U+nt+7drfcP9rkoSiqKsiUO8zGh1BNpmrEWg4TPDCFicXSEpp6hGhSoqgonT57GaCCx0tnsCIcH03YbkqYR0jvJWIuiKKSbm5fSBtEUcsOKkWqvhC+0KCppyZ6EDiQas89NqhQhuIwplUt2oaKYtJNrtaeg14XsLduoTArBcyqH8WuOTLZNGUJAJkDr3BWZoHXqnZRLtTM0EDmfqqSKobdr9W1XZm5LcnKvhKx58jltdQR3jqBEMuQ6lbWi6dOks0LqnC2mlLXSgcQF6WubWUpUwptGjggsIJMQAxTpdN8BMQKjoQDktTLQ1sKWA4zGY6m3shZKG1kQLAw2UIRhah/ELFhcBbqvpDtrf1+v4EJApLCamPJoSw+8Q4CpNjbDcDK6Vw4GU1sUzF5UflRdcL1va/WzVEQEYy2WyyUiB8zmMwzKIQpdoDAlykKIILJNCkgKD5AGasyMshomXS/CxSxdOopUqZo77GVvW+4HALqVmA8CYEzHNshgWGNbOplhNWrJ3yhpDAosTM4JH2qNhM6cd609nR2rHNJp+3Yiha+IgMhQCmnhNW03akrnECv4GGGtEQKOtodUqsxMoGPfK2HJNWSUhifGIERmyX9oDdj0uwKkWQjJgleKEJXA9CLEVvW+Ef6nGKRgEASbSJi9T11KNOAbBxc8ClNAGwMOAk+sygpK22SmMBQ0qmqAsirbOre8K+RCwfF4jNIWbdeaLFMtuS8yPhXt+9boRXVic1ac3IraBxi6dMlX7765Px4PptFHH1zUPjUHy9uT1rptoJC/pM89lWOh3ktRHjGgjEE5HKDMGiVNXJMIyLpSWV6L1HCMbU+izDUVfKeFHuSsdE4TwUUHRdTWj2d69LquMZ5M2sZlOnvU+X9J+2am7Zw88LFrFkFKCZyNM416Mh8gFOpgwJZy30ZJOjhElnIcTl53+leDeh2rpdQkhghT2IR6l/IQnezhDK7OkEki4bkiTtEPpRLxcYBWGra0MNbIWLDQSkIT9vd3ESFcBPm5+11fgvdiFiSNOqxGiQZS/IAYIM5p6taooMAEVMMxlEpkyE3dUjDlOcwwz1ap9KIhef5WqxpgxrAawtpiYcd6xcMAhAAzev99Hikzn0y2pr6uHQeUmSAse/ZiHwomsvMOpfAtB+/XGUx6VOApJBLTZPSFDbifFpyZO8SW1hKOSq8jTWD/YdcENU06Q87LNrZzAlEbDocgUklwuA0rgXsI+xQuoVREFXq7QbYHvfdi+DNDW9nqWq3A4lErlastRVBzGUpfE+ZzWhMgeY3E8plswQhsMiJEcTJXqxUa1wBKNDuRhKUis9ABkaRJi6pCVZZC/hE8lqsVbFl2ZgkB09kUJycbGFQD7O3tAaRaO5I5Qmf0PgNEGs4HxCDaPQf3vffSDomBjW1JsS+Wy5ZvrChKkCIMBoOOV+rYTh1DkPoqrbAxKnk4nCy3XNFMpsI8Y45cjaGyy9FgfHfhec6KxzHGljeUskeqNAAtDVUTHXpuG1gm+kYgNbnKwtNfMUkYddLE2a5aixoSYb5YAElY+43Ccp5/rQKh96CtQZ7+bheStbKdeoeiKFvtKOeu94ciIpjeDUlbnCCkxQnpo61BYEaRFnF2+vK95bigMUYyaqljc8j8VSGTAqtkY1N73xQZvvHgGGHz+KhO44QYsbm1ib2DA4SjKQaDIQbDAYJP9nRa+KTEXgcBLnqQC1DGtOR03jsRcqWwvXVCFhQB1XgMFcXz19a0dU9GK2hdgEjBJ2ZFkBQFBp9D0QyOAcPhEFVVYZAayJVlBaLMdyXdwlWa2zWTsmmgTYFTp09DWRNWq9WqmWw1bmOTY4wwv7p1G1VRNMG5aeP9qjCGlVJkU7+lXPbbTnDs2n/3HZkH2VXIcbIstEqI1/qp6jbWd8xpyeDrdFJy5tCGfI4H1dsVyiRRRO9lZyMF0oAh4eT3yUbOG7+UBIttx0j19O0uIsIsoR2p91mtpIlGthX79y+YSpeEPCaNKcV+lqU6Mzc3EwdT6ubbsuTI0uiDuyJDxJ6ZQ4TdvQMs6iW0trBFBa0tlBIyOFJdZSwjJyGkrouJoTVgTAGlDBiyeDY2xpjP5mhWDhuTDQQX02cIpS3RuAZEwkfmXNPLxEmJUnZSY5Tvnx5OW/u4T7TXMpUHIdwD0NqsOfN5YmcHi+USsVEejAVWq5pT9MMUwyG0MW61WNxuvJ8qYyKU0lrrlpEk9/Fs7QxmqOjRP7qtXvUmQrr/cdIclNg/wMe0IsvHpF5KJs4ntP+DbJmHBdI5bYFIWi0mexSQEg3xqNEuBEKuQoiIMRcfZnK0fp2UmAIqLSQmIQtCcrS6hQkoY/PDI3KOEqj2BFsMwByTR985ltaWMFp3hY8uwEXfCqzSCtpa7N+9i7Issbm52fZQsMYKo4lPpB8s/aiyxgeA2kubTGttSl8T6qYBQMlLT1RAuvNBhqMhVnu583Zsq4pzbFgWhPTJlQygVKQSyQLxvumay/Wcq7yI68RFC6ClC5rNZtjY3PC2Kg6UtU1UipiZzclTpwCiel7X130Id0IIjzLzUDiibAea5l6rHdyfMWk1S89xal/PdpiSev7Y2jxyft4eOXk2XUVmp4lBXVvu+7LkJNDmjNuPgr+R1yLSNkgp4kDpWtSZKOk7IwODYpDs8bw7iHbjKPbqcDRKFZiujWnmiABzFD7Rnl3Noorac4SpWyYT7ffk7bP3vFrSv0Lpg+Q4MTY2NlCljoOrukbdNHJ+ICEBtla0aSpLz7zWShkQBQjXlLxaFhW8C8KQwoR61UCprmNg7gErcVrbRl66JEYGuAA6xWatVi1pSb/Ne75m3nVy2G00GiE3rlvM5xgMBtg+eXIRV/WNVYx1SHwQ5r977jkAqP/sT//0+u7u3julLR6LMV5USpEpCkARTFEgpOCwqHOPkJ0eK4VkuYudShWoaxoQ3faltYbiLtittU6Zmq7gq5t4vs+86HuOxxcKkWz7WYtm2zgnC0IMbUYrf0eqnk8UPwzXOHTwgVSaks0Ali6CVluQNlDap856mXROJ56ALOARiD2TiBmNc1CaYLSVVupp1fkYU+VDsxYXzUQYxhhoo7GzsYPoA2ovdWZaa9jCts05ckYqz1Or0QoLOx6jsIXURyVttlgukxljoJTEy33qZXB0dNS2a9dawaWOjv2Ub7soiaEI8C60CZEcwuy3y+z3TQDQsnvnJhVbm5vMIe7NZrPb26PRshwMxEadzWZQSuHxRx65ce/w6AeK8ExU6mSMcZgn36S4Zt5G8ooACEqLMFWFeJO160yCB+W7+0KYO2nkldePHOQHyw/DzC3DXB6gLgjfZXC0Ff7pfI2ICB9DqrHH2kLIWi/kXUIRvAsgkrRmi7zq3XvOtNjCto5UblChdUetmY8+12o/uuHYt1GHPMa20JgezCXLVJYSPUgNJrTR0MZgvlzIVp9bNBKgU9yyCA71ooYiJXarUWkMJdVrlPT6AjvEADSNByJJ1WlpUFgj3LK9ec6lRcZoxNQLKycZmDkVajqEGAU/YAUIrxNrY3+estOdY61lWXYdYqJQX0Lrozu3br0Rq+qdwXC4VxUFMwDz85//HADwtaefPrpzePCDvbt7l2IMO9raxzWRyQMLrWDLEocHB3BN0/JRSZxVSWPWVHP1oFhnXzBy12MAbbgnn5Pfz4f3wkCd38+tf7LWyIZ9qz1SxmNNWFi0W9bKbYSgH/pKWizEAK27+GX/vBgjiqoUfqbFfC3SkfulnjhxAsultCQfDocoiiI9n0JRGDAD3jsp+WGGIkmzxhDhmqbteu28x8ItUuq0RIRo48PDQwyHQ5RJEzXJBDGZCodTZUYyD/rsi8KhX7faLsaI4cYwNSsD6tqhcRJWGo9GWC6XbVo391D1LiVAUuyWQ0BI5orWYovmkGJWCHknzCZA7h+QSUxynFsBq2mMb1OMf/nE1avv37t92+ls/r366qvdhIZQ/Ycf/OCLy+n8/4iK/werzZUQAuW+6kSCU81RgGzH9AUvC1IWltwYou8ItRz4kAzXYiGd9DKQtl9ykm2dnOvO7/Wv3RfUmJFU6TvbOq3eZ/paNUlia48uFwsYo+7LufdDRG3wPT1HXddYLBbtNtmv4O0+341DjEJhA0bi+Mr2PcNYKf9YLpeYz+ftuOTrZpsukJQe217iBSAozkzccvRNp7zolJL8fw491nWTyt8XKKsuq5Sd59xjAJCtPX9X+yy957Wp30I/DNjiGUh4YbOw5p1yNpuhds4XRfFhvVr9my998YvfmZw48cvI3G7Pa10JaudWTzz++Ac3P/ro39y4e3e0WK5+n7Q+b62lNqam1FrIylqL1WrVTlQe3CwsOpXi5t6k/a09a54sMJkyKA9wX5Pl3/t5735Far6fxoe17ze5NUxeLNTR4jAS2U/7PSF55J0gZ4ep1ayZQM10adTsSWdTIGsOWcA9EHMUAIvYlcUxE4TEpYuZ0U5jOOwcDREEK8KYIHrEXQM3sYkTERv6GIf1HS47R7oQLEeI0oRtuViiaWoM3ACgrpVl1qb9ljsSPuuqHVRKAnnvgaJYU2RSsCfCDqDNWOWd5ujoCPVyGbW1vyLm71y4dOlPCuZ3w3KZt9n7BRVirx1dvHbtlyvv/58bN2/a4N2Lypgv2Cx4Rq9t+30NR0RtNiIfEiKR1ZOzKoPBACEIuqbPIJ3tu6yJshC0jk96Lw9+53Vye41Bb7vOzhBRO5U4mh6296UStXjfa0fy8n3vGfsmgrUWFCMUhEsqa58yZXz29va6OGOQcFG+Z4G16fb8NjXKsmSIGHW9AsOgLAeQ5r2ya1lrMRqN0u6joHuLh5klRQoxJfrOW/8HQEvjbjLoyDloBuxYI/JQlDGtZ4+yD9BvT0nIjTQEOJTj25k3Nwtw3pny+OS5zfHe0WgUy6r6uLD2uzuTyb9/5B//41+QT81dE1UpQlgXVM4SzHz41LPPvlkZ888/ubMXfFP/A2/MWZNI72K6kdx6sC1XKUtYU7RXCyEkBmtC8BEOUn9ljRD3CggipQETNXqbeUrByfxw/Thuf+D7mmMteZC97zbImS7bC7VJ1zCpscq2daZT6zs/OYAOoHWcUGcANdpJFQ0V1uyzvBDaqISPyaZ1UCqkRZA1HrflITllnZ/reGiQeloaSO0kmTuwTN8L7B3Z/MkNK3KvAUlZE2LLHtNdo9+yqB07SpyyiYWQU57PaNOmwPP9ZccqO0xN0yYOuHbuJgN/cfb06T/+0iOPvLUaj+t85303vBPUYxOigMNvfPnLry9ff/1f7t69Cw7897XGucVqpfOq6NsoObgsKy2vKOEvklRkBrqITdTUDbzzUmrCBGKFTBbGEYgkYSUwIfqY0+BtGUrPvOwJbUocpOfo22bCyQSQXXe0Wo2MFAOmzqNtJ4u5TQf37W3FHflsO5HUCY9MRg6MixDlCWROfAboFoV8pru/bObkrbdPLNy///ZvolbI8hzkc/r/SlyZ20SL6dmxYhbm8zoGw75fsRZ6bJWDKIHa1z0nW7e+RQ7sZ6YdY0x0IVw/3N9/aXtn59+dvXjxbWPtsr+8+r+b/ovH16BWavmtZ555469/+MN/NV0slqRG/70tywuI0boY0XgPpTUWyTuULU7Sb8dXRc/eF5AGGCYZ9JwqREGJGJbyQIvz0hXy3c82nQcqT7bqkYj1zQPiZAb0NJzYnFlz5tBp+r01N5CSCclG7dl7x+8BEG+4bxO29xtFW0Vk0Mt6rjsDvXNvwL7wHndaHrqLHLuX47vOula+P+uXnavjHKutY6pU9/y99/u7Ts72ZSc7a9d8D0ezGQprV433n3jv//zixYt//Ohzz71JIRyyUu01jh/rW39fCNIgb0wm8//rn/yTV//vf/bPwo1PP40nd3b+oBoMLjJzwcyAUtImMhnPfWFSPWQQJxsq9wElRaiqcs1G7QtQBi0L3lOENvJ6aGnNBEjn9e3JNrSGpJ0Ysjiwrg2QtrLIwtea4XhIKV8lyr4FiIgzEdeEKV/He99qEnk/pmC6aheGXCfddRtLRcqRq+TUdXZ3X7j6z3xcw8cY13rGPshE6mtCIuqoNUlS0G0VLrKN3xP8Np+HtTqsvNDTILROdFuyQ8IJ4JxjpfU8hPBBqOs/vXL58nee/q3feu/OdHpEYoM9QEQfJKi93/tSPSjL+v/8oz96/Z/+i38RFovFflkU/5PW+goRjZq6TpTmuE/oco63j8bqdzRZB82ua8b+T3+w1tBPx7Rr9rTbZ+hNZBaU/P1ZENqcPycupJBUa97yOU0QJTssNTsDpZx/DwYIZmht03MAQM5oxXbH0jaPTzYrZOSZA2LswlR9bdxvQNdHjx3fYfqf6S/U4wKbxwMAfDw2hpS5D9a1rFwbbQ+B/pwA/Z2zy4gRtZ3ImYgcxbhbaP1LZcyfXN7Z+Y/f/OY3f3VjsVj0HggPOx6sUYla9FPrwca4qqx948KZM4sbh4d3Qwj/y2AweAbARlPXiphb7zYPWj+Gl22cnIk4vtKPD+pxzZH/Pb6t9++9HxXonl3uoUhhk+VyeZ8G7x+Rozi9/W2buxLt3OkEwH1C0L/X4+OaGa4zIaRSjFZOW26s1IWk94zcXWQtHpmFsp/AyA5uX/MeH8u+lj7+Hji1LAclADlSnj9HVnJIsLNJ5YshO49WGA5HWCwWvFot4Z2P3ntXaLNnlLoNY36sgL+4uLPzg6999au3fQh1duAp7c4POx6qUY8PfOpq0lTj8S/PnT69+NXbb39CWv/PWusXTFGccqtVqQCjUmI92xt5i8zAkrquW+cEMuid9c/MxxdLX6syM/WEgu4b6N5EHNfIWXPm94B1b7bVTmnAqHcfbTQkf4dAq+7XKkT0IKHt24D577zldwu1Y2lB7LRaPj/KA8t12seQ8Tu+2Hvf1Sq6voAmvtcYmCOTcFoTM8ik9qJaIXoPhmJmbov6lDbQ2rBKcxYocvQ+MCNqIaMOh4eHznnXUOCmLIpZYe0uoN6rQ/ixNea1Z5988r1vPPvs4a07d3iQATT5Rj+3RkVe393E9wx5tzEeX3/20qXpT99//9a9/f2XlfdPeu93ovcTY+2IgYKZdUOkNDMCoFJTB3be54YfzIAnrV1amYpiJBKjRmutdQog6RiChlIqxqhjjAqppTti1JFZU4wUAR2ZiWLUIFKRiDgEkt2KWANS2mEMSNQZp2Fh0pqVUiEyhyjQ9QAgEnPkJBCIUaxgZgUlCFtmVlGkjlLYjEioVeS9GElrrcBMUXYnxUBUzJQEhJiZOaYAVYwsxB9iVSilPAFBKSUCFWNQWnPS9kEpFQFElhUMVoq01pTOJQIQ5DuSHCjp2EzEpFQ0SnGAlB0TEKBUZOZISkWyNlCMHsxNYPYK4OhdWM1WtR0MvDbGEbCCUqxiDCEEUAh+WFUNDcq51cVR4/09ZfXHw3F1fVJW97Ynk7kPoclN95JAdQL4gN3ogYLaP6jTeABEo+aLKSCAaG97NHr11NNPf/DJfL41CWHgjanUclk1zFZ5byKzZmbliRR5T0RErDVqgHQIkQBvlVoFY6IiAoWgfAgqhqCSHCkiMo33iolIMVPwHhyjCKC8rmrviQAdlSJX10YBOsZoYlWR9t4QEXnRxpqVUi4EYq1BShHHyJvDYfZmmJkRmaMyBhxjiMxMMSIyKxApjpHArEOMimI0IQ2QJmJNxHWMBUJQkVlzCORDIBbp5RiCCsxREwXSuiEgQOsmKhWVl5prU5ZqUFWIzsFoHY21IWvU4Byx1sxKQQNRA5G991GpqIg4hsAxRmIljIxaKWaATQjeMwevVIghOPI+MlFQWsfxYOCVMWRCiLVSpIuCdAgcnEPUOg7L0pNz3hGBqirWdd0MjfFkbT0py4XyvmZmX5Rl2JpMwi/efjvsVIMw3NgIamMjnDp5Ml7e2XF//fLLvDket4ov71Rr0aGHIOM+U1B/3cHMrIia4WBw28Z4ZxgjfFmSBmCJyGQNnIRT54iAtZhrTUWMGGiNEXP04zENNjZgnUNgphRUJwAUiKguSxpqTUNm2js4QDUcUvBereqaBkrRZDKhG2WJiXM0WS5xo2lgnFMbABdFgfl8zsZaVIMB5tKQjckYHlRVKKoq/r9/9me8tbEBXZbwqxW8MbDDIRAjk7WkQyBlDFgpZa2lyntaiqekqGmUWiwojkYUy5I4Rm0ANbRWNUqRrWsyIVAsCiyIaLRawcfIxXjsvTERR0duMB77ZrUKVy5fjqPtbf7Od78bx2XJVVGgGI2iBhCVgl8uyRUFVFmiAKgAoBYLLK2lcnOTKATixYI2t7fhiCgqhWI2w0opOj0eU7OxEVWM8YwxHIFw++7d+NKPfxzGRQGd/BFjLQwRyHvEouDBcMh2tcLCGDY7OzgxGmHHOQRr+fzZsyhmM2YiXLlyBc999av43//oj7A1GklYMWWz6rpe83n6O/eajfpfolE/j8Cmo63wjL2wECdtgFyqklZ7iBGeGY4lXambBiyC2hYVIk1QUApeTAhxArIzRm0ohHQhbYZGACpjuAwBW4A0xE1Ina2tLRwdHQn6qCxx8sQJnDh7Fv/+O9/BxngMyjYrc+qBFVubkYHUKE66EAYk2zPGlAVDu40pIlIp+2ONQak1QlURa80bSsqmB1tb4LJkpTU2t7fROIffeu45bO7s4F//23+LcjxG6MVOI3OimA9g7xFIGp9lHyBtva3TFVKmKm+zlEJFRikMqgqkNQ6n0zUStew3CLgdaz4GpzEJTYPGezBJRTGcQ4Tk8Hd3d9c0ZhqLrr9u+hvoTMvWYQbAn6FR/z9zfRzbGKTnVQAAAABJRU5ErkJggg==" parent="Y4IA8xLdNqTUvV_AQGgA-11" vertex="1">
          <mxGeometry x="76.07979968340777" y="604.7234726688102" width="117.83726688102894" height="119.91318327974277" as="geometry" />
        </mxCell>
        <mxCell id="Y4IA8xLdNqTUvV_AQGgA-7" value="&lt;b&gt;&lt;font style=&quot;font-size: 20px;&quot;&gt;6x6x5 Button&lt;/font&gt;&lt;/b&gt;" style="text;strokeColor=none;align=center;fillColor=none;html=1;verticalAlign=middle;whiteSpace=wrap;rounded=0;" parent="Y4IA8xLdNqTUvV_AQGgA-11" vertex="1">
          <mxGeometry y="724.6366559485531" width="267.6137573751619" height="77.36334405144694" as="geometry" />
        </mxCell>
        <mxCell id="Y4IA8xLdNqTUvV_AQGgA-9" value="&lt;b style=&quot;font-size: 13px;&quot;&gt;&lt;font color=&quot;#0d0500&quot; style=&quot;font-size: 13px;&quot;&gt;OUT +&lt;br style=&quot;font-size: 13px;&quot;&gt;&lt;/font&gt;&lt;/b&gt;" style="text;strokeColor=none;align=center;fillColor=none;html=1;verticalAlign=middle;whiteSpace=wrap;rounded=0;shadow=1;rotation=0;fontSize=13;labelBackgroundColor=none;" parent="Y4IA8xLdNqTUvV_AQGgA-11" vertex="1">
          <mxGeometry x="110" y="335.69" width="51.91" height="12" as="geometry" />
        </mxCell>
        <mxCell id="Y4IA8xLdNqTUvV_AQGgA-12" value="&lt;b style=&quot;font-size: 13px;&quot;&gt;&lt;font color=&quot;#0d0500&quot; style=&quot;font-size: 13px;&quot;&gt;OUT -&lt;br style=&quot;font-size: 13px;&quot;&gt;&lt;/font&gt;&lt;/b&gt;" style="text;strokeColor=none;align=center;fillColor=none;html=1;verticalAlign=middle;whiteSpace=wrap;rounded=0;shadow=1;rotation=0;fontSize=13;labelBackgroundColor=none;" parent="Y4IA8xLdNqTUvV_AQGgA-11" vertex="1">
          <mxGeometry x="110.99999999999999" y="549" width="51.91" height="12" as="geometry" />
        </mxCell>
      </root>
    </mxGraphModel>
  </diagram>
</mxfile>
